STARTFONT 2.1
COMMENT
COMMENT Converted from OpenType font "FontAwesome5Free-Solid-900.otf" by "otf2bdf 3.0".
COMMENT
FONT -FreeType-Font Awesome 5 Free Solid-Medium-R-Normal--39-280-100-100-P-344-ISO10646-1
SIZE 28 100 100
FONTBOUNDINGBOX 51 39 -2 -5
STARTPROPERTIES 19
FOUNDRY "FreeType"
FAMILY_NAME "Font Awesome 5 Free Solid"
WEIGHT_NAME "Medium"
SLANT "R"
SETWIDTH_NAME "Normal"
ADD_STYLE_NAME ""
PIXEL_SIZE 39
POINT_SIZE 280
RESOLUTION_X 100
RESOLUTION_Y 100
SPACING "P"
AVERAGE_WIDTH 344
CHARSET_REGISTRY "ISO10646"
CHARSET_ENCODING "1"
FONT_ASCENT 34
FONT_DESCENT 4
COPYRIGHT "Font Awesome"
_OTF_FONTFILE "FontAwesome5Free-Solid-900.otf"
_OTF_PSNAME "FontAwesome5FreeSolid"
ENDPROPERTIES
CHARS 549
STARTCHAR 0020
ENCODING 32
SWIDTH 385 0
DWIDTH 15 0
BBX 0 0 0 0
BITMAP
ENDCHAR
STARTCHAR 002D
ENCODING 45
SWIDTH 437 0
DWIDTH 17 0
BBX 11 3 3 13
BITMAP
FFE0
FFE0
FFE0
ENDCHAR
STARTCHAR 002E
ENCODING 46
SWIDTH 231 0
DWIDTH 9 0
BBX 5 4 2 4
BITMAP
F8
F8
F8
F8
ENDCHAR
STARTCHAR 0030
ENCODING 48
SWIDTH 591 0
DWIDTH 23 0
BBX 19 28 2 4
BITMAP
03F800
0FFE00
1FFF00
3E0780
3C0380
7801C0
7001C0
7001E0
F000E0
F000E0
E000E0
E000E0
E000E0
E000E0
E000E0
E000E0
E000E0
E000E0
F000E0
F000E0
7001E0
7001C0
7801C0
3803C0
3E0780
1FFF00
0FFE00
03F800
ENDCHAR
STARTCHAR 0031
ENCODING 49
SWIDTH 642 0
DWIDTH 25 0
BBX 15 28 5 4
BITMAP
0180
0780
0F80
3F80
7F80
F380
E380
8380
0380
0380
0380
0380
0380
0380
0380
0380
0380
0380
0380
0380
0380
0380
0380
0380
0380
FFFE
FFFE
FFFE
ENDCHAR
STARTCHAR 0032
ENCODING 50
SWIDTH 617 0
DWIDTH 24 0
BBX 18 28 3 4
BITMAP
07F000
3FFC00
7FFE00
F80F00
E00700
800780
000380
000380
000380
000780
000700
000F00
000E00
001E00
003C00
007800
00F800
00F000
01E000
03C000
078000
0F0000
1E0000
3C0000
780000
FFFFC0
FFFFC0
FFFFC0
ENDCHAR
STARTCHAR 0033
ENCODING 51
SWIDTH 591 0
DWIDTH 23 0
BBX 19 28 2 4
BITMAP
03F800
1FFE00
3FFF00
7C0780
700380
0003C0
0001C0
0001C0
0001C0
0003C0
000380
000F00
03FE00
03FC00
03FF00
000F80
0003C0
0001C0
0001C0
0001C0
0001E0
0001C0
4001C0
6003C0
F80780
7FFF80
1FFE00
07F800
ENDCHAR
STARTCHAR 0034
ENCODING 52
SWIDTH 617 0
DWIDTH 24 0
BBX 20 28 2 4
BITMAP
000700
000F00
000F00
001F00
003F00
007F00
007700
00E700
01E700
01C700
038700
078700
070700
0E0700
1E0700
1C0700
380700
780700
700700
FFFFF0
FFFFF0
FFFFF0
000700
000700
000700
000700
000700
000700
ENDCHAR
STARTCHAR 0035
ENCODING 53
SWIDTH 617 0
DWIDTH 24 0
BBX 18 28 3 4
BITMAP
7FFF80
7FFF80
7FFF80
700000
700000
700000
700000
700000
700000
700000
70F000
77FC00
7FFF00
7E0F80
780780
7003C0
0001C0
0001C0
0001C0
0001C0
0001C0
0001C0
4003C0
E00380
F80F80
7FFF00
1FFE00
07F800
ENDCHAR
STARTCHAR 0036
ENCODING 54
SWIDTH 617 0
DWIDTH 24 0
BBX 19 28 2 4
BITMAP
01FC00
07FF80
0FFFC0
1F03E0
3C00E0
3C0000
780000
700000
700000
700000
F07800
E3FE00
E7FF80
EF07C0
EC03C0
F801E0
F800E0
F000E0
F000E0
7000E0
7000E0
7800E0
3801E0
3C01C0
1E03C0
0FFF80
07FF00
01FC00
ENDCHAR
STARTCHAR 0037
ENCODING 55
SWIDTH 591 0
DWIDTH 23 0
BBX 19 28 2 4
BITMAP
FFFFE0
FFFFE0
FFFFE0
0001C0
0003C0
000380
000780
000700
000F00
000E00
001E00
001C00
003C00
003800
007800
007000
00F000
00E000
01E000
01C000
03C000
038000
078000
070000
0F0000
0E0000
1E0000
1C0000
ENDCHAR
STARTCHAR 0038
ENCODING 56
SWIDTH 591 0
DWIDTH 23 0
BBX 20 28 2 4
BITMAP
03F800
0FFF00
3FFF80
7C07C0
7801C0
7001E0
F000E0
F000E0
F000E0
7001E0
7801C0
3C07C0
1F1F00
07FC00
1FFF00
3E0F80
7803C0
F000E0
E000E0
E000E0
E000F0
E000E0
E000E0
F001E0
7803C0
3FFF80
1FFF00
03FC00
ENDCHAR
STARTCHAR 0039
ENCODING 57
SWIDTH 591 0
DWIDTH 23 0
BBX 19 28 2 4
BITMAP
03F000
0FFC00
3FFF00
3C0F80
780380
F003C0
E001C0
E001E0
E001E0
E001E0
E001E0
F001E0
7003E0
7807E0
3C0EE0
1FFCE0
0FF8E0
01C0E0
0000E0
0001E0
0001C0
0001C0
000380
E00780
F80F00
7FFE00
3FFC00
07F000
ENDCHAR
STARTCHAR 0040
ENCODING 64
SWIDTH 925 0
DWIDTH 36 0
BBX 32 34 2 -2
BITMAP
000FF800
007FFF00
01FE1FC0
03E001E0
07800070
0E000038
1C00001C
3800000E
3803E306
700FF307
701E3B07
60380F03
E0700F03
E0700703
E0600603
C0E00603
C0E00603
C0E00E03
E0E00E07
E0E00E07
E0E01E06
E0703E0E
60786E1C
703FC7F8
701F83F0
38000000
38000000
1C000000
0E000038
07000070
03C001E0
01FC0FC0
007FFF80
000FFC00
ENDCHAR
STARTCHAR 0041
ENCODING 65
SWIDTH 745 0
DWIDTH 29 0
BBX 27 28 1 4
BITMAP
000E0000
001E0000
001F0000
003F0000
003B8000
007B8000
00738000
0071C000
00E1C000
00E0E000
01C0E000
01C07000
03C07000
03807800
03803800
07003800
07001C00
0E001C00
0FFFFE00
1FFFFE00
1FFFFF00
3C000700
38000700
38000380
70000380
700001C0
F00001C0
E00001E0
ENDCHAR
STARTCHAR 0042
ENCODING 66
SWIDTH 720 0
DWIDTH 28 0
BBX 21 28 3 4
BITMAP
FFFE00
FFFFC0
FFFFE0
F001E0
F000F0
F00070
F00070
F00070
F00070
F00070
F000F0
F001E0
FFFFC0
FFFF00
FFFFC0
F001F0
F00070
F00078
F00038
F00038
F00038
F00038
F00038
F00078
F000F0
FFFFE0
FFFFC0
FFFF00
ENDCHAR
STARTCHAR 0043
ENCODING 67
SWIDTH 694 0
DWIDTH 27 0
BBX 23 28 2 4
BITMAP
007F80
01FFF0
07FFF8
0F807E
1F001C
1C0004
3C0000
380000
780000
700000
700000
700000
F00000
F00000
F00000
F00000
700000
700000
700000
780000
380000
3C0000
1C0004
1E000C
0F807E
07FFFC
01FFF0
007F80
ENDCHAR
STARTCHAR 0044
ENCODING 68
SWIDTH 771 0
DWIDTH 30 0
BBX 24 28 3 4
BITMAP
FFFC00
FFFF80
FFFFE0
F003F0
F000F8
F00038
F0003C
F0001E
F0001E
F0000E
F0000E
F0000F
F0000F
F0000F
F0000F
F0000F
F0000F
F0000E
F0000E
F0001E
F0001E
F0003C
F0003C
F000F8
F003F0
FFFFE0
FFFF80
FFFC00
ENDCHAR
STARTCHAR 0045
ENCODING 69
SWIDTH 617 0
DWIDTH 24 0
BBX 18 28 3 4
BITMAP
FFFFC0
FFFFC0
FFFFC0
F00000
F00000
F00000
F00000
F00000
F00000
F00000
F00000
F00000
FFFF80
FFFF80
FFFF80
F00000
F00000
F00000
F00000
F00000
F00000
F00000
F00000
F00000
F00000
FFFFC0
FFFFC0
FFFFC0
ENDCHAR
STARTCHAR 0046
ENCODING 70
SWIDTH 617 0
DWIDTH 24 0
BBX 18 28 3 4
BITMAP
FFFFC0
FFFFC0
FFFFC0
F00000
F00000
F00000
F00000
F00000
F00000
F00000
F00000
F00000
FFFF80
FFFF80
FFFF80
F00000
F00000
F00000
F00000
F00000
F00000
F00000
F00000
F00000
F00000
F00000
F00000
F00000
ENDCHAR
STARTCHAR 0047
ENCODING 71
SWIDTH 720 0
DWIDTH 28 0
BBX 23 28 2 4
BITMAP
007FC0
01FFF0
07FFFC
0F807E
1E000C
1C0004
3C0000
380000
780000
700000
700000
700000
F00000
F007FE
F007FE
F007FE
70000E
70000E
70000E
78000E
78000E
3C000E
1C000E
1E000E
0F800E
07FFFE
01FFFE
007FE0
ENDCHAR
STARTCHAR 0048
ENCODING 72
SWIDTH 771 0
DWIDTH 30 0
BBX 23 28 3 4
BITMAP
F0000E
F0000E
F0000E
F0000E
F0000E
F0000E
F0000E
F0000E
F0000E
F0000E
F0000E
F0000E
FFFFFE
FFFFFE
FFFFFE
F0000E
F0000E
F0000E
F0000E
F0000E
F0000E
F0000E
F0000E
F0000E
F0000E
F0000E
F0000E
F0000E
ENDCHAR
STARTCHAR 0049
ENCODING 73
SWIDTH 257 0
DWIDTH 10 0
BBX 4 28 3 4
BITMAP
F0
F0
F0
F0
F0
F0
F0
F0
F0
F0
F0
F0
F0
F0
F0
F0
F0
F0
F0
F0
F0
F0
F0
F0
F0
F0
F0
F0
ENDCHAR
STARTCHAR 004A
ENCODING 74
SWIDTH 257 0
DWIDTH 10 0
BBX 9 35 0 -3
BITMAP
0380
0380
0380
0380
0380
0380
0380
0380
0380
0380
0380
0380
0380
0380
0380
0380
0380
0380
0380
0380
0380
0380
0380
0380
0380
0380
0380
0380
0380
0380
0380
0780
FF00
FF00
FC00
ENDCHAR
STARTCHAR 004B
ENCODING 75
SWIDTH 720 0
DWIDTH 28 0
BBX 22 28 3 4
BITMAP
F00078
F000F0
F001E0
F007C0
F00F80
F01E00
F03C00
F07800
F0F000
F1E000
F3C000
F78000
FF0000
FE0000
FF0000
FF8000
F3C000
F1E000
F0F000
F07800
F03C00
F01E00
F00F00
F00780
F003C0
F001E0
F000F0
F0007C
ENDCHAR
STARTCHAR 004C
ENCODING 76
SWIDTH 617 0
DWIDTH 24 0
BBX 18 28 3 4
BITMAP
F00000
F00000
F00000
F00000
F00000
F00000
F00000
F00000
F00000
F00000
F00000
F00000
F00000
F00000
F00000
F00000
F00000
F00000
F00000
F00000
F00000
F00000
F00000
F00000
F00000
FFFFC0
FFFFC0
FFFFC0
ENDCHAR
STARTCHAR 004D
ENCODING 77
SWIDTH 848 0
DWIDTH 33 0
BBX 27 28 3 4
BITMAP
E00000E0
F00001E0
F00001E0
F80003E0
F80003E0
F80003E0
FC0007E0
FC0007E0
EE000EE0
EE000EE0
E7001CE0
E7001CE0
E30018E0
E38038E0
E38030E0
E1C070E0
E1C070E0
E0E0E0E0
E0E0E0E0
E070C0E0
E071C0E0
E03180E0
E03B80E0
E03B80E0
E01F00E0
E01F00E0
E00E00E0
E00E00E0
ENDCHAR
STARTCHAR 004E
ENCODING 78
SWIDTH 745 0
DWIDTH 29 0
BBX 23 28 3 4
BITMAP
E0000E
F0000E
F8000E
F8000E
FC000E
FE000E
EF000E
E7000E
E3800E
E3C00E
E1E00E
E0E00E
E0700E
E0780E
E03C0E
E01C0E
E00E0E
E00F0E
E0078E
E0038E
E001CE
E001EE
E000FE
E0007E
E0003E
E0003E
E0001E
E0000E
ENDCHAR
STARTCHAR 004F
ENCODING 79
SWIDTH 771 0
DWIDTH 30 0
BBX 26 28 2 4
BITMAP
007F8000
01FFE000
07FFF800
0F807C00
1E001E00
3C000F00
3C000F00
38000780
78000780
70000380
70000380
70000380
F00003C0
F00003C0
F00003C0
F00003C0
70000380
70000380
70000380
78000780
78000780
3C000F00
1C000E00
1E001E00
0F807C00
07FFF800
01FFE000
007F8000
ENDCHAR
STARTCHAR 0050
ENCODING 80
SWIDTH 694 0
DWIDTH 27 0
BBX 21 28 3 4
BITMAP
FFFE00
FFFF80
FFFFE0
F001E0
F000F0
F00070
F00070
F00078
F00078
F00070
F00070
F000F0
F003E0
FFFFC0
FFFF80
FFFC00
F00000
F00000
F00000
F00000
F00000
F00000
F00000
F00000
F00000
F00000
F00000
F00000
ENDCHAR
STARTCHAR 0051
ENCODING 81
SWIDTH 771 0
DWIDTH 30 0
BBX 26 35 2 -3
BITMAP
007F8000
01FFE000
07FFF800
0F807C00
1E001E00
3C000F00
3C000F00
38000780
78000780
70000380
70000380
70000380
F00003C0
F00003C0
F00003C0
F00003C0
70000380
70000380
70000380
78000780
78000780
3C000F00
1C000F00
1E001E00
0F807C00
07FFF800
01FFE000
007FC000
0001C000
0001E000
0000F000
00007800
00003C00
00001C00
00000800
ENDCHAR
STARTCHAR 0052
ENCODING 82
SWIDTH 745 0
DWIDTH 29 0
BBX 22 28 3 4
BITMAP
FFFE00
FFFFC0
FFFFE0
F001F0
F000F0
F00070
F00078
F00078
F00078
F00078
F00070
F000F0
F003E0
FFFFC0
FFFF00
FFFF00
F003C0
F001C0
F001E0
F000E0
F000E0
F000F0
F00070
F00078
F00038
F00038
F0003C
F0001C
ENDCHAR
STARTCHAR 0053
ENCODING 83
SWIDTH 617 0
DWIDTH 24 0
BBX 20 28 2 4
BITMAP
01FE00
0FFF80
1FFFE0
3C03F0
780060
700020
F00000
F00000
F00000
F00000
780000
7C0000
3F8000
1FF800
03FF00
007FC0
0007E0
0000F0
000070
000070
000070
000070
000070
E000F0
F803E0
7FFFC0
1FFF80
07FC00
ENDCHAR
STARTCHAR 0054
ENCODING 84
SWIDTH 591 0
DWIDTH 23 0
BBX 23 28 0 4
BITMAP
FFFFFE
FFFFFE
FFFFFE
003800
003800
003800
003800
003800
003800
003800
003800
003800
003800
003800
003800
003800
003800
003800
003800
003800
003800
003800
003800
003800
003800
003800
003800
003800
ENDCHAR
STARTCHAR 0055
ENCODING 85
SWIDTH 720 0
DWIDTH 28 0
BBX 22 28 3 4
BITMAP
E0001C
E0001C
E0001C
E0001C
E0001C
E0001C
E0001C
E0001C
E0001C
E0001C
E0001C
E0001C
E0001C
E0001C
E0001C
E0001C
E0001C
E0001C
E0001C
F0001C
70001C
70003C
780038
3C0078
3E01F0
1FFFE0
07FFC0
01FE00
ENDCHAR
STARTCHAR 0056
ENCODING 86
SWIDTH 694 0
DWIDTH 27 0
BBX 27 28 0 4
BITMAP
F00000E0
700001C0
780001C0
380003C0
38000380
3C000780
1C000700
1E000700
0E000E00
0F000E00
07001E00
07001C00
07803C00
03803800
03C03800
01C07000
01C07000
00E0E000
00E0E000
00F1E000
0071C000
0079C000
003B8000
003B8000
001F0000
001F0000
001F0000
000E0000
ENDCHAR
STARTCHAR 0057
ENCODING 87
SWIDTH 1105 0
DWIDTH 43 0
BBX 41 28 1 4
BITMAP
F0001C000380
70001C000700
70001E000700
78003E000700
38003E000E00
38003F000E00
1C0077000E00
1C0077001C00
1C00E3801C00
0E00E3801C00
0E00E3803800
0E01C1C03800
0701C1C03800
0701C0C07000
070380E07000
038380E07000
03838060E000
03870070E000
01C70070E000
01C70031C000
01CE0039C000
00EE003B8000
00EE001F8000
00FC001F8000
007C001F0000
007C000F0000
0078000F0000
0038000E0000
ENDCHAR
STARTCHAR 0058
ENCODING 88
SWIDTH 642 0
DWIDTH 25 0
BBX 24 28 1 4
BITMAP
F0001E
78001E
38003C
3C0078
1E0070
0F00F0
0701E0
0783C0
03C380
01C780
00EF00
00FE00
007C00
003C00
007C00
00FE00
00EF00
01E700
03C780
0383C0
0781E0
0F00E0
1E00F0
1C0078
3C0038
78003C
F0001E
E0000F
ENDCHAR
STARTCHAR 0059
ENCODING 89
SWIDTH 642 0
DWIDTH 25 0
BBX 24 28 0 4
BITMAP
E0000F
F0000E
78001E
38003C
3C0038
1E0078
0E00F0
0F00E0
0701E0
0781C0
03C380
01C780
01E700
00FE00
007E00
007C00
003C00
003800
003800
003800
003800
003800
003800
003800
003800
003800
003800
003800
ENDCHAR
STARTCHAR 005A
ENCODING 90
SWIDTH 591 0
DWIDTH 23 0
BBX 20 28 2 4
BITMAP
FFFFE0
FFFFE0
FFFFE0
0001E0
0003C0
000380
000700
000F00
000E00
001C00
003C00
003800
007000
00F000
01E000
01C000
03C000
078000
070000
0F0000
1E0000
1C0000
380000
780000
700000
FFFFF0
FFFFF0
FFFFF0
ENDCHAR
STARTCHAR 0061
ENCODING 97
SWIDTH 565 0
DWIDTH 22 0
BBX 18 20 2 4
BITMAP
07E1C0
0FF9C0
1FFDC0
3C07C0
7803C0
7003C0
F001C0
E001C0
E001C0
E001C0
E001C0
E001C0
E001C0
F001C0
7003C0
7803C0
3C0FC0
3FFDC0
0FF9C0
03F1C0
ENDCHAR
STARTCHAR 0062
ENCODING 98
SWIDTH 642 0
DWIDTH 25 0
BBX 18 29 3 4
BITMAP
E00000
E00000
E00000
E00000
E00000
E00000
E00000
E00000
E00000
E1F800
E7FE00
EFFF00
FC0F80
F80380
F003C0
F001C0
E001C0
E001C0
E001C0
E001C0
E001C0
E001C0
F001C0
F003C0
F80380
FC0F80
EFFF00
E7FE00
E1F800
ENDCHAR
STARTCHAR 0063
ENCODING 99
SWIDTH 514 0
DWIDTH 20 0
BBX 16 20 2 4
BITMAP
03F8
0FFE
1FFF
3C07
7800
7000
F000
E000
E000
E000
E000
E000
E000
F000
7000
7800
3C07
1FFF
0FFE
03F8
ENDCHAR
STARTCHAR 0064
ENCODING 100
SWIDTH 565 0
DWIDTH 22 0
BBX 18 29 2 4
BITMAP
0001C0
0001C0
0001C0
0001C0
0001C0
0001C0
0001C0
0001C0
0001C0
07F1C0
0FF9C0
3FFDC0
3C0FC0
7803C0
7003C0
F001C0
E001C0
E001C0
E001C0
E001C0
E001C0
E001C0
F001C0
7003C0
7803C0
3C0FC0
1FFDC0
0FF9C0
03F1C0
ENDCHAR
STARTCHAR 0065
ENCODING 101
SWIDTH 540 0
DWIDTH 21 0
BBX 17 20 2 4
BITMAP
03F000
0FFC00
1FFE00
3C0700
780700
700380
F00380
E00380
FFFF80
FFFF80
E00000
E00000
E00000
F00000
700000
780100
3C0380
1FFF80
0FFF00
03F800
ENDCHAR
STARTCHAR 0066
ENCODING 102
SWIDTH 334 0
DWIDTH 13 0
BBX 13 29 0 4
BITMAP
01F8
03F8
07F8
0F00
0F00
0E00
0E00
0E00
0E00
FFF0
FFF0
FFF0
0E00
0E00
0E00
0E00
0E00
0E00
0E00
0E00
0E00
0E00
0E00
0E00
0E00
0E00
0E00
0E00
0E00
ENDCHAR
STARTCHAR 0067
ENCODING 103
SWIDTH 565 0
DWIDTH 22 0
BBX 18 28 2 -4
BITMAP
07F1C0
0FF9C0
3FFDC0
3C07C0
7003C0
7003C0
E001C0
E001C0
E001C0
E001C0
E001C0
E001C0
F001C0
7003C0
7803C0
3C07C0
3FFDC0
1FF9C0
03F1C0
0001C0
0001C0
0001C0
0001C0
0003C0
380780
3FFF80
1FFE00
07F800
ENDCHAR
STARTCHAR 0068
ENCODING 104
SWIDTH 591 0
DWIDTH 23 0
BBX 17 29 3 4
BITMAP
E00000
E00000
E00000
E00000
E00000
E00000
E00000
E00000
E00000
E1F800
E7FE00
EFFF00
FC0F00
F80700
F00780
F00380
E00380
E00380
E00380
E00380
E00380
E00380
E00380
E00380
E00380
E00380
E00380
E00380
E00380
ENDCHAR
STARTCHAR 0069
ENCODING 105
SWIDTH 231 0
DWIDTH 9 0
BBX 4 28 3 4
BITMAP
F0
F0
F0
F0
00
00
00
00
E0
E0
E0
E0
E0
E0
E0
E0
E0
E0
E0
E0
E0
E0
E0
E0
E0
E0
E0
E0
ENDCHAR
STARTCHAR 006A
ENCODING 106
SWIDTH 231 0
DWIDTH 9 0
BBX 9 36 -2 -4
BITMAP
0780
0780
0780
0780
0000
0000
0000
0000
0700
0700
0700
0700
0700
0700
0700
0700
0700
0700
0700
0700
0700
0700
0700
0700
0700
0700
0700
0700
0700
0700
0700
0700
0F00
FE00
FE00
F800
ENDCHAR
STARTCHAR 006B
ENCODING 107
SWIDTH 591 0
DWIDTH 23 0
BBX 17 29 3 4
BITMAP
E00000
E00000
E00000
E00000
E00000
E00000
E00000
E00000
E00000
E00F00
E01E00
E03C00
E07800
E0F000
E1E000
E3C000
E78000
EF0000
FE0000
FF0000
EF8000
E7C000
E3E000
E1F000
E07800
E03C00
E01E00
E00F00
E00780
ENDCHAR
STARTCHAR 006C
ENCODING 108
SWIDTH 231 0
DWIDTH 9 0
BBX 3 29 3 4
BITMAP
E0
E0
E0
E0
E0
E0
E0
E0
E0
E0
E0
E0
E0
E0
E0
E0
E0
E0
E0
E0
E0
E0
E0
E0
E0
E0
E0
E0
E0
ENDCHAR
STARTCHAR 006D
ENCODING 109
SWIDTH 874 0
DWIDTH 34 0
BBX 28 20 3 4
BITMAP
E3F01F80
E7FC7FC0
EFFEFFE0
F81FC0E0
F00F80F0
F00F0070
E00F0070
E0070070
E0070070
E0070070
E0070070
E0070070
E0070070
E0070070
E0070070
E0070070
E0070070
E0070070
E0070070
E0070070
ENDCHAR
STARTCHAR 006E
ENCODING 110
SWIDTH 591 0
DWIDTH 23 0
BBX 17 20 3 4
BITMAP
E1F800
E7FE00
EFFF00
FC0F00
F00700
F00780
E00380
E00380
E00380
E00380
E00380
E00380
E00380
E00380
E00380
E00380
E00380
E00380
E00380
E00380
ENDCHAR
STARTCHAR 006F
ENCODING 111
SWIDTH 565 0
DWIDTH 22 0
BBX 18 20 2 4
BITMAP
03F000
0FFC00
1FFE00
3C0F00
780780
7003C0
F001C0
E001C0
E001C0
E001C0
E001C0
E001C0
E001C0
F001C0
7003C0
780380
3C0F00
1FFF00
0FFC00
03F000
ENDCHAR
STARTCHAR 0070
ENCODING 112
SWIDTH 617 0
DWIDTH 24 0
BBX 18 28 3 -4
BITMAP
E1F800
E7FE00
EFFF00
FC0F80
F80780
F003C0
F001C0
E001C0
E001C0
E001C0
E001C0
E001C0
E001C0
F001C0
F003C0
F80380
FC0F80
EFFF00
E7FE00
E1F800
E00000
E00000
E00000
E00000
E00000
E00000
E00000
E00000
ENDCHAR
STARTCHAR 0071
ENCODING 113
SWIDTH 565 0
DWIDTH 22 0
BBX 19 28 2 -4
BITMAP
07E0E0
0FF9C0
1FFDC0
3C07C0
7803C0
7003C0
F001C0
E001C0
E001C0
E001C0
E001C0
E001C0
E001C0
F001C0
7003C0
7807C0
3C0FC0
3FFDC0
0FF9C0
03F1C0
0001C0
0001C0
0001C0
0001C0
0001C0
0001C0
0001C0
0001C0
ENDCHAR
STARTCHAR 0072
ENCODING 114
SWIDTH 437 0
DWIDTH 17 0
BBX 11 20 3 4
BITMAP
E3E0
E7E0
EFE0
FC00
F000
F000
E000
E000
E000
E000
E000
E000
E000
E000
E000
E000
E000
E000
E000
E000
ENDCHAR
STARTCHAR 0073
ENCODING 115
SWIDTH 488 0
DWIDTH 19 0
BBX 15 20 2 4
BITMAP
07E0
1FFC
3FFE
780E
7004
F000
7000
7800
7E00
3FE0
0FF8
00FC
001E
000E
000E
000E
E01E
FFFC
7FF8
0FE0
ENDCHAR
STARTCHAR 0074
ENCODING 116
SWIDTH 334 0
DWIDTH 13 0
BBX 13 26 0 4
BITMAP
0200
0E00
0E00
0E00
0E00
0E00
FFF8
FFF8
FFF8
0E00
0E00
0E00
0E00
0E00
0E00
0E00
0E00
0E00
0E00
0E00
0E00
0F00
0700
07F8
03F8
01F8
ENDCHAR
STARTCHAR 0075
ENCODING 117
SWIDTH 565 0
DWIDTH 22 0
BBX 16 20 3 4
BITMAP
E007
E007
E007
E007
E007
E007
E007
E007
E007
E007
E007
E007
E007
E007
E00F
F00F
781F
7FFF
3FF7
0FC7
ENDCHAR
STARTCHAR 0076
ENCODING 118
SWIDTH 540 0
DWIDTH 21 0
BBX 19 20 1 4
BITMAP
E000E0
E001E0
F001C0
7001C0
780380
380380
380700
1C0700
1C0700
1E0E00
0E0E00
0E1C00
071C00
071C00
07B800
03B800
03F000
01F000
01E000
00E000
ENDCHAR
STARTCHAR 0077
ENCODING 119
SWIDTH 874 0
DWIDTH 34 0
BBX 32 20 1 4
BITMAP
F003C00F
7003C00E
7003C00E
7807E01C
3807E01C
3806E01C
3C0E7038
1C0E7038
1C0C7038
1E1C3870
0E1C3870
0E383870
07381CE0
07381CE0
07701CE0
03F00FC0
03F00FC0
03E00780
01E00780
01C00780
ENDCHAR
STARTCHAR 0078
ENCODING 120
SWIDTH 540 0
DWIDTH 21 0
BBX 19 20 1 4
BITMAP
F001E0
7803C0
3C0780
1C0F00
1E0E00
0F1E00
07BC00
03F800
01F000
01E000
01F000
03F800
07B800
073C00
0F1E00
1E0F00
3C0780
780380
7003C0
F001E0
ENDCHAR
STARTCHAR 0079
ENCODING 121
SWIDTH 540 0
DWIDTH 21 0
BBX 19 28 1 -4
BITMAP
E000E0
E001E0
7001C0
7001C0
780380
380380
380700
1C0700
1C0700
1E0E00
0E0E00
0F1C00
071C00
071800
03B800
03B800
03F000
01F000
01E000
00E000
01C000
01C000
03C000
078000
0F0000
3E0000
7C0000
700000
ENDCHAR
STARTCHAR 007A
ENCODING 122
SWIDTH 514 0
DWIDTH 20 0
BBX 16 20 2 4
BITMAP
FFFF
FFFF
FFFF
001E
001C
003C
0078
00F0
01E0
01C0
03C0
0780
0F00
1E00
1C00
3800
7800
FFFF
FFFF
FFFF
ENDCHAR
STARTCHAR F000
ENCODING 61440
SWIDTH 1002 0
DWIDTH 39 0
BBX 39 39 0 -5
BITMAP
FFFFFFFFFE
FFFFFFFFFE
7FFFFFFFFC
3FFFFFFFF8
1FFFFFFFF0
0FFFFFFFE0
07FFFFFFC0
03FFFFFF80
01FFFFFF00
00FFFFFE00
007FFFFC00
003FFFF800
001FFFF000
000FFFE000
0007FFC000
0003FF8000
0001FF0000
0000FE0000
0000FC0000
0000FC0000
0000FC0000
0000FC0000
0000FC0000
0000FC0000
0000FC0000
0000FC0000
0000FC0000
0000FC0000
0000FC0000
0000FC0000
0000FC0000
0000FC0000
0000FC0000
0000FC0000
0000FC0000
0000FC0000
00FFFFFE00
01FFFFFF00
01FFFFFE00
ENDCHAR
STARTCHAR F001
ENCODING 61441
SWIDTH 1002 0
DWIDTH 39 0
BBX 39 39 0 -5
BITMAP
000000003C
00000001FE
0000000FFE
0000007FFE
000003FFFE
00003FFFFE
0001FFFFFE
000FFFFFFE
001FFFFFFE
001FFFFFFE
001FFFFFDE
001FFFFE1E
001FFFF01E
001FFF801E
001FFC001E
001FC0001E
001E00001E
001E00001E
001E00001E
001E00001E
001E00001E
001E00001E
001E00001E
001E00001E
001E0007DE
001E001FFE
001E007FFE
001E007FFE
001E00FFFE
0FDE00FFFE
3FFE007FFE
7FFE007FFC
FFFE003FF8
FFFE000FE0
FFFE000000
FFFC000000
7FFC000000
3FF0000000
0FC0000000
ENDCHAR
STARTCHAR F002
ENCODING 61442
SWIDTH 1002 0
DWIDTH 39 0
BBX 39 39 0 -5
BITMAP
000FF00000
007FFE0000
01FFFF0000
03FFFFC000
07FFFFE000
0FFFFFF000
1FF81FF800
3FE007F800
3F8003FC00
7F0001FC00
7F0000FE00
7E00007E00
FE00007E00
FC00007E00
FC00007F00
FC00007F00
FC00007F00
FC00007E00
FC00007E00
FE00007E00
7E0000FE00
7F0000FE00
7F8001FC00
3FC003FC00
1FF00FF800
1FFFFFF800
0FFFFFFE00
07FFFFFF00
03FFFFBF80
00FFFF3FC0
003FFC3FE0
0003801FF0
0000000FF8
00000007FC
00000003FE
00000001FE
00000000FC
0000000078
0000000030
ENDCHAR
STARTCHAR F004
ENCODING 61444
SWIDTH 1131 0
DWIDTH 44 0
BBX 42 35 1 -3
BITMAP
01FE001FE000
07FF807FF800
1FFFC0FFFC00
3FFFF3FFFE00
3FFFFFFFFF00
7FFFFFFFFF80
7FFFFFFFFF80
FFFFFFFFFF80
FFFFFFFFFF80
FFFFFFFFFFC0
FFFFFFFFFFC0
FFFFFFFFFF80
FFFFFFFFFF80
7FFFFFFFFF80
7FFFFFFFFF80
7FFFFFFFFF00
3FFFFFFFFF00
1FFFFFFFFE00
1FFFFFFFFC00
0FFFFFFFFC00
07FFFFFFF800
03FFFFFFF000
01FFFFFFE000
00FFFFFFC000
007FFFFF8000
003FFFFE0000
001FFFFC0000
000FFFF80000
0007FFF00000
0003FFE00000
0001FFC00000
0000FF800000
00007F000000
00001E000000
00000C000000
ENDCHAR
STARTCHAR F005
ENCODING 61445
SWIDTH 1131 0
DWIDTH 44 0
BBX 40 39 2 -5
BITMAP
0000380000
00003C0000
00007E0000
00007E0000
0000FF0000
0000FF0000
0001FF8000
0001FF8000
0003FFC000
0003FFC000
0007FFE000
000FFFF000
07FFFFFFE0
FFFFFFFFFE
FFFFFFFFFF
FFFFFFFFFF
FFFFFFFFFF
7FFFFFFFFE
3FFFFFFFFC
1FFFFFFFF8
0FFFFFFFF0
07FFFFFFE0
03FFFFFFC0
01FFFFFF80
00FFFFFF00
00FFFFFF00
00FFFFFF00
00FFFFFF00
00FFFFFF00
00FFFFFF00
01FFFFFF00
01FFFFFF80
01FFFFFF80
01FFFFFF80
01FFC3FF80
01FF00FF80
03FC003F80
01F0000F80
01C0000300
ENDCHAR
STARTCHAR F007
ENCODING 61447
SWIDTH 1002 0
DWIDTH 39 0
BBX 39 39 0 -5
BITMAP
0000FE0000
0003FF8000
000FFFE000
001FFFF000
003FFFF800
007FFFFC00
007FFFFC00
00FFFFFE00
00FFFFFE00
00FFFFFE00
01FFFFFE00
01FFFFFF00
01FFFFFF00
01FFFFFF00
01FFFFFE00
00FFFFFE00
00FFFFFE00
007FFFFC00
007FFFFC00
003FFFF800
001FFFF000
000FFFE000
0007FFC000
0001FF0000
0070001C00
07FC007FC0
1FFF83FFF0
3FFFFFFFF8
7FFFFFFFFC
7FFFFFFFFC
FFFFFFFFFE
FFFFFFFFFE
FFFFFFFFFE
FFFFFFFFFE
FFFFFFFFFE
FFFFFFFFFE
FFFFFFFFFE
7FFFFFFFFC
3FFFFFFFF8
ENDCHAR
STARTCHAR F008
ENCODING 61448
SWIDTH 1002 0
DWIDTH 39 0
BBX 39 29 0 0
BITMAP
C1FFFFFF0C
C1FFFFFF0E
FFFFFFFFFE
FFF0001FFE
FFE0000FFE
C1E0000F0E
C1E0000F0E
C1E0000F0E
C1E0000F0E
E1E0000F0E
FFE0000FFE
FFE0000FFE
E1E0001F0E
C1FFFFFF0E
C1FFFFFF0E
C1FFFFFF0E
E1E0000F0E
FFE0000FFE
FFE0000FFE
E1E0000F0E
C1E0000F0E
C1E0000F0E
C1E0000F0E
C1E0000F0E
FFE0000FFE
FFFFFFFFFE
FFFFFFFFFE
C1FFFFFF0E
41FFFFFF0C
ENDCHAR
STARTCHAR F009
ENCODING 61449
SWIDTH 1002 0
DWIDTH 39 0
BBX 39 34 0 -2
BITMAP
7FFF83FFFC
FFFFC7FFFE
FFFFC7FFFE
FFFFC7FFFE
FFFFC7FFFE
FFFFC7FFFE
FFFFC7FFFE
FFFFC7FFFE
FFFFC7FFFE
FFFFC7FFFE
FFFFC7FFFE
FFFFC7FFFE
FFFFC7FFFE
FFFFC7FFFE
FFFFC7FFFE
FFFFC7FFFE
0000000000
0000000000
0000000000
FFFFC7FFFE
FFFFC7FFFE
FFFFC7FFFE
FFFFC7FFFE
FFFFC7FFFE
FFFFC7FFFE
FFFFC7FFFE
FFFFC7FFFE
FFFFC7FFFE
FFFFC7FFFE
FFFFC7FFFE
FFFFC7FFFE
FFFFC7FFFE
FFFFC7FFFE
FFFFC7FFFE
ENDCHAR
STARTCHAR F00A
ENCODING 61450
SWIDTH 1002 0
DWIDTH 39 0
BBX 39 34 0 -2
BITMAP
7FC1FF07FC
FFE3FF8FFE
FFE3FF8FFE
FFE3FF8FFE
FFE3FF8FFE
FFE3FF8FFE
FFE3FF8FFE
FFE3FF8FFE
FFE3FF8FFE
FFE3FF8FFC
0000000000
0000000000
0000000000
FFE3FF8FFE
FFE3FF8FFE
FFE3FF8FFE
FFE3FF8FFE
FFE3FF8FFE
FFE3FF8FFE
FFE3FF8FFE
FFE3FF8FFE
FFE3FF8FFE
0000000000
0000000000
0000000000
FFE3FF8FFE
FFE3FF8FFE
FFE3FF8FFE
FFE3FF8FFE
FFE3FF8FFE
FFE3FF8FFE
FFE3FF8FFE
FFE3FF8FFE
FFE3FF8FFE
ENDCHAR
STARTCHAR F00B
ENCODING 61451
SWIDTH 1002 0
DWIDTH 39 0
BBX 39 34 0 -2
BITMAP
7FC1FFFFFC
FFE3FFFFFE
FFE3FFFFFE
FFE3FFFFFE
FFE3FFFFFE
FFE3FFFFFE
FFE3FFFFFE
FFE3FFFFFE
FFE3FFFFFE
FFE3FFFFFC
0000000000
0000000000
0000000000
FFE3FFFFFE
FFE3FFFFFE
FFE3FFFFFE
FFE3FFFFFE
FFE3FFFFFE
FFE3FFFFFE
FFE3FFFFFE
FFE3FFFFFE
FFE3FFFFFE
0000000000
0000000000
0000000000
FFE3FFFFFE
FFE3FFFFFE
FFE3FFFFFE
FFE3FFFFFE
FFE3FFFFFE
FFE3FFFFFE
FFE3FFFFFE
FFE3FFFFFE
FFE3FFFFFE
ENDCHAR
STARTCHAR F00C
ENCODING 61452
SWIDTH 1002 0
DWIDTH 39 0
BBX 39 29 0 0
BITMAP
0000000070
00000000F8
00000001FC
00000003FE
00000007FE
0000000FFE
0000001FFC
0000003FF8
0000007FF0
000000FFE0
1C0001FFC0
3E0003FF80
7F0007FF00
FF800FFE00
FFC01FFC00
FFE03FF800
7FF07FF000
3FF8FFE000
1FFDFFC000
0FFFFF8000
07FFFF0000
03FFFE0000
01FFFC0000
00FFF80000
007FF00000
003FE00000
001FC00000
000F800000
0007000000
ENDCHAR
STARTCHAR F00D
ENCODING 61453
SWIDTH 745 0
DWIDTH 29 0
BBX 29 29 0 0
BITMAP
0E000380
1F0007C0
3F800FE0
7FC01FF0
FFE03FF8
FFF07FF8
FFF8FFF8
7FFDFFF0
3FFFFFE0
1FFFFFC0
0FFFFF80
07FFFF00
03FFFE00
01FFFC00
00FFF800
01FFFC00
03FFFE00
07FFFF00
0FFFFF80
1FFFFFC0
3FFFFFE0
7FFDFFF0
FFF8FFF8
FFF07FF8
7FE03FF8
3FC01FF0
1F800FE0
0F0007C0
06000380
ENDCHAR
STARTCHAR F00E
ENCODING 61454
SWIDTH 1002 0
DWIDTH 39 0
BBX 39 39 0 -5
BITMAP
000FF00000
007FFE0000
01FFFF0000
03FFFFC000
07FFFFE000
0FFEFFF000
1FE00FF800
3FC003F800
3F8381FC00
7F03C0FC00
7E03C07E00
7C03C07E00
FC03C03E00
FC03C03E00
FCFFFE3F00
F8FFFE3F00
F8FFFE3F00
FC7FFE3E00
FC03C03E00
FC03C07E00
7E03C07E00
7E03C0FE00
7F03C0FC00
3F8001FC00
1FC007F800
1FF01FFC00
0FFFFFFE00
07FFFFFF00
03FFFFBF80
00FFFF3FC0
003FFC3FE0
0003C01FF0
0000000FF8
00000007FC
00000003FE
00000001FE
00000000FC
0000000078
0000000030
ENDCHAR
STARTCHAR F010
ENCODING 61456
SWIDTH 1002 0
DWIDTH 39 0
BBX 39 39 0 -5
BITMAP
000FF00000
007FFE0000
01FFFF0000
03FFFFC000
07FFFFE000
0FFEFFF000
1FE00FF800
3FC003F800
3F8001FC00
7F0000FC00
7E00007E00
7C00007E00
FC00003E00
FC00003E00
FCFFFE3F00
F8FFFE3F00
F8FFFE3F00
FC7FFE3E00
FC00003E00
FC00007E00
7E00007E00
7E0000FE00
7F0000FC00
3F8001FC00
1FC007F800
1FF01FFC00
0FFFFFFE00
07FFFFFF00
03FFFFBF80
00FFFF3FC0
003FFC3FE0
0003C01FF0
0000000FF8
00000007FC
00000003FE
00000001FE
00000000FC
0000000078
0000000030
ENDCHAR
STARTCHAR F011
ENCODING 61457
SWIDTH 1002 0
DWIDTH 39 0
BBX 37 38 1 -4
BITMAP
0000F80000
0001F80000
0001F80000
0001F80000
01C1F81C00
03E1F83E00
07E1F83F00
0FF1F87F80
1FE1F87FC0
3FC1F83FC0
3F81F81FE0
7F01F80FE0
7F01F807F0
FE01F803F0
FE01F803F8
FC01F801F8
FC01F801F8
FC01F801F8
FC01F801F8
FC01F801F8
FC01F801F8
FC00F801F8
FC000001F8
FC000003F8
FE000003F8
7E000003F0
7F000007F0
7F80000FE0
3F80001FE0
1FE0003FC0
1FF0007FC0
0FFC03FF80
07FFFFFF00
03FFFFFE00
01FFFFFC00
007FFFF000
001FFFC000
0007FF0000
ENDCHAR
STARTCHAR F012
ENCODING 61458
SWIDTH 1260 0
DWIDTH 49 0
BBX 45 39 2 -5
BITMAP
0000000001F8
0000000001F8
0000000001F8
0000000001F8
0000000001F8
0000000001F8
0000000001F8
0000000001F8
0000000001F8
0000000001F8
0000000001F8
00000007E1F8
00000007E1F8
00000007E1F8
00000007E1F8
00000007E1F8
00000007E1F8
00000007E1F8
00000007E1F8
00000F87E1F8
00001F87E1F8
00001F87E1F8
00001F87E1F8
00001F87E1F8
00001F87E1F8
003E1F87E1F8
003F1F87E1F8
003F1F87E1F8
003F1F87E1F8
FC3F1F87E1F8
FC3F1F87E1F8
FC3F1F87E1F8
FC3F1F87E1F8
FC3F1F87E1F8
FC3F1F87E1F8
FC3F1F87E1F8
FC3F1F87E1F8
FC3F1F87E1F8
FC3E1F87E1F8
ENDCHAR
STARTCHAR F013
ENCODING 61459
SWIDTH 1002 0
DWIDTH 39 0
BBX 36 37 1 -3
BITMAP
0003FE0000
0003FE0000
0003FE0000
0003FE0000
0003FE0000
040FFF8100
0F3FFFE780
1FFFFFFFC0
3FFFFFFFC0
3FFFFFFFE0
7FFFFFFFF0
7FFFFFFFF0
FFFF8FFFF0
7FFE03FFF0
3FFC01FFE0
0FF800FF80
0FF800FF80
0FF000FF80
0FF000FF80
0FF000FF80
0FF800FF80
1FF800FFC0
3FFC01FFE0
FFFE03FFF0
7FFFFFFFF0
7FFFFFFFF0
7FFFFFFFE0
3FFFFFFFE0
1FFFFFFFC0
1FFFFFFFC0
0E3FFFE380
000FFF8100
0003FE0000
0003FE0000
0003FE0000
0003FE0000
0003FE0000
ENDCHAR
STARTCHAR F015
ENCODING 61461
SWIDTH 1131 0
DWIDTH 44 0
BBX 44 34 0 -2
BITMAP
00000601F800
00001F81F800
00003FC1F800
00007FE1F800
0000FFF1F800
0003FFF9F800
0007F9FFF800
000FF0FFF800
001FC07FF800
003F863FF800
00FF0F0FF800
01FE1F87F800
03FC7FC3FC00
07F0FFF1FE00
1FE1FFF87F00
3FC3FFFC3F80
7F8FFFFE1FE0
FE1FFFFF0FF0
FC3FFFFFC7E0
787FFFFFE1E0
30FFFFFFF0C0
01FFFFFFF800
01FFFFFFF800
01FFFFFFF800
01FFC07FF800
01FFC03FF800
01FFC03FF800
01FFC03FF800
01FFC03FF800
01FFC03FF800
01FFC03FF800
01FFC03FF800
01FFC03FF800
01FFC03FF800
ENDCHAR
STARTCHAR F017
ENCODING 61463
SWIDTH 1002 0
DWIDTH 39 0
BBX 37 37 1 -4
BITMAP
0007FF0000
003FFFE000
00FFFFF000
01FFFFFC00
03FFFFFE00
07FFFFFF00
0FFFFFFF80
1FFF07FFC0
3FFF07FFC0
3FFF07FFE0
7FFF07FFF0
7FFF07FFF0
7FFF07FFF0
FFFF07FFF8
FFFF07FFF8
FFFF07FFF8
FFFF07FFF8
FFFF07FFF8
FFFF07FFF8
FFFF01FFF8
FFFF00FFF8
FFFF003FF8
FFFFC03FF8
FFFFE03FF8
7FFFF07FF0
7FFFFCFFF0
7FFFFFFFE0
3FFFFFFFE0
3FFFFFFFC0
1FFFFFFFC0
0FFFFFFF80
07FFFFFF00
03FFFFFE00
01FFFFFC00
007FFFF000
003FFFC000
0007FF0000
ENDCHAR
STARTCHAR F018
ENCODING 61464
SWIDTH 1131 0
DWIDTH 44 0
BBX 44 29 0 0
BITMAP
001FF0FF0000
001FF0FF8000
003FFFFF8000
003FF1FFC000
007FF0FFC000
007FE0FFE000
007FE0FFE000
00FFF0FFF000
00FFFFFFF000
01FFFFFFF800
01FFE07FF800
03FFE07FF800
03FFE07FFC00
07FFE07FFC00
07FFE07FFE00
07FFC07FFE00
0FFFE07FFF00
0FFFFFFFFF00
1FFFFFFFFF80
1FFFC07FFF80
3FFFC03FFF80
3FFFC03FFFC0
7FFFC03FFFC0
7FFFC03FFFE0
7FFFC03FFFE0
FFFF803FFFF0
FFFF803FFFF0
FFFF801FFFF0
7FFF803FFFE0
ENDCHAR
STARTCHAR F019
ENCODING 61465
SWIDTH 1002 0
DWIDTH 39 0
BBX 39 39 0 -5
BITMAP
0001FF0000
0001FF0000
0001FF0000
0001FF0000
0001FF0000
0001FF0000
0001FF0000
0001FF0000
0001FF0000
0001FF0000
0001FF0000
0001FF0000
0001FF0000
0001FF0000
0001FF0000
01FFFFFF00
03FFFFFF00
01FFFFFF00
00FFFFFE00
007FFFFC00
003FFFF800
001FFFF000
000FFFE000
0007FFC000
0003FF8000
0001FF0000
0000FE0000
FFFC7C7FFE
FFFE38FFFE
FFFF01FFFE
FFFF83FFFE
FFFFEFFFFE
FFFFFFFFFE
FFFFFFFFFE
FFFFFFE73E
FFFFFFC63E
FFFFFFE73E
FFFFFFFFFE
7FFFFFFFFC
ENDCHAR
STARTCHAR F01C
ENCODING 61468
SWIDTH 1131 0
DWIDTH 44 0
BBX 44 29 0 0
BITMAP
007FFFFFC000
007FFFFFE000
00FFFFFFF000
01FFFFFFF000
01FFFFFFF800
03F00000FC00
07E000007C00
07C000007E00
0FC000003F00
1F8000001F00
1F0000001F80
3F0000000FC0
7E00000007C0
7C00000007E0
FFFE000FFFF0
FFFF000FFFF0
FFFF001FFFF0
FFFF801FFFF0
FFFF803FFFF0
FFFFFFFFFFF0
FFFFFFFFFFF0
FFFFFFFFFFF0
FFFFFFFFFFF0
FFFFFFFFFFF0
FFFFFFFFFFF0
FFFFFFFFFFF0
FFFFFFFFFFF0
7FFFFFFFFFE0
3FFFFFFFFFC0
ENDCHAR
STARTCHAR F01E
ENCODING 61470
SWIDTH 1002 0
DWIDTH 39 0
BBX 38 38 1 -4
BITMAP
000000007C
0007FF007C
003FFFE07C
00FFFFF87C
01FFFFFC7C
03FFFFFE7C
07FE03FF7C
0FF000FFFC
1FE0003FFC
3F80001FFC
3F00000FFC
7F000007FC
7E0007FFFC
7C0007FFFC
FC0007FFFC
FC0007FFFC
F80007FFFC
F800000000
F800000000
F800000000
F800000000
F800000000
F800000000
FC00000000
FC00000000
7E00000000
7E00000000
7F00000000
3F80000000
3FC0001800
1FE0003C00
0FF800FE00
07FF07FE00
03FFFFFE00
01FFFFFC00
007FFFF000
003FFFC000
0007FF0000
ENDCHAR
STARTCHAR F021
ENCODING 61473
SWIDTH 1002 0
DWIDTH 39 0
BBX 39 39 0 -5
BITMAP
000000003E
0003FF803E
001FFFF03E
007FFFFC3E
00FFFFFE3E
01FFFFFF3E
03FF01FFBE
07F8007FFE
0FF0001FFE
1FC0000FFE
1F800007FE
3F800003FE
3F0003FFFE
3E0003FFFE
7E0003FFFE
7E0003FFFE
7C0003FFFE
0000000000
0000000000
0000000000
0000000000
0000000000
FFFF8000FC
FFFF8000FC
FFFF8000FC
FFFF8001F8
FFFF8001F8
FF800003F0
FFC00007F0
FFE0000FE0
FFF0001FE0
FFFC007FC0
FBFF83FF80
F9FFFFFF00
F8FFFFFE00
F83FFFF800
F81FFFE000
F803FF8000
F800000000
ENDCHAR
STARTCHAR F022
ENCODING 61474
SWIDTH 1002 0
DWIDTH 39 0
BBX 39 34 0 -2
BITMAP
1FFFFFFFF0
7FFFFFFFFC
FFFFFFFFFE
FFFFFFFFFE
FFFFFFFFFE
FFFFFFFFFE
FFFFFFFFFE
FF1FFFFFFE
FE0E0001FE
FE060000FE
FE060000FE
FE0E0000FE
FF0FFFFFFE
FFFFFFFFFE
FF9FFFFFFE
FE0E0001FE
FE060000FE
FE060000FE
FE060000FE
FE0E0001FE
FFFFFFFFFE
FFFFFFFFFE
FF0FFFFFFE
FE0E0000FE
FE060000FE
FE060000FE
FE0E0001FE
FF1FFFFFFE
FFFFFFFFFE
FFFFFFFFFE
FFFFFFFFFE
FFFFFFFFFE
FFFFFFFFFC
7FFFFFFFFC
ENDCHAR
STARTCHAR F023
ENCODING 61475
SWIDTH 874 0
DWIDTH 34 0
BBX 34 39 0 -5
BITMAP
0003F00000
001FFE0000
003FFF0000
007FFF8000
00FFFFC000
01FFFFE000
01FE1FE000
03F807F000
03F003F000
03F003F000
03F003F800
07F003F800
07F003F800
07F003F800
07F003F800
07F003F800
07F003F800
3FFFFFFF00
7FFFFFFF80
FFFFFFFFC0
FFFFFFFFC0
FFFFFFFFC0
FFFFFFFFC0
FFFFFFFFC0
FFFFFFFFC0
FFFFFFFFC0
FFFFFFFFC0
FFFFFFFFC0
FFFFFFFFC0
FFFFFFFFC0
FFFFFFFFC0
FFFFFFFFC0
FFFFFFFFC0
FFFFFFFFC0
FFFFFFFFC0
FFFFFFFFC0
FFFFFFFFC0
7FFFFFFF80
3FFFFFFF00
ENDCHAR
STARTCHAR F024
ENCODING 61476
SWIDTH 1002 0
DWIDTH 39 0
BBX 38 39 1 -5
BITMAP
3C00000000
7E00000000
FF00000000
FF00000000
FF00000000
FF7FC00078
FFFFF801FC
7FFFFFFFFC
7FFFFFFFFC
7FFFFFFFFC
7FFFFFFFFC
7FFFFFFFFC
7FFFFFFFFC
7FFFFFFFFC
7FFFFFFFFC
7FFFFFFFFC
7FFFFFFFFC
7FFFFFFFFC
7FFFFFFFFC
7FFFFFFFFC
7FFFFFFFFC
7FFFFFFFFC
7FFFFFFFFC
7FFFFFFFFC
7FFFFFFFFC
7FFFFFFFFC
7FFFFFFFFC
7FFFFFFFF8
7FE03FFFF0
7E0007FFC0
7C0000FC00
7C00000000
7C00000000
7C00000000
7C00000000
7C00000000
7C00000000
7C00000000
3C00000000
ENDCHAR
STARTCHAR F025
ENCODING 61477
SWIDTH 1002 0
DWIDTH 39 0
BBX 39 34 0 -2
BITMAP
00007C0000
0007FFC000
001FFFF000
007FFFFC00
00FFFFFE00
03FF83FF80
07FC007FC0
0FF0001FC0
0FC0000FE0
1F800003F0
3F000001F8
3E000001F8
7E000000F8
7C0000007C
7C0000007C
F80000007C
F80000003E
F83800383E
F9FC00FF3E
FFFE00FFBE
FFFE00FFFE
FFFE00FFFE
FFFE00FFFE
FFFE00FFFE
FFFE00FFFE
7FFE00FFFC
3FFE00FFF0
1FFE00FFF0
1FFE00FFF0
1FFE00FFF0
0FFE00FFE0
0FFE00FFC0
03FE00FF80
01FC00FF00
ENDCHAR
STARTCHAR F026
ENCODING 61478
SWIDTH 488 0
DWIDTH 19 0
BBX 19 29 0 0
BITMAP
0000E0
0001E0
0003E0
0007E0
000FE0
001FE0
003FE0
7FFFE0
FFFFE0
FFFFE0
FFFFE0
FFFFE0
FFFFE0
FFFFE0
FFFFE0
FFFFE0
FFFFE0
FFFFE0
FFFFE0
FFFFE0
FFFFE0
7FFFE0
003FE0
001FE0
000FE0
0007E0
0003E0
0001E0
0000E0
ENDCHAR
STARTCHAR F027
ENCODING 61479
SWIDTH 745 0
DWIDTH 29 0
BBX 29 29 0 0
BITMAP
0000E000
0001E000
0003E000
0007E000
000FE000
001FE000
003FE000
7FFFE000
FFFFE1C0
FFFFE3E0
FFFFE3F0
FFFFE3F8
FFFFE1F8
FFFFE0F8
FFFFE0F8
FFFFE0F8
FFFFE1F8
FFFFE3F0
FFFFE3F0
FFFFE3E0
FFFFE1C0
7FFFE000
003FE000
001FE000
000FE000
0007E000
0003E000
0001E000
0000E000
ENDCHAR
STARTCHAR F028
ENCODING 61480
SWIDTH 1131 0
DWIDTH 44 0
BBX 44 38 0 -4
BITMAP
000000018000
00000003C000
00000003F000
00000003F800
00000003FC00
0000E000FE00
0001E0007E00
0003E03C3F00
0007E03F1F80
000FE03F8F80
001FE03F8FC0
003FE01FC7C0
7FFFE007E7E0
FFFFE1C3E3E0
FFFFE3E3F3E0
FFFFE3F1F3E0
FFFFE3F9F1F0
FFFFE1F9F1F0
FFFFE0F8F1F0
FFFFE0F8F1F0
FFFFE0F8F1F0
FFFFE1F9F1F0
FFFFE3F1F1E0
FFFFE3F1F3E0
FFFFE3E3F3E0
FFFFE1C7E3E0
7FFFE007E7E0
003FE01FC7C0
001FE01F8FC0
000FE03F0F80
0007E01E1F80
0003E01C3F00
0001E0007E00
0000E001FE00
00000001FC00
00000001F800
00000001F000
00000000C000
ENDCHAR
STARTCHAR F029
ENCODING 61481
SWIDTH 874 0
DWIDTH 34 0
BBX 34 34 0 -2
BITMAP
FFFE1FFFC0
FFFE1FFFC0
FFFE1FFFC0
FFFE1FFFC0
FFFE1FFFC0
F83E1F07C0
F83E1F07C0
F83E1F07C0
F83E1F07C0
F83E1F07C0
FFFE1FFFC0
FFFE1FFFC0
FFFE1FFFC0
FFFE1FFFC0
FFFE1FFFC0
0000000000
0000000000
0000000000
0000000000
0000000000
FFFE1FE0C0
FFFE1FE0C0
FFFE1FFFC0
FFFE1FFFC0
FFFE1FFFC0
F83E1FFFC0
F83E1FFFC0
F83E1F1FC0
F83E1F1FC0
F83E1F1FC0
FFFE1F0000
FFFE1F0000
FFFE1F18C0
FFFE1F18C0
ENDCHAR
STARTCHAR F02A
ENCODING 61482
SWIDTH 1002 0
DWIDTH 39 0
BBX 39 29 0 0
BITMAP
A935936A6A
A935936A6A
A935936A6A
A935936A6A
A935936A6A
A935936A6A
A935936A6A
A935936A6A
A935936A6A
A935936A6A
A935936A6A
A935936A6A
A935936A6A
A935936A6A
A935936A6A
A935936A6A
A935936A6A
A935936A6A
A935936A6A
A935936A6A
A935936A6A
A935936A6A
A935936A6A
A935936A6A
A935936A6A
A935936A6A
A935936A6A
A935936A6A
A935936A6A
ENDCHAR
STARTCHAR F02B
ENCODING 61483
SWIDTH 1002 0
DWIDTH 39 0
BBX 39 39 0 -5
BITMAP
3FFFF80000
7FFFFC0000
FFFFFE0000
FFFFFF0000
FFFFFF8000
FC1FFFC000
F80FFFE000
F80FFFF000
F80FFFF800
F80FFFFC00
F80FFFFE00
FC1FFFFF00
FFFFFFFF80
FFFFFFFFC0
FFFFFFFFE0
FFFFFFFFF0
FFFFFFFFF8
FFFFFFFFFC
FFFFFFFFFE
FFFFFFFFFE
FFFFFFFFFE
7FFFFFFFFC
3FFFFFFFFC
1FFFFFFFF8
0FFFFFFFF0
07FFFFFFE0
03FFFFFFC0
01FFFFFF80
00FFFFFF00
007FFFFE00
003FFFFC00
001FFFF800
000FFFF000
0007FFE000
0003FFC000
0001FF8000
0000FF0000
00007E0000
0000380000
ENDCHAR
STARTCHAR F02C
ENCODING 61484
SWIDTH 1260 0
DWIDTH 49 0
BBX 49 39 0 -5
BITMAP
3FFFF83E000000
7FFFFC1F000000
FFFFFE0F800000
FFFFFF07C00000
FFFFFF83E00000
FC1FFFC1F00000
F80FFFE0F80000
F80FFFF07C0000
F80FFFF83E0000
F80FFFFC1F0000
F80FFFFE0F8000
FC1FFFFF07C000
FFFFFFFF83E000
FFFFFFFFC1F000
FFFFFFFFE0F800
FFFFFFFFF07C00
FFFFFFFFF87E00
FFFFFFFFFC3F00
FFFFFFFFFE3F00
FFFFFFFFFE3F80
FFFFFFFFFE3F80
7FFFFFFFFC3F00
3FFFFFFFFC7E00
1FFFFFFFF87C00
0FFFFFFFF0F800
07FFFFFFE1F000
03FFFFFFC3E000
01FFFFFF87C000
00FFFFFF0F8000
007FFFFE1F0000
003FFFFC3E0000
001FFFF87C0000
000FFFF0F80000
0007FFE1F00000
0003FFC3E00000
0001FF87C00000
0000FF0F800000
00007E1F000000
0000380E000000
ENDCHAR
STARTCHAR F02D
ENCODING 61485
SWIDTH 874 0
DWIDTH 34 0
BBX 34 39 0 -5
BITMAP
0FFFFFFF80
1FFFFFFFC0
3FFFFFFFC0
7FFFFFFFC0
FFFFFFFFC0
FFFFFFFFC0
FFFFFFFFC0
FFFFFFFFC0
FFFFFFFFC0
FFFFFFFFC0
FFC0001FC0
FFC0001FC0
FFFFFFFFC0
FFFFFFFFC0
FFFFFFFFC0
FFC0001FC0
FFC0001FC0
FFFFFFFFC0
FFFFFFFFC0
FFFFFFFFC0
FFFFFFFFC0
FFFFFFFFC0
FFFFFFFFC0
FFFFFFFFC0
FFFFFFFFC0
FFFFFFFFC0
FFFFFFFFC0
FFFFFFFFC0
FFFFFFFFC0
FC00000780
F800000780
F800000780
F800000780
FC00000780
7FFFFFFF80
7FFFFFFFC0
3FFFFFFFC0
1FFFFFFFC0
07FFFFFF80
ENDCHAR
STARTCHAR F02E
ENCODING 61486
SWIDTH 745 0
DWIDTH 29 0
BBX 29 39 0 -5
BITMAP
3FFFFFE0
7FFFFFF8
FFFFFFF8
FFFFFFF8
FFFFFFF8
FFFFFFF8
FFFFFFF8
FFFFFFF8
FFFFFFF8
FFFFFFF8
FFFFFFF8
FFFFFFF8
FFFFFFF8
FFFFFFF8
FFFFFFF8
FFFFFFF8
FFFFFFF8
FFFFFFF8
FFFFFFF8
FFFFFFF8
FFFFFFF8
FFFFFFF8
FFFFFFF8
FFFFFFF8
FFFFFFF8
FFFFFFF8
FFFFFFF8
FFFFFFF8
FFFFFFF8
FFFFFFF8
FFFDFFF8
FFF87FF8
FFE03FF8
FF800FF8
FF0003F8
FC0001F8
F0000078
C0000018
80000008
ENDCHAR
STARTCHAR F02F
ENCODING 61487
SWIDTH 1002 0
DWIDTH 39 0
BBX 39 39 0 -5
BITMAP
07FFFFF800
07FFFFFC00
07FFFFFE00
07FFFFFF00
07FFFFFF80
07C000FFC0
07C000FFC0
07C000FFC0
07C000FFC0
07C0007FC0
07C00007C0
07C00007C0
07C00007C0
07C00007C0
07C00007C0
7FC00007FC
FFC00007FC
FFFFFFFFFE
FFFFFFFFFE
FFFFFFFE3E
FFFFFFFE1E
FFFFFFFE3E
FFFFFFFFFE
FFFFFFFFFE
FFFFFFFFFE
FFFFFFFFFE
FFFFFFFFFE
FFC00007FE
FFC00007FE
07C00007C0
07C00007C0
07C00007C0
07C00007C0
07C00007C0
07FFFFFFC0
07FFFFFFC0
07FFFFFFC0
07FFFFFFC0
03FFFFFF80
ENDCHAR
STARTCHAR F030
ENCODING 61488
SWIDTH 1002 0
DWIDTH 39 0
BBX 39 34 0 -2
BITMAP
0003FF8000
000FFFE000
001FFFE000
001FFFF000
001FFFF000
3FFFFFFFF0
7FFFFFFFFC
FFFFFFFFFE
FFFFFFFFFE
FFFFFFFFFE
FFFFFFFFFE
FFFF01FFFE
FFFC007FFE
FFF87C3FFE
FFF1FE1FFE
FFE3FF1FFE
FFE3FF8FFE
FFE7FFCFFE
FFC7FFCFFE
FFC7FFC7FE
FFC7FFCFFE
FFC7FFCFFE
FFE7FFCFFE
FFE3FF8FFE
FFF1FF1FFE
FFF0FE1FFE
FFF8303FFE
FFFC00FFFE
FFFF03FFFE
FFFFFFFFFE
FFFFFFFFFE
FFFFFFFFFE
FFFFFFFFFC
7FFFFFFFFC
ENDCHAR
STARTCHAR F031
ENCODING 61489
SWIDTH 874 0
DWIDTH 34 0
BBX 34 34 0 -2
BITMAP
0003F00000
0007F80000
0007F80000
000FFC0000
000FFC0000
000FFC0000
001FFE0000
001FFE0000
001FFE0000
003F3F0000
003F3F0000
003F3F0000
007E1F8000
007E1F8000
007E1F8000
00FC0FC000
00FC0FC000
01FC0FE000
01FFFFE000
01FFFFE000
03FFFFF000
03FFFFF000
03FFFFF000
07F003F800
07E001F800
07E001F800
0FE001FC00
0FC000FC00
0FC000FC00
1FC000FE00
FFF807FFC0
FFF807FFC0
FFF807FFC0
FFF807FFC0
ENDCHAR
STARTCHAR F032
ENCODING 61490
SWIDTH 745 0
DWIDTH 29 0
BBX 28 34 1 -2
BITMAP
FFFFC000
FFFFF800
FFFFFE00
FFFFFF00
FFFFFF80
1FFFFF80
1FC03FC0
1FC01FC0
1FC01FC0
1FC00FC0
1FC00FC0
1FC01FC0
1FC01FC0
1FC03F80
1FFFFF80
1FFFFF00
1FFFFC00
1FFFFF00
1FFFFF80
1FC07FC0
1FC01FE0
1FC00FE0
1FC007E0
1FC007F0
1FC007F0
1FC007E0
1FC007E0
1FC00FE0
1FC01FE0
1FFFFFC0
FFFFFFC0
FFFFFF80
FFFFFF00
FFFFFC00
ENDCHAR
STARTCHAR F033
ENCODING 61491
SWIDTH 617 0
DWIDTH 24 0
BBX 20 34 2 -2
BITMAP
01FFF0
03FFF0
03FFF0
07FFF0
03FFF0
007F00
007E00
007E00
007E00
00FE00
00FE00
00FC00
00FC00
00FC00
01FC00
01FC00
01FC00
01F800
01F800
03F800
03F800
03F800
03F000
03F000
07F000
07F000
07F000
07E000
07E000
07E000
FFFE00
FFFE00
FFFC00
FFFC00
ENDCHAR
STARTCHAR F034
ENCODING 61492
SWIDTH 1131 0
DWIDTH 44 0
BBX 44 34 0 -2
BITMAP
7FFFFF000800
FFFFFF001C00
FFFFFF003E00
FFFFFF007F00
FFFFFF00FF80
F87E1F01FFC0
F87E1F03FFE0
F87E1F07FFF0
F87E1F07FFE0
F87E1F003E00
007E00003E00
007E00003E00
007E00003E00
007E00003E00
007E00003E00
007E00003E00
007E00003E00
007E00003E00
007E00003E00
007E00003E00
007E00003E00
007E00003E00
007E00003E00
007E00003E00
007E00003E00
007E00003E00
007E0007FFF0
007E0007FFF0
007E0003FFE0
007E0001FFC0
07FFE000FF80
07FFE0007F00
07FFE0003E00
03FFE0001C00
ENDCHAR
STARTCHAR F035
ENCODING 61493
SWIDTH 874 0
DWIDTH 34 0
BBX 34 34 0 -3
BITMAP
7FFFFFFF80
FFFFFFFFC0
FFFFFFFFC0
FFFFFFFFC0
FFFFFFFFC0
F803F007C0
F803F007C0
F803F007C0
F803F007C0
F803F007C0
0003F00000
0003F00000
0003F00000
0003F00000
0003F00000
001FFE0000
003FFF0000
003FFF0000
003FFF0000
001FFE0000
0300003000
0780003800
0F80003C00
1F80003E00
3F80003F00
7FFFFFFF80
FFFFFFFFC0
FFFFFFFFC0
7FFFFFFF80
3FFFFFFF00
1F80003E00
0F80003C00
0780003800
0300003000
ENDCHAR
STARTCHAR F036
ENCODING 61494
SWIDTH 874 0
DWIDTH 34 0
BBX 34 35 0 -3
BITMAP
FFFFFC0000
FFFFFC0000
FFFFFC0000
FFFFFC0000
FFFFFC0000
7FFFF80000
0000000000
0000000000
0000000000
0000000000
FFFFFFFFC0
FFFFFFFFC0
FFFFFFFFC0
FFFFFFFFC0
FFFFFFFFC0
0000000000
0000000000
0000000000
0000000000
0000000000
FFFFFC0000
FFFFFC0000
FFFFFC0000
FFFFFC0000
FFFFFC0000
0000000000
0000000000
0000000000
0000000000
FFFFFFFFC0
FFFFFFFFC0
FFFFFFFFC0
FFFFFFFFC0
FFFFFFFFC0
FFFFFFFFC0
ENDCHAR
STARTCHAR F037
ENCODING 61495
SWIDTH 874 0
DWIDTH 34 0
BBX 34 35 0 -3
BITMAP
00FFFFC000
01FFFFE000
01FFFFE000
01FFFFE000
01FFFFE000
00FFFFC000
0000000000
0000000000
0000000000
0000000000
FFFFFFFFC0
FFFFFFFFC0
FFFFFFFFC0
FFFFFFFFC0
FFFFFFFFC0
0000000000
0000000000
0000000000
0000000000
0000000000
01FFFFE000
01FFFFE000
01FFFFE000
01FFFFE000
01FFFFE000
0000000000
0000000000
0000000000
0000000000
FFFFFFFFC0
FFFFFFFFC0
FFFFFFFFC0
FFFFFFFFC0
FFFFFFFFC0
FFFFFFFFC0
ENDCHAR
STARTCHAR F038
ENCODING 61496
SWIDTH 874 0
DWIDTH 34 0
BBX 34 35 0 -3
BITMAP
000FFFFFC0
000FFFFFC0
000FFFFFC0
000FFFFFC0
000FFFFFC0
0007FFFF80
0000000000
0000000000
0000000000
0000000000
FFFFFFFFC0
FFFFFFFFC0
FFFFFFFFC0
FFFFFFFFC0
FFFFFFFFC0
0000000000
0000000000
0000000000
0000000000
0000000000
000FFFFFC0
000FFFFFC0
000FFFFFC0
000FFFFFC0
000FFFFFC0
0000000000
0000000000
0000000000
0000000000
FFFFFFFFC0
FFFFFFFFC0
FFFFFFFFC0
FFFFFFFFC0
FFFFFFFFC0
FFFFFFFFC0
ENDCHAR
STARTCHAR F039
ENCODING 61497
SWIDTH 874 0
DWIDTH 34 0
BBX 34 35 0 -3
BITMAP
FFFFFFFFC0
FFFFFFFFC0
FFFFFFFFC0
FFFFFFFFC0
FFFFFFFFC0
7FFFFFFF80
0000000000
0000000000
0000000000
0000000000
FFFFFFFFC0
FFFFFFFFC0
FFFFFFFFC0
FFFFFFFFC0
FFFFFFFFC0
0000000000
0000000000
0000000000
0000000000
0000000000
FFFFFFFFC0
FFFFFFFFC0
FFFFFFFFC0
FFFFFFFFC0
FFFFFFFFC0
0000000000
0000000000
0000000000
0000000000
FFFFFFFFC0
FFFFFFFFC0
FFFFFFFFC0
FFFFFFFFC0
FFFFFFFFC0
FFFFFFFFC0
ENDCHAR
STARTCHAR F03A
ENCODING 61498
SWIDTH 1002 0
DWIDTH 39 0
BBX 39 31 0 -1
BITMAP
FE00000000
FE3FFFFFFE
FE3FFFFFFE
FE3FFFFFFE
FE3FFFFFFE
FE3FFFFFFE
FE00000000
0000000000
0000000000
0000000000
0000000000
0000000000
FE00000000
FE3FFFFFFE
FE3FFFFFFE
FE3FFFFFFE
FE3FFFFFFE
FE3FFFFFFE
FE00000000
0000000000
0000000000
0000000000
0000000000
0000000000
FE00000000
FE3FFFFFFE
FE3FFFFFFE
FE3FFFFFFE
FE3FFFFFFE
FE3FFFFFFE
FE00000000
ENDCHAR
STARTCHAR F03B
ENCODING 61499
SWIDTH 874 0
DWIDTH 34 0
BBX 34 35 0 -3
BITMAP
FFFFFFFFC0
FFFFFFFFC0
FFFFFFFFC0
FFFFFFFFC0
FFFFFFFFC0
7FFFFFFF80
0000000000
0000000000
0000000000
01C0000000
03C1FFFFC0
07C1FFFFC0
0FC1FFFFC0
1FC1FFFFC0
3FC1FFFFC0
7FC0000000
FFC0000000
FFC0000000
7FC0000000
3FC0000000
1FC1FFFFC0
0FC1FFFFC0
07C1FFFFC0
03C1FFFFC0
01C1FFFFC0
0080000000
0000000000
0000000000
0000000000
FFFFFFFFC0
FFFFFFFFC0
FFFFFFFFC0
FFFFFFFFC0
FFFFFFFFC0
FFFFFFFFC0
ENDCHAR
STARTCHAR F03C
ENCODING 61500
SWIDTH 874 0
DWIDTH 34 0
BBX 34 35 0 -3
BITMAP
FFFFFFFFC0
FFFFFFFFC0
FFFFFFFFC0
FFFFFFFFC0
FFFFFFFFC0
7FFFFFFF80
0000000000
0000000000
0000000000
C000000000
E00FFFFFC0
F00FFFFFC0
F80FFFFFC0
FC0FFFFFC0
FE0FFFFFC0
FF00000000
FF80000000
FFC0000000
FF80000000
FF00000000
FE0FFFFFC0
FC0FFFFFC0
F80FFFFFC0
F00FFFFFC0
E00FFFFFC0
C000000000
0000000000
0000000000
0000000000
FFFFFFFFC0
FFFFFFFFC0
FFFFFFFFC0
FFFFFFFFC0
FFFFFFFFC0
FFFFFFFFC0
ENDCHAR
STARTCHAR F03D
ENCODING 61501
SWIDTH 1131 0
DWIDTH 44 0
BBX 44 29 0 0
BITMAP
3FFFFFF007C0
7FFFFFF80FE0
FFFFFFF81FF0
FFFFFFF83FF0
FFFFFFF87FF0
FFFFFFF8FFF0
FFFFFFF9FFF0
FFFFFFFBFFF0
FFFFFFFFFFF0
FFFFFFFFFFF0
FFFFFFFFFFF0
FFFFFFFFFFF0
FFFFFFFFFFF0
FFFFFFFFFFF0
FFFFFFFFFFF0
FFFFFFFFFFF0
FFFFFFFFFFF0
FFFFFFFFFFF0
FFFFFFFFFFF0
FFFFFFFFFFF0
FFFFFFFFFFF0
FFFFFFFBFFF0
FFFFFFF9FFF0
FFFFFFF8FFF0
FFFFFFF87FF0
FFFFFFF83FF0
FFFFFFF81FF0
7FFFFFF80FE0
3FFFFFE007C0
ENDCHAR
STARTCHAR F03E
ENCODING 61502
SWIDTH 1002 0
DWIDTH 39 0
BBX 39 29 0 0
BITMAP
7FFFFFFFF8
7FFFFFFFFC
FFFFFFFFFE
FFFFFFFFFE
FE3FFFFFFE
F80FFFFFFE
F80FFFFFFE
F007FFFFFE
F007FFFFFE
F007FFCFFE
F80FFF87FE
FC1FFF03FE
FF7FFE01FE
FFFFFC00FE
FFFFF8007E
FFCFF0003E
FF87E0003E
FF03C0003E
FE0180003E
FC0000003E
F80000003E
F80000003E
F80000003E
F80000003E
FFFFFFFFFE
FFFFFFFFFE
FFFFFFFFFE
7FFFFFFFFC
3FFFFFFFF8
ENDCHAR
STARTCHAR F041
ENCODING 61505
SWIDTH 745 0
DWIDTH 29 0
BBX 29 39 0 -5
BITMAP
001FC000
00FFF800
03FFFE00
07FFFF00
0FFFFF80
1FFFFFC0
3FFFFFE0
3FFFFFE0
7FFFFFF0
7FFFFFF0
7FFFFFF8
FFFFFFF8
FFFFFFF8
FFFFFFF8
FFFFFFF8
FFFFFFF8
FFFFFFF8
FFFFFFF8
FFFFFFF8
7FFFFFF0
7FFFFFF0
3FFFFFE0
3FFFFFE0
1FFFFFC0
0FFFFFC0
0FFFFF80
07FFFF00
03FFFE00
03FFFE00
01FFFC00
00FFF800
00FFF800
007FF000
003FE000
001FE000
001FC000
000F8000
00078000
00070000
ENDCHAR
STARTCHAR F042
ENCODING 61506
SWIDTH 1002 0
DWIDTH 39 0
BBX 37 37 1 -4
BITMAP
0007FF0000
003FFFE000
00FFFFF000
01FFFFFC00
03FFDFFE00
07FFC0FF00
0FFFC03F80
1FFFC01FC0
3FFFC00FC0
3FFFC007E0
7FFFC003F0
7FFFC001F0
7FFFC001F0
FFFFC000F8
FFFFC000F8
FFFFC000F8
FFFFC000F8
FFFFC000F8
FFFFC000F8
FFFFC000F8
FFFFC000F8
FFFFC000F8
FFFFC000F8
FFFFC001F8
7FFFC001F0
7FFFC001F0
7FFFC003E0
3FFFC007E0
3FFFC00FC0
1FFFC01FC0
0FFFC03F80
07FFC1FF00
03FFFFFE00
01FFFFFC00
007FFFF000
003FFFC000
0007FF0000
ENDCHAR
STARTCHAR F043
ENCODING 61507
SWIDTH 745 0
DWIDTH 29 0
BBX 27 39 1 -5
BITMAP
000E0000
001F0000
001F0000
001F0000
003F8000
003F8000
007FC000
007FC000
00FFE000
00FFE000
01FFF000
01FFF000
03FFF800
07FFFC00
07FFFE00
0FFFFE00
1FFFFF00
1FFFFF80
3FFFFF80
7FFFFFC0
7FFFFFC0
7FFFFFC0
FFFFFFE0
FFFFFFE0
FFFFFFE0
FFFFFFE0
FF9FFFE0
FF9FFFE0
FF0FFFE0
7F0FFFC0
7E0FFFC0
3F0FFFC0
3F9FFF80
1FFFFF00
0FFFFF00
07FFFE00
03FFF800
00FFF000
003F8000
ENDCHAR
STARTCHAR F044
ENCODING 61508
SWIDTH 1131 0
DWIDTH 44 0
BBX 44 39 0 -5
BITMAP
000000001E00
000000003F00
000000007F80
00000000FFC0
00000000FFE0
3FFFFFC07FF0
7FFFFFC63FF0
FFFFFF8F1FF0
FFFFFF1F8FE0
FFFFFE3FC7C0
F800007FE380
F80000FFF100
F80001FFF800
F80003FFFC00
F80007FFF800
F8000FFFF000
F8001FFFE000
F8003FFFC000
F8007FFF8000
F800FFFF0000
F801FFFE0000
F803FFFC0000
F807FFF84000
F807FFF0C000
F807FFE1C000
F807FFC3C000
F807FF87C000
F80FFF07C000
F80FFE07C000
F80FFC07C000
F80FF807C000
F8060007C000
F8000007C000
F8000007C000
FFFFFFFFC000
FFFFFFFFC000
FFFFFFFFC000
7FFFFFFF8000
3FFFFFFF0000
ENDCHAR
STARTCHAR F048
ENCODING 61512
SWIDTH 874 0
DWIDTH 34 0
BBX 24 34 5 -2
BITMAP
F80004
F8000F
F8003F
F8007F
F800FF
F801FF
F803FF
F807FF
F80FFF
F81FFF
F83FFF
F87FFF
F8FFFF
F9FFFF
FBFFFF
FFFFFF
FFFFFF
FFFFFF
FFFFFF
FFFFFF
FBFFFF
F9FFFF
F8FFFF
F87FFF
F83FFF
F81FFF
F80FFF
F807FF
F803FF
F801FF
F800FF
F8003F
F8001F
F8000F
ENDCHAR
STARTCHAR F049
ENCODING 61513
SWIDTH 1002 0
DWIDTH 39 0
BBX 39 29 0 0
BITMAP
F80038001C
F8007C003E
F800FC007E
F803FC01FE
F807FC03FE
F80FFC07FE
F81FFC0FFE
F83FFC1FFE
F87FFC3FFE
F8FFFC7FFE
F9FFFCFFFE
FBFFFDFFFE
FFFFFFFFFE
FFFFFFFFFE
FFFFFFFFFE
FFFFFFFFFE
FFFFFFFFFE
FBFFFDFFFE
F9FFFCFFFE
F8FFFC7FFE
F87FFC3FFE
F83FFC1FFE
F81FFC0FFE
F80FFC07FE
F803FC01FE
F801FC00FE
F800FC007E
F8007C003E
F80038001C
ENDCHAR
STARTCHAR F04A
ENCODING 61514
SWIDTH 1002 0
DWIDTH 39 0
BBX 39 29 0 0
BITMAP
0001E0001C
0003E0003E
0007E000FE
000FE001FE
001FE003FE
007FE007FE
00FFE00FFE
01FFE03FFE
03FFE07FFE
07FFE0FFFE
1FFFE1FFFE
3FFFE3FFFE
7FFFEFFFFE
FFFFEFFFFE
FFFFFFFFFE
FFFFEFFFFE
7FFFE7FFFE
3FFFE3FFFE
1FFFE1FFFE
07FFE0FFFE
03FFE07FFE
01FFE01FFE
00FFE00FFE
007FE007FE
001FE003FE
000FE001FE
0007E0007E
0003E0003E
0000C0001C
ENDCHAR
STARTCHAR F04B
ENCODING 61515
SWIDTH 874 0
DWIDTH 34 0
BBX 34 39 0 -5
BITMAP
3800000000
7E00000000
FF80000000
FFE0000000
FFF0000000
FFFC000000
FFFF000000
FFFF800000
FFFFE00000
FFFFF80000
FFFFFC0000
FFFFFF0000
FFFFFFC000
FFFFFFE000
FFFFFFF800
FFFFFFFE00
FFFFFFFF80
FFFFFFFFC0
FFFFFFFFC0
FFFFFFFFC0
FFFFFFFFC0
FFFFFFFF80
FFFFFFFF00
FFFFFFFE00
FFFFFFF800
FFFFFFE000
FFFFFFC000
FFFFFF0000
FFFFFC0000
FFFFF00000
FFFFE00000
FFFF800000
FFFE000000
FFFC000000
FFF0000000
FFC0000000
FF80000000
7E00000000
3800000000
ENDCHAR
STARTCHAR F04C
ENCODING 61516
SWIDTH 874 0
DWIDTH 34 0
BBX 34 34 0 -2
BITMAP
3FF003FF00
7FFC0FFF80
FFFC0FFFC0
FFFE1FFFC0
FFFE1FFFC0
FFFE1FFFC0
FFFE1FFFC0
FFFE1FFFC0
FFFE1FFFC0
FFFE1FFFC0
FFFE1FFFC0
FFFE1FFFC0
FFFE1FFFC0
FFFE1FFFC0
FFFE1FFFC0
FFFE1FFFC0
FFFE1FFFC0
FFFE1FFFC0
FFFE1FFFC0
FFFE1FFFC0
FFFE1FFFC0
FFFE1FFFC0
FFFE1FFFC0
FFFE1FFFC0
FFFE1FFFC0
FFFE1FFFC0
FFFE1FFFC0
FFFE1FFFC0
FFFE1FFFC0
FFFE1FFFC0
FFFE1FFFC0
FFFE1FFFC0
FFFC0FFFC0
7FF807FF80
ENDCHAR
STARTCHAR F04D
ENCODING 61517
SWIDTH 874 0
DWIDTH 34 0
BBX 34 34 0 -2
BITMAP
1FFFFFFE00
7FFFFFFF80
FFFFFFFFC0
FFFFFFFFC0
FFFFFFFFC0
FFFFFFFFC0
FFFFFFFFC0
FFFFFFFFC0
FFFFFFFFC0
FFFFFFFFC0
FFFFFFFFC0
FFFFFFFFC0
FFFFFFFFC0
FFFFFFFFC0
FFFFFFFFC0
FFFFFFFFC0
FFFFFFFFC0
FFFFFFFFC0
FFFFFFFFC0
FFFFFFFFC0
FFFFFFFFC0
FFFFFFFFC0
FFFFFFFFC0
FFFFFFFFC0
FFFFFFFFC0
FFFFFFFFC0
FFFFFFFFC0
FFFFFFFFC0
FFFFFFFFC0
FFFFFFFFC0
FFFFFFFFC0
FFFFFFFFC0
FFFFFFFFC0
7FFFFFFF80
ENDCHAR
STARTCHAR F04E
ENCODING 61518
SWIDTH 1002 0
DWIDTH 39 0
BBX 39 29 0 0
BITMAP
70000F0000
F8000F8000
FE001FC000
FF001FE000
FF801FF000
FFC01FFC00
FFE01FFE00
FFF81FFF00
FFFC1FFF80
FFFE1FFFC0
FFFF1FFFF0
FFFF9FFFF8
FFFFFFFFFC
FFFFFFFFFE
FFFFFFFFFE
FFFFFFFFFE
FFFFDFFFFC
FFFF9FFFF8
FFFF1FFFE0
FFFE1FFFC0
FFFC1FFF80
FFF01FFF00
FFE01FFE00
FFC01FF800
FF801FF000
FF001FE000
FC001FC000
F8000F8000
70000E0000
ENDCHAR
STARTCHAR F050
ENCODING 61520
SWIDTH 1002 0
DWIDTH 39 0
BBX 39 29 0 0
BITMAP
700038003E
F8007C003E
FC007E003E
FE007F003E
FF807FC03E
FFC07FE03E
FFE07FF03E
FFF07FF83E
FFF87FFC3E
FFFC7FFE3E
FFFE7FFF3E
FFFF7FFFBE
FFFFFFFFFE
FFFFFFFFFE
FFFFFFFFFE
FFFFFFFFFE
FFFFFFFFFE
FFFF7FFFBE
FFFE7FFF3E
FFFC7FFE3E
FFF87FFC3E
FFF07FF83E
FFE07FF03E
FF807FC03E
FF007F803E
FE007F003E
FC007E003E
F8007C003E
700038003E
ENDCHAR
STARTCHAR F051
ENCODING 61521
SWIDTH 874 0
DWIDTH 34 0
BBX 24 34 5 -2
BITMAP
20001F
F8001F
FC001F
FE001F
FF001F
FF801F
FFC01F
FFE01F
FFF01F
FFF81F
FFFC1F
FFFE1F
FFFF1F
FFFFDF
FFFFFF
FFFFFF
FFFFFF
FFFFFF
FFFFFF
FFFFFF
FFFFDF
FFFF9F
FFFF1F
FFFE1F
FFFC1F
FFF81F
FFF01F
FFE01F
FFC01F
FF801F
FF001F
FC001F
F8001F
F0001F
ENDCHAR
STARTCHAR F052
ENCODING 61522
SWIDTH 874 0
DWIDTH 34 0
BBX 34 34 0 -2
BITMAP
0000C00000
0003F00000
0003F00000
0007F80000
000FFC0000
001FFE0000
003FFF0000
007FFF8000
00FFFFC000
01FFFFE000
03FFFFF000
07FFFFF800
0FFFFFFC00
1FFFFFFE00
1FFFFFFE00
3FFFFFFF00
7FFFFFFF80
FFFFFFFFC0
FFFFFFFFC0
FFFFFFFFC0
FFFFFFFF80
7FFFFFFF80
0000000000
0000000000
0000000000
7FFFFFFF80
FFFFFFFFC0
FFFFFFFFC0
FFFFFFFFC0
FFFFFFFFC0
FFFFFFFFC0
FFFFFFFFC0
FFFFFFFFC0
7FFFFFFFC0
ENDCHAR
STARTCHAR F053
ENCODING 61523
SWIDTH 617 0
DWIDTH 24 0
BBX 20 33 2 -2
BITMAP
0001C0
0003E0
0007F0
000FF0
001FF0
003FE0
007FC0
00FF80
01FF00
03FE00
07FC00
0FF800
1FF000
3FE000
7FC000
FF8000
FF0000
FF8000
7FC000
3FE000
1FF000
0FF800
07FC00
03FE00
01FF00
00FF80
007FC0
003FE0
001FF0
000FF0
0007F0
0003E0
0001C0
ENDCHAR
STARTCHAR F054
ENCODING 61524
SWIDTH 617 0
DWIDTH 24 0
BBX 20 33 2 -2
BITMAP
380000
7C0000
FE0000
FF0000
FF8000
7FC000
3FE000
1FF000
0FF800
07FC00
03FE00
01FF00
00FF80
007FC0
003FE0
001FF0
000FF0
001FF0
003FE0
007FC0
00FF80
01FF00
03FE00
07FC00
0FF800
1FF000
3FE000
7FC000
FF8000
FF0000
FE0000
7C0000
380000
ENDCHAR
STARTCHAR F055
ENCODING 61525
SWIDTH 1002 0
DWIDTH 39 0
BBX 37 37 1 -4
BITMAP
0007FF0000
003FFFE000
00FFFFF000
01FFFFFC00
03FFFFFE00
07FFFFFF00
0FFFFFFF80
1FFF07FFC0
3FFE07FFC0
3FFE07FFE0
7FFE07FFF0
7FFE07FFF0
7FFE07FFF0
FFFE07FFF8
FFFE07FFF8
FF000007F8
FF000007F8
FF000007F8
FF000007F8
FF000007F8
FF000007F8
FFFE07FFF8
FFFE07FFF8
FFFE07FFF8
7FFE07FFF0
7FFE07FFF0
7FFE07FFE0
3FFE07FFE0
3FFE07FFC0
1FFFFFFFC0
0FFFFFFF80
07FFFFFF00
03FFFFFE00
01FFFFFC00
007FFFF000
003FFFC000
0007FF0000
ENDCHAR
STARTCHAR F056
ENCODING 61526
SWIDTH 1002 0
DWIDTH 39 0
BBX 37 37 1 -4
BITMAP
0007FF0000
003FFFE000
00FFFFF000
01FFFFFC00
03FFFFFE00
07FFFFFF00
0FFFFFFF80
1FFFFFFFC0
3FFFFFFFC0
3FFFFFFFE0
7FFFFFFFF0
7FFFFFFFF0
7FFFFFFFF0
FFFFFFFFF8
FFFFFFFFF8
FF000007F8
FF000007F8
FF000007F8
FF000007F8
FF000007F8
FF000007F8
FFFFFFFFF8
FFFFFFFFF8
FFFFFFFFF8
7FFFFFFFF0
7FFFFFFFF0
7FFFFFFFE0
3FFFFFFFE0
3FFFFFFFC0
1FFFFFFFC0
0FFFFFFF80
07FFFFFF00
03FFFFFE00
01FFFFFC00
007FFFF000
003FFFC000
0007FF0000
ENDCHAR
STARTCHAR F057
ENCODING 61527
SWIDTH 1002 0
DWIDTH 39 0
BBX 37 37 1 -4
BITMAP
0007FF0000
003FFFE000
00FFFFF000
01FFFFFC00
03FFFFFE00
07FFFFFF00
0FFFFFFF80
1FFFFFFFC0
3FFFFFFFC0
3FF3FE7FE0
7FE1FC3FF0
7FC0F81FF0
7F80700FF0
FF80200FF8
FFC0001FF8
FFE0003FF8
FFF0007FF8
FFF800FFF8
FFFC01FFF8
FFF800FFF8
FFF0007FF8
FFE0003FF8
FFC0001FF8
FF80200FF8
7F80700FF0
7FC0F81FF0
7FE1FC3FE0
3FF3FE7FE0
3FFFFFFFC0
1FFFFFFFC0
0FFFFFFF80
07FFFFFF00
03FFFFFE00
01FFFFFC00
007FFFF000
003FFFC000
0007FF0000
ENDCHAR
STARTCHAR F058
ENCODING 61528
SWIDTH 1002 0
DWIDTH 39 0
BBX 37 37 1 -4
BITMAP
0007FF0000
003FFFE000
00FFFFF000
01FFFFFC00
03FFFFFE00
07FFFFFF00
0FFFFFFF80
1FFFFFFFC0
3FFFFFFFC0
3FFFFFFFE0
7FFFFFFFE0
7FFFFFC7F0
7FFFFF83F0
FFFFFF01F8
FFFFFE03F8
FFFFFC07F8
FFFFF80FF8
FF1FF01FF8
FE0FE03FF8
FC07C07FF8
FE0380FFF8
FF0101FFF8
FF8003FFF8
FFC007FFF8
7FE00FFFF0
7FF01FFFF0
7FF83FFFE0
3FFC7FFFE0
3FFEFFFFC0
1FFFFFFFC0
0FFFFFFF80
07FFFFFF00
03FFFFFE00
01FFFFFC00
007FFFF000
001FFFC000
0007FF0000
ENDCHAR
STARTCHAR F059
ENCODING 61529
SWIDTH 1002 0
DWIDTH 39 0
BBX 37 37 1 -4
BITMAP
0007FF0000
003FFFE000
00FFFFF000
01FFFFFC00
03FFFFFE00
07FFFFFF00
0FFE03FF80
1FF800FFC0
3FF0007FC0
3FE0003FE0
7FC0001FE0
7FC0F81FF0
7FE1FC0FF0
FFF3FC0FF8
FFFFFC0FF8
FFFFF81FF8
FFFFE01FF8
FFFF803FF8
FFFF007FF8
FFFF00FFF8
FFFF03FFF8
FFFE07FFF8
FFFF07FFF8
FFFFFFFFF8
7FFFFFFFF0
7FFF07FFF0
7FFE07FFE0
3FFE03FFE0
3FFE03FFC0
1FFE03FFC0
0FFF07FF80
07FF9FFF00
03FFFFFE00
01FFFFFC00
007FFFF000
001FFFC000
0007FF0000
ENDCHAR
STARTCHAR F05A
ENCODING 61530
SWIDTH 1002 0
DWIDTH 39 0
BBX 37 37 1 -4
BITMAP
0007FF0000
003FFFE000
00FFFFF000
01FFFFFC00
03FFFFFE00
07FFFFFF00
0FFFFFFF80
1FFFFFFFC0
3FFF8FFFC0
3FFF07FFE0
7FFE03FFF0
7FFE03FFF0
7FFF07FFF0
FFFF07FFF8
FFFFFFFFF8
FFFFFFFFF8
FFFC07FFF8
FFFC07FFF8
FFFC07FFF8
FFFE07FFF8
FFFF07FFF8
FFFF07FFF8
FFFF07FFF8
FFFF07FFF8
7FFF07FFF0
7FFC01FFF0
7FFC01FFE0
3FFC01FFE0
3FFFFFFFC0
1FFFFFFFC0
0FFFFFFF80
07FFFFFF00
03FFFFFE00
01FFFFFC00
007FFFF000
003FFFC000
0007FF0000
ENDCHAR
STARTCHAR F05B
ENCODING 61531
SWIDTH 1002 0
DWIDTH 39 0
BBX 39 39 0 -5
BITMAP
00007C0000
00007C0000
00007C0000
0001FF0000
0007FFC000
001FFFF000
007FFFFC00
00FFFFFE00
01FF7DFF00
03F87C7F00
03F07C1F80
07E07C0FC0
07C00007C0
0F800007E0
0F800003E0
1F800003E0
1F000001F0
FFF0381FFE
FFF07C1FFE
FFF07C1FFE
FFF07C1FFE
FFF0381FFE
1F000001F0
1F800003E0
0F800003E0
0FC00007E0
07C00007C0
07E07C0FC0
03F07C1F80
03FC7C7F00
01FF7DFE00
00FFFFFC00
003FFFF800
001FFFF000
0007FFC000
0000FE0000
00007C0000
00007C0000
00007C0000
ENDCHAR
STARTCHAR F05E
ENCODING 61534
SWIDTH 1002 0
DWIDTH 39 0
BBX 37 37 1 -4
BITMAP
0007FF0000
003FFFE000
00FFFFF000
01FFFFFC00
03FFFFFE00
07F800FF00
0FE0003F80
1FE0001FC0
3FF0000FC0
3FF80007E0
7FFC0003F0
7CFE0001F0
7C7F0001F0
F83F8001F8
F81FC000F8
F80FE000F8
F807F000F8
F803F800F8
F001FC00F8
F800FE00F8
F8007F00F8
F8003F80F8
F8001FC0F8
F8000FE1F8
7C0007F1F0
7C0003FBF0
7E0001FFE0
3F0000FFE0
3F80007FC0
1FC0003FC0
0FE0003F80
07FC01FF00
03FFFFFE00
01FFFFFC00
007FFFF000
003FFFC000
0007FF0000
ENDCHAR
STARTCHAR F060
ENCODING 61536
SWIDTH 874 0
DWIDTH 34 0
BBX 34 33 0 -2
BITMAP
0001C00000
0003E00000
0007F00000
000FF00000
001FF00000
003FE00000
007FC00000
00FF800000
01FF000000
03FC000000
07F8000000
0FF0000000
1FE0000000
3FFFFFFF80
7FFFFFFFC0
FFFFFFFFC0
FFFFFFFFC0
FFFFFFFFC0
7FFFFFFFC0
3FC0000000
1FE0000000
0FF8000000
07FC000000
03FE000000
01FF000000
00FF800000
007FC00000
003FE00000
001FF00000
000FF00000
0007F00000
0003E00000
0001C00000
ENDCHAR
STARTCHAR F061
ENCODING 61537
SWIDTH 874 0
DWIDTH 34 0
BBX 34 33 0 -2
BITMAP
0000E00000
0001F00000
0003F80000
0003FC0000
0003FE0000
0001FF0000
0000FF8000
00007FC000
00003FE000
00000FF000
000007F800
000003FC00
000001FE00
7FFFFFFF00
FFFFFFFF80
FFFFFFFFC0
FFFFFFFFC0
FFFFFFFFC0
FFFFFFFF80
000000FF00
000001FE00
000007FC00
00000FF800
00001FF000
00003FE000
00007FC000
0000FF8000
0001FF0000
0003FE0000
0003FC0000
0003F80000
0001F00000
0000E00000
ENDCHAR
STARTCHAR F062
ENCODING 61538
SWIDTH 874 0
DWIDTH 34 0
BBX 33 34 0 -2
BITMAP
0000C00000
0001E00000
0003F00000
0007F80000
000FFC0000
001FFE0000
003FFF0000
007FFF8000
00FFFFC000
01FFFFE000
03FFFFF000
07FBF7F800
0FF3F3FC00
1FE3F1FE00
3FC3F0FF00
7F83F07F80
FF83F07F80
7F03F03F80
7E03F01F80
3C03F00F00
0003F00000
0003F00000
0003F00000
0003F00000
0003F00000
0003F00000
0003F00000
0003F00000
0003F00000
0003F00000
0003F00000
0003F00000
0003F00000
0003F00000
ENDCHAR
STARTCHAR F063
ENCODING 61539
SWIDTH 874 0
DWIDTH 34 0
BBX 34 34 0 -2
BITMAP
0001E00000
0003F00000
0003F00000
0003F00000
0003F00000
0003F00000
0003F00000
0003F00000
0003F00000
0003F00000
0003F00000
0003F00000
0003F00000
0003F00000
1803F00600
3C03F00F00
7E03F01F80
FF03F03FC0
7F83F07F80
7FC3F0FF80
3FE3F1FF00
1FF3F3FE00
0FFBF3FC00
07FBF7F800
03FFFFF000
01FFFFE000
00FFFFC000
007FFF8000
003FFF0000
001FFE0000
000FFC0000
0007F80000
0003F00000
0001E00000
ENDCHAR
STARTCHAR F064
ENCODING 61540
SWIDTH 1002 0
DWIDTH 39 0
BBX 39 34 0 -2
BITMAP
0000010000
000003C000
000003E000
000003F000
000003F800
000003FC00
000003FE00
000003FF80
00003FFFC0
001FFFFFE0
00FFFFFFF0
03FFFFFFF8
0FFFFFFFFC
1FFFFFFFFE
3FFFFFFFFE
3FFFFFFFFC
7FFFFFFFF8
7FFFFFFFF0
FFFFFFFFC0
FFFC03FF80
FFE003FF00
FFC003FE00
FF8003FC00
FF0003F800
FF0003E000
FE0003C000
7E00038000
7E00000000
3E00000000
3F00000000
1F00000000
1F00000000
0F00000000
0700000000
ENDCHAR
STARTCHAR F065
ENCODING 61541
SWIDTH 874 0
DWIDTH 34 0
BBX 34 34 0 -2
BITMAP
7FF003FF80
FFF003FFC0
FFF003FFC0
FFF003FFC0
FFF003FFC0
F8000007C0
F8000007C0
F8000007C0
F8000007C0
F8000007C0
F8000007C0
F8000007C0
7000000380
0000000000
0000000000
0000000000
0000000000
0000000000
0000000000
0000000000
0000000000
0000000000
F8000007C0
F8000007C0
F8000007C0
F8000007C0
F8000007C0
F8000007C0
F8000007C0
F8000007C0
FFF003FFC0
FFF003FFC0
FFF003FFC0
FFF003FFC0
ENDCHAR
STARTCHAR F066
ENCODING 61542
SWIDTH 874 0
DWIDTH 34 0
BBX 34 34 0 -2
BITMAP
00F003C000
01F003E000
01F003E000
01F003E000
01F003E000
01F003E000
01F003E000
01F003E000
FFF003FFC0
FFF003FFC0
FFF003FFC0
FFF003FFC0
7FE001FF80
0000000000
0000000000
0000000000
0000000000
0000000000
0000000000
0000000000
0000000000
0000000000
FFE001FFC0
FFF003FFC0
FFF003FFC0
FFF003FFC0
FFF003FFC0
01F003E000
01F003E000
01F003E000
01F003E000
01F003E000
01F003E000
01F003E000
ENDCHAR
STARTCHAR F067
ENCODING 61543
SWIDTH 874 0
DWIDTH 34 0
BBX 34 34 0 -2
BITMAP
0003F00000
000FFC0000
000FFC0000
000FFC0000
000FFC0000
000FFC0000
000FFC0000
000FFC0000
000FFC0000
000FFC0000
000FFC0000
000FFC0000
000FFC0000
FFFFFFFFC0
FFFFFFFFC0
FFFFFFFFC0
FFFFFFFFC0
FFFFFFFFC0
FFFFFFFFC0
FFFFFFFFC0
FFFFFFFFC0
FFFFFFFFC0
000FFC0000
000FFC0000
000FFC0000
000FFC0000
000FFC0000
000FFC0000
000FFC0000
000FFC0000
000FFC0000
000FFC0000
000FFC0000
000FFC0000
ENDCHAR
STARTCHAR F068
ENCODING 61544
SWIDTH 874 0
DWIDTH 34 0
BBX 34 9 0 10
BITMAP
FFFFFFFFC0
FFFFFFFFC0
FFFFFFFFC0
FFFFFFFFC0
FFFFFFFFC0
FFFFFFFFC0
FFFFFFFFC0
FFFFFFFFC0
FFFFFFFFC0
ENDCHAR
STARTCHAR F069
ENCODING 61545
SWIDTH 1002 0
DWIDTH 39 0
BBX 35 39 2 -5
BITMAP
0001F00000
0003F80000
0003F80000
0003F80000
0003F80000
0003F80000
0003F80000
0003F80000
7803F803C0
7E03F80FC0
FF03F81FE0
FFC3F87FE0
FFF3F9FFE0
7FFBF3FFC0
3FFFFFFF00
0FFFFFFE00
03FFFFF800
00FFFFE000
003FFF8000
001FFF0000
007FFFC000
00FFFFE000
03FFFFF800
0FFFFFFE00
3FFFFFFF80
FFFBF3FFE0
FFE3F9FFE0
FFC3F87FE0
FF03F81FE0
7C03F80FC0
7803F80380
0003F80000
0003F80000
0003F80000
0003F80000
0003F80000
0003F80000
0003F80000
0001F00000
ENDCHAR
STARTCHAR F06A
ENCODING 61546
SWIDTH 1002 0
DWIDTH 39 0
BBX 37 37 1 -4
BITMAP
0007FF0000
003FFFE000
00FFFFF000
01FFFFFC00
03FFFFFE00
07FFFFFF00
0FFFFFFF80
1FFFFFFFC0
3FFFFFFFC0
3FFE03FFE0
7FFE03FFE0
7FFE03FFF0
7FFE03FFF0
FFFE03FFF8
FFFE07FFF8
FFFE07FFF8
FFFF07FFF8
FFFF07FFF8
FFFF07FFF8
FFFF07FFF8
FFFF07FFF8
FFFFFFFFF8
FFFF8FFFF8
FFFF07FFF8
7FFE03FFF0
7FFE03FFF0
7FFE03FFE0
3FFE07FFE0
3FFF07FFC0
1FFFFFFFC0
0FFFFFFF80
07FFFFFF00
03FFFFFE00
01FFFFFC00
007FFFF000
001FFFC000
0007FF0000
ENDCHAR
STARTCHAR F06B
ENCODING 61547
SWIDTH 1002 0
DWIDTH 39 0
BBX 39 34 0 -2
BITMAP
001C007000
00FF01FE00
01FFC7FF00
03FFEFFF80
03FFFFFF80
07E7FF8FC0
07C1FF07C0
07C0FE07C0
07C07C07C0
07E07C0FC0
07FFFFFF80
03FFFFFF80
01FFFFFF00
FFFFFFFFFE
FFFFFFFFFE
FFFF01FFFE
FFFF01FFFE
FFFF01FFFE
FFFF01FFFE
FFFF01FFFE
FFFF01FFFE
FFFF01FFFE
3FFF01FFF0
3FFF01FFF0
3FFF01FFF0
3FFF01FFF0
3FFF01FFF0
3FFF01FFF0
3FFF01FFF0
3FFF01FFF0
3FFF83FFF0
3FFFFFFFF0
1FFFFFFFF0
0FFFFFFFE0
ENDCHAR
STARTCHAR F06C
ENCODING 61548
SWIDTH 1131 0
DWIDTH 44 0
BBX 44 34 0 -2
BITMAP
000000000180
0000000007C0
000000000FC0
000000001FE0
00000001FFE0
00003FFFFFE0
0001FFFFFFE0
0007FFFFFFF0
001FFFFFFFF0
003FFFFFFFF0
007FFFFFFFF0
00FFFFFFFFF0
01FFFFFFFFF0
03FFF800FFE0
03FFC001FFE0
07FF01FFFFE0
07FE0FFFFFE0
0FFC3FFFFFC0
0FF0FFFFFFC0
0FE1FFFFFF80
0FE3FFFFFF80
0FC7FFFFFF00
0F8FFFFFFF00
0F9FFFFFFE00
0FBFFFFFFC00
07FFFFFFF800
0FFFFFFFF000
1FFFFFFFC000
3FFFFFFF8000
7FFFFFFE0000
FE3FFFF80000
FC07FFC00000
F80038000000
780000000000
ENDCHAR
STARTCHAR F06D
ENCODING 61549
SWIDTH 745 0
DWIDTH 29 0
BBX 29 39 0 -5
BITMAP
00070000
00070000
000F0000
001F8000
001F8000
003FC000
003FC000
003FE000
003FF000
003FF800
003FFC00
003FFE00
003FFF00
041FFF80
0E0FFFC0
1E07FFE0
3E03FFE0
3E01FFF0
7E00FFF0
7E00FFF8
FE007FF8
FE007FF8
FE007FF8
FF007FF8
FF00FFF8
FF81FFF8
FFE3FFF8
FFFFFFF8
7FFFFFF8
7FFFFFF0
7FFFFFF0
3FFFFFE0
1FFFFFE0
1FFFFFC0
0FFFFF80
07FFFF00
01FFFC00
00FFF800
001FC000
ENDCHAR
STARTCHAR F06E
ENCODING 61550
SWIDTH 1131 0
DWIDTH 44 0
BBX 44 28 0 1
BITMAP
00000F000000
0001FFF80000
000FFFFF0000
003FFFFFC000
00FFE07FF000
01FF801FF800
03FE000FFC00
07FC1FC7FE00
0FF807E3FF00
1FF807F1FF80
3FF007F9FFC0
7FF207F8FFE0
7FF207FCFFE0
FFF30FFCFFF0
FFF3FFFCFFF0
FFF3FFFCFFF0
7FF3FFFCFFE0
7FF1FFF8FFC0
3FF1FFF9FFC0
1FF8FFF1FF80
0FFC7FE3FF00
07FC3F87FE00
03FE000FFC00
01FF801FF800
00FFF0FFE000
003FFFFFC000
000FFFFE0000
0001FFF80000
ENDCHAR
STARTCHAR F070
ENCODING 61552
SWIDTH 1131 0
DWIDTH 44 0
BBX 44 39 0 -5
BITMAP
006000000000
00F000000000
01F800000000
00FC00000000
00FC00000000
007E0F000000
003FFFF80000
003FFFFF0000
001FFFFFC000
000FE07FE000
0107C01FF800
0387E00FFC00
0FC3FF87FE00
1FC1FE03FF00
1FE1FE01FF80
3FF0FC01FFC0
7FF07C00FFE0
7FF07E0CFFE0
FFF03F1CFFF0
FFF21FFCFFF0
FFF20FFCFFF0
7FF30FFCFFE0
7FF187F8FFC0
3FF183F9FFC0
1FF8C3F9FF80
0FF861FBFF00
07FC20FFFE00
03FE007FFC00
01FF807FF800
007FF03FE000
003FFC1FC000
000FFE1F8000
0001FF0FC000
00000007E000
00000003F000
00000003F000
00000001F000
00000000F000
00000000E000
ENDCHAR
STARTCHAR F071
ENCODING 61553
SWIDTH 1131 0
DWIDTH 44 0
BBX 44 39 0 -5
BITMAP
00000F000000
00001F800000
00003F800000
00003FC00000
00007FE00000
00007FE00000
0000FFF00000
0001FFF00000
0001FFF80000
0003FFFC0000
0003FFFC0000
0007FFFE0000
000FFFFE0000
000FE07F0000
001FE07F0000
001FE07F8000
003FE07FC000
003FE07FC000
007FE07FE000
00FFE07FE000
00FFE07FF000
01FFE07FF000
01FFE07FF800
03FFE07FFC00
03FFE07FFC00
07FFFFFFFE00
0FFFFFFFFE00
0FFFF0FFFF00
1FFFE07FFF00
1FFFC07FFF80
3FFFC07FFFC0
3FFFE07FFFC0
7FFFE07FFFE0
FFFFF1FFFFE0
FFFFFFFFFFF0
FFFFFFFFFFF0
FFFFFFFFFFF0
7FFFFFFFFFE0
3FFFFFFFFFC0
ENDCHAR
STARTCHAR F072
ENCODING 61554
SWIDTH 1131 0
DWIDTH 44 0
BBX 44 39 0 -5
BITMAP
0007E0000000
0007F0000000
0003F8000000
0003F8000000
0003FC000000
0003FC000000
0003FE000000
0001FE000000
0001FF000000
0001FF000000
F801FF800000
F801FF800000
FC01FFC00000
FE00FFC00000
7E00FFE00000
7FFFFFFFFE00
7FFFFFFFFFC0
7FFFFFFFFFE0
7FFFFFFFFFF0
3FFFFFFFFFF0
7FFFFFFFFFE0
7FFFFFFFFFE0
7FFFFFFFFF80
7FFFFFFFFC00
7E00FFE00000
FE00FFC00000
FC01FFC00000
F801FF800000
7001FF800000
0001FF000000
0001FF000000
0003FE000000
0003FE000000
0003FC000000
0003FC000000
0003F8000000
0003F0000000
0007F0000000
0003E0000000
ENDCHAR
STARTCHAR F073
ENCODING 61555
SWIDTH 874 0
DWIDTH 34 0
BBX 34 39 0 -5
BITMAP
01F003E000
01F003E000
01F003E000
01F003E000
01F003E000
7FFFFFFF80
7FFFFFFF80
FFFFFFFFC0
FFFFFFFFC0
FFFFFFFFC0
FFFFFFFFC0
FFFFFFFFC0
0000000000
0000000000
0000000000
FFFFFFFFC0
FFFFFFFFC0
FFFFFFFFC0
FFFFFFFFC0
F87E1F87C0
F83E1F07C0
F83E1F07C0
F83E1F07C0
F83E1F07C0
FFFFFFFFC0
FFFFFFFFC0
FFFFFFFFC0
FFFFFFFFC0
FFFFFFFFC0
F83E1F87C0
F83E1F07C0
F83E1F07C0
F83E1F07C0
F83E1F07C0
FFFFFFFFC0
FFFFFFFFC0
FFFFFFFFC0
7FFFFFFF80
3FFFFFFF00
ENDCHAR
STARTCHAR F074
ENCODING 61556
SWIDTH 1002 0
DWIDTH 39 0
BBX 39 34 0 -2
BITMAP
0000000300
0000000780
00000007C0
00000007E0
00000007F0
FFC000FFF8
FFE001FFFC
FFF003FFFE
FFF807FFFE
FFFC0FFFFC
FFFE1FFFF8
01FE3FE7F0
00FC3FC7E0
00787F87C0
0030FF0780
0001FE0300
0003FC0000
0007F80000
000FF00000
001FE20780
003FC707C0
007F8787E0
00FF0FC7F0
7FFE1FFFF8
FFFC0FFFFC
FFFC0FFFFE
FFF807FFFE
FFF003FFFE
FFE001FFFC
7FC000FFF8
00000007F0
00000007E0
00000007C0
0000000780
ENDCHAR
STARTCHAR F075
ENCODING 61557
SWIDTH 1131 0
DWIDTH 44 0
BBX 44 34 0 -2
BITMAP
00001F000000
0003FFFC0000
001FFFFF8000
007FFFFFE000
01FFFFFFF000
03FFFFFFFC00
07FFFFFFFE00
0FFFFFFFFF00
1FFFFFFFFF80
3FFFFFFFFFC0
7FFFFFFFFFC0
7FFFFFFFFFE0
7FFFFFFFFFE0
FFFFFFFFFFE0
FFFFFFFFFFF0
FFFFFFFFFFF0
FFFFFFFFFFF0
FFFFFFFFFFF0
FFFFFFFFFFF0
FFFFFFFFFFE0
7FFFFFFFFFE0
7FFFFFFFFFE0
3FFFFFFFFFC0
3FFFFFFFFF80
1FFFFFFFFF80
0FFFFFFFFF00
0FFFFFFFFE00
0FFFFFFFF800
0FFFFFFFF000
1FFFFFFFC000
1FE7FFFE0000
3FC0FFF00000
7F0000000000
FC0000000000
ENDCHAR
STARTCHAR F076
ENCODING 61558
SWIDTH 1002 0
DWIDTH 39 0
BBX 39 36 0 -4
BITMAP
3FE0000FF8
7FF8003FFC
FFF8003FFE
FFF8003FFE
FFF8003FFE
FFF8003FFE
FFF8003FFE
FFF8003FFE
FFF8003FFE
FFF8003FFE
0000000000
0000000000
0000000000
FFF8003FFE
FFF8003FFE
FFF8003FFE
FFF8003FFE
FFF8003FFE
FFF8007FFE
FFFC007FFE
FFFC007FFE
FFFC007FFC
7FFE00FFFC
7FFF01FFFC
7FFFC7FFF8
3FFFFFFFF8
3FFFFFFFF0
1FFFFFFFF0
0FFFFFFFE0
07FFFFFFC0
03FFFFFF80
01FFFFFF00
00FFFFFE00
007FFFF800
001FFFE000
0003FF8000
ENDCHAR
STARTCHAR F077
ENCODING 61559
SWIDTH 874 0
DWIDTH 34 0
BBX 33 20 0 4
BITMAP
0000C00000
0001E00000
0003F00000
0007F80000
000FFC0000
001FFE0000
003FFF0000
007FFF8000
00FFFFC000
01FF3FE000
03FE1FF000
07FC0FF800
0FF807FC00
1FF003FE00
3FE001FF00
7FC000FF80
FF80007F80
7F00003F80
7E00001F80
3C00000F00
ENDCHAR
STARTCHAR F078
ENCODING 61560
SWIDTH 874 0
DWIDTH 34 0
BBX 34 20 0 4
BITMAP
1800000600
3C00000F00
7E00001F80
FF00003FC0
7F80007F80
7FC000FF80
3FE001FF00
1FF003FE00
0FF807FC00
07FC0FF800
03FE1FF000
01FF3FE000
00FFFFC000
007FFF8000
003FFF0000
001FFE0000
000FFC0000
0007F80000
0003F00000
0001E00000
ENDCHAR
STARTCHAR F079
ENCODING 61561
SWIDTH 1260 0
DWIDTH 49 0
BBX 48 29 0 0
BITMAP
00E000000000
01F000000000
03F80FFFFF00
07FC1FFFFF80
0FFE1FFFFF80
1FFF0FFFFF80
3FFF87FFFF80
7FFFC0000F80
FFF7E0000F80
FDF3E0000F80
79F1E0000F80
31F080000F80
01F000000F80
01F000000F80
01F000000F80
01F000000F80
01F000000F80
01F000018F86
01F00003CF8F
01F00007EF9F
01F00003FFBF
01F00003FFFE
01FFFFF1FFFC
01FFFFF8FFF8
01FFFFF87FF0
01FFFFF83FE0
007FFFF01FC0
000000000F80
000000000700
ENDCHAR
STARTCHAR F07A
ENCODING 61562
SWIDTH 1131 0
DWIDTH 44 0
BBX 44 39 0 -5
BITMAP
7FE000000000
FFE000000000
FFF000000000
FFF000000000
7FF000000000
01FFFFFFFFE0
01FFFFFFFFF0
00FFFFFFFFF0
00FFFFFFFFE0
00FFFFFFFFE0
00FFFFFFFFE0
00FFFFFFFFE0
007FFFFFFFC0
007FFFFFFFC0
007FFFFFFFC0
007FFFFFFFC0
003FFFFFFFC0
003FFFFFFF80
003FFFFFFF80
003FFFFFFF80
003FFFFFFF80
001FFFFFFF00
001FFFFFFF00
001FFFFFFF00
001F00000000
001F00000000
000F80000000
000FFFFFFC00
000FFFFFFE00
000FFFFFFE00
000FFFFFFC00
000FFFFFFE00
001FC0007F00
003FE000FF80
003FE000FF80
003FE000FF80
001FC0007F00
001FC0007F00
000700001C00
ENDCHAR
STARTCHAR F07B
ENCODING 61563
SWIDTH 1002 0
DWIDTH 39 0
BBX 39 29 0 0
BITMAP
3FFF000000
7FFF800000
FFFFC00000
FFFFE00000
FFFFF00000
FFFFFFFFFC
FFFFFFFFFC
FFFFFFFFFE
FFFFFFFFFE
FFFFFFFFFE
FFFFFFFFFE
FFFFFFFFFE
FFFFFFFFFE
FFFFFFFFFE
FFFFFFFFFE
FFFFFFFFFE
FFFFFFFFFE
FFFFFFFFFE
FFFFFFFFFE
FFFFFFFFFE
FFFFFFFFFE
FFFFFFFFFE
FFFFFFFFFE
FFFFFFFFFE
FFFFFFFFFE
FFFFFFFFFE
FFFFFFFFFE
7FFFFFFFFC
3FFFFFFFF8
ENDCHAR
STARTCHAR F07C
ENCODING 61564
SWIDTH 1131 0
DWIDTH 44 0
BBX 44 29 0 0
BITMAP
3FFF00000000
7FFF80000000
FFFFC0000000
FFFFE0000000
FFFFF0000000
FFFFFFFFE000
FFFFFFFFF000
FFFFFFFFF000
FFFFFFFFF000
FFFFFFFFF000
FFFFFFFFF000
FFFFFFFFF000
FF8000000000
FE0000000000
FC1FFFFFFFE0
F8FFFFFFFFF0
F8FFFFFFFFF0
F1FFFFFFFFE0
F3FFFFFFFFE0
E3FFFFFFFFC0
C7FFFFFFFFC0
C7FFFFFFFF80
8FFFFFFFFF00
9FFFFFFFFF00
1FFFFFFFFE00
3FFFFFFFFE00
3FFFFFFFFC00
3FFFFFFFF800
3FFFFFFFF000
ENDCHAR
STARTCHAR F080
ENCODING 61568
SWIDTH 1002 0
DWIDTH 39 0
BBX 39 29 0 0
BITMAP
F800000000
F800000000
F8000000F0
F8000000F0
F8000000F0
F8007C00F0
F8007C00F0
F8007C00F0
F8007C00F0
F8007C00F0
F8007CF8F0
F8007CF8F0
F8007CF8F0
F8007CF8F0
F83C7CF8F0
F83E7CF8F0
F83E7CF8F0
F83E7CF8F0
F83E7CF8F0
F83E7CF8F0
F83E7CF8F0
F83C7C78F0
F800000000
F800000000
FFFFFFFFFE
FFFFFFFFFE
FFFFFFFFFE
FFFFFFFFFE
FFFFFFFFFE
ENDCHAR
STARTCHAR F083
ENCODING 61571
SWIDTH 1002 0
DWIDTH 39 0
BBX 39 34 0 -2
BITMAP
1FFFFFFFF0
7FFFFFFFFC
FFFFFFFFFE
E00E00000E
C00E00000E
FFFC00000E
E00000000E
C00000000E
C00000000E
C00000000E
FFFFFFFFFE
FFFFFFFFFE
FFFF03FFFE
FFFC007FFE
FFF8383FFE
FFF0FE1FFE
FFF1CF1FFE
FFE3078FFE
FFE60FCFFE
FFC63FCFFE
FFC67FC7FE
FFC67FC7FE
FFC7FFCFFE
FFE7FFCFFE
FFE3FF8FFE
FFE3FF1FFE
FFF0FE1FFE
FFF8783FFE
FFFC007FFE
FFFF01FFFE
FFFFFFFFFE
FFFFFFFFFE
FFFFFFFFFE
7FFFFFFFFC
ENDCHAR
STARTCHAR F084
ENCODING 61572
SWIDTH 1002 0
DWIDTH 39 0
BBX 39 39 0 -5
BITMAP
000003F800
00001FFF00
00003FFF80
0000FFFFE0
0001FFFFF0
0001FFFFF0
0003FFE1F8
0007FFC0FC
0007FFC07C
0007FFC07C
000FFFC07E
000FFFC0FE
000FFFE1FE
000FFFFFFE
000FFFFFFE
000FFFFFFE
0007FFFFFE
0007FFFFFC
000FFFFFFC
001FFFFFF8
003FFFFFF8
007FFFFFF0
00FFFFFFE0
01FFFFFFC0
03FFFFFF80
07FFFFFE00
0FFFFFF000
1FFFFC0000
3FFFF80000
7FFF800000
FFFF800000
FFFF800000
FFFF800000
FFFF000000
FFF0000000
FFF0000000
FFF0000000
FFF0000000
7FE0000000
ENDCHAR
STARTCHAR F085
ENCODING 61573
SWIDTH 1260 0
DWIDTH 49 0
BBX 49 39 0 -5
BITMAP
000000000C3000
000000001FFC00
0003E0003FFC00
000FF8001FF800
000FF8003FFC00
000FF8003E7C00
000FF800FC3F00
003FFC00F81F80
1C7FFF3CF81F80
3FFFFFFCFC3F00
3FFFFFFE3E7C00
7FFFFFFF1FFC00
7FFFFFFF1FF800
FFFFFFFFBFFC00
FFFC1FFF9FFC00
7FF00FFF0C3000
1FF007FC000000
1FE003F8000000
1FE003F8000000
1FE003FC000000
1FE003F8000000
1FE007F8000000
3FF007FE000000
FFF80FFF0E3800
FFFE3FFFBFFC00
FFFFFFFF9FFC00
7FFFFFFF1FF800
7FFFFFFE3FFC00
3FFFFFFE3C3C00
1EFFFFFCFC1F00
0C7FFE18F81F80
001FF800F81F80
000FF800FC3F00
000FF8003FFC00
000FF8001FFC00
000FF0001FF800
000000003FFC00
000000001E7800
00000000043000
ENDCHAR
STARTCHAR F086
ENCODING 61574
SWIDTH 1131 0
DWIDTH 44 0
BBX 44 34 0 -2
BITMAP
0001E0000000
003FFF000000
01FFFFC00000
03FFFFF00000
0FFFFFFC0000
1FFFFFFE0000
3FFFFFFF0000
3FFFFFFF0000
7FFFFFFF8000
7FFFFFFF8000
FFFFFFFFC000
FFFFFFFFC000
FFFFFFFFC000
FFFFFFFFC200
FFFFFFFFC300
FFFFFFFFC780
7FFFFFFF87C0
7FFFFFFF87E0
3FFFFFFF0FE0
1FFFFFFE0FE0
1FFFFFFC1FF0
1FFFFFF83FF0
1FFFFFF03FF0
3FFFFFC07FE0
3F1FFE01FFE0
7C000003FFE0
F000000FFFC0
0000007FFF80
000003FFFF80
00007FFFFF80
00001FFFFF80
000007FFFFC0
0000007E07C0
0000000001E0
ENDCHAR
STARTCHAR F089
ENCODING 61577
SWIDTH 1131 0
DWIDTH 44 0
BBX 20 39 2 -5
BITMAP
000030
000030
000070
000070
0000F0
0000F0
0001F0
0001F0
0003F0
0003F0
0007F0
000FF0
07FFF0
FFFFF0
FFFFF0
FFFFF0
FFFFF0
7FFFF0
3FFFF0
1FFFF0
0FFFF0
07FFF0
03FFF0
01FFF0
00FFF0
00FFF0
00FFF0
00FFF0
00FFF0
00FFF0
01FFF0
01FFF0
01FFF0
01FFF0
01FFC0
03FF00
03FC00
01F000
00C000
ENDCHAR
STARTCHAR F08D
ENCODING 61581
SWIDTH 745 0
DWIDTH 29 0
BBX 29 39 0 -5
BITMAP
1FFFFFC0
3FFFFFE0
3FFFFFE0
3FFFFFE0
3FFFFFE0
3FFFFFE0
1FFFFFC0
01FFFC00
01FFFC00
01FFFC00
01FFFC00
01FFFC00
01FFFC00
01FFFC00
01FFFC00
01FFFE00
03FFFE00
0FFFFF80
1FFFFFC0
3FFFFFE0
7FFFFFF0
7FFFFFF0
FFFFFFF8
FFFFFFF8
FFFFFFF8
FFFFFFF8
7FFFFFF0
000F8000
000F8000
000F8000
000F8000
000F8000
000F8000
000F8000
000F8000
00078000
00070000
00030000
00020000
ENDCHAR
STARTCHAR F091
ENCODING 61585
SWIDTH 1131 0
DWIDTH 44 0
BBX 44 39 0 -5
BITMAP
003FFFFF8000
003FFFFFC000
003FFFFFC000
003FFFFFC000
003FFFFFC000
FFFFFFFFFFE0
FFFFFFFFFFF0
FFFFFFFFFFF0
FFFFFFFFFFF0
FFFFFFFFFFF0
F83FFFFFC1F0
F83FFFFFC1F0
F83FFFFFC3F0
FC3FFFFFC7E0
7E3FFFFF8FE0
3FBFFFFF9FC0
3FFFFFFFFF80
1FFFFFFFFF00
07FFFFFFFE00
03FFFFFFFC00
00FFFFFFE000
001FFFFF0000
0003FFFC0000
0003FFF80000
0001FFF80000
0000FFF00000
00007FE00000
00003FC00000
00003FC00000
00003FC00000
00003FC00000
00003FC00000
00003FC00000
000FFFFF0000
001FFFFF8000
003FFFFFC000
003FFFFFC000
003FFFFFC000
003FFFFFC000
ENDCHAR
STARTCHAR F093
ENCODING 61587
SWIDTH 1002 0
DWIDTH 39 0
BBX 39 39 0 -5
BITMAP
0000380000
00007C0000
0000FE0000
0001FF0000
0003FF8000
0007FFC000
000FFFE000
001FFFF000
003FFFF800
007FFFFC00
00FFFFFE00
01FFFFFF00
03FFFFFF00
03FFFFFF00
01FFFFFE00
0001FF0000
0001FF0000
0001FF0000
0001FF0000
0001FF0000
0001FF0000
0001FF0000
0001FF0000
0001FF0000
0001FF0000
0001FF0000
0001FF0000
FFF1FF1FFE
FFF1FF1FFE
FFF8003FFE
FFFC007FFE
FFFE01FFFE
FFFFFFFFFE
FFFFFFFFFE
FFFFFFE73E
FFFFFFC63E
FFFFFFE73E
FFFFFFFFFE
7FFFFFFFFC
ENDCHAR
STARTCHAR F094
ENCODING 61588
SWIDTH 1002 0
DWIDTH 39 0
BBX 39 39 0 -5
BITMAP
00000001E0
0000FFFFF8
0007FFFFFC
001FFFFFFC
003FFFFFFE
007F1FFFFE
00FC1FFFFE
01F83FFFFC
03E0FFFFFC
07C3FFFFFC
0F87FFFFFC
1F0FFFFFFC
1F1FFFFFFC
3E3FFFFFFC
3C7FFFFFFC
3C7FFFFFFC
78FFFFFFFC
78FFFFFFFC
79FFFFFFFC
7FFFFFFFFC
7FFFFFFFFC
7FFFFFFFFC
7FFFFFFFF8
7FFFFFFFF8
7FFFFFFFF8
7FFFFFFFF0
7FFFFFFFF0
7FFFFFFFE0
7FFFFFFFE0
7FFFFFFFC0
7FFFFFFF80
FFFFFFFF00
FFFFFFFE00
FFFFFFFC00
FFFFFFF800
7FFFFFE000
7FFFFF8000
3FFFFC0000
0E00000000
ENDCHAR
STARTCHAR F095
ENCODING 61589
SWIDTH 1002 0
DWIDTH 39 0
BBX 39 39 0 -5
BITMAP
0000000F00
0000001FF0
0000001FFE
0000003FFE
0000003FFE
0000003FFE
0000007FFE
0000007FFE
000000FFFE
000000FFFC
000000FFFC
000000FFFC
0000007FFC
0000001FF8
0000000FF8
00000007F8
0000000FF0
0000000FF0
0000001FF0
0000001FE0
0000003FE0
0000007FC0
000000FF80
000001FF80
00F003FF00
03F807FE00
1FFC0FFC00
7FFC3FFC00
FFFEFFF800
FFFFFFF000
FFFFFFC000
7FFFFF8000
7FFFFF0000
7FFFFC0000
7FFFF80000
7FFFE00000
3FFF000000
3FF8000000
1F80000000
ENDCHAR
STARTCHAR F098
ENCODING 61592
SWIDTH 874 0
DWIDTH 34 0
BBX 34 34 0 -2
BITMAP
1FFFFFFE00
7FFFFFFF80
FFFFFFFFC0
FFFFFFFFC0
FFFFFFFFC0
FFFFFCFFC0
FFFFFC0FC0
FFFFF807C0
FFFFF807C0
FFFFF807C0
FFFFF007C0
FFFFF007C0
FFFFF007C0
FFFFF80FC0
FFFFFC0FC0
FFFFFE0FC0
FFFFFC1FC0
FFFFF81FC0
FFFFF83FC0
FFFFF03FC0
FFCFE07FC0
FF07C0FFC0
F80301FFC0
F80003FFC0
F80007FFC0
F8000FFFC0
FC003FFFC0
FC00FFFFC0
FC03FFFFC0
FE7FFFFFC0
FFFFFFFFC0
FFFFFFFFC0
FFFFFFFFC0
7FFFFFFF80
ENDCHAR
STARTCHAR F09C
ENCODING 61596
SWIDTH 874 0
DWIDTH 34 0
BBX 34 39 0 -5
BITMAP
0003F00000
001FFE0000
003FFF0000
007FFF8000
00FFFFC000
01FFFFE000
01FE1FE000
03F807F000
03F803F000
03F003F000
03F003F800
07F003F800
07F003F800
07F001F000
07F000E000
07F0000000
07F0000000
07F0000000
07F0000000
1FFFFFFE00
7FFFFFFF80
FFFFFFFFC0
FFFFFFFFC0
FFFFFFFFC0
FFFFFFFFC0
FFFFFFFFC0
FFFFFFFFC0
FFFFFFFFC0
FFFFFFFFC0
FFFFFFFFC0
FFFFFFFFC0
FFFFFFFFC0
FFFFFFFFC0
FFFFFFFFC0
FFFFFFFFC0
FFFFFFFFC0
FFFFFFFFC0
7FFFFFFF80
3FFFFFFF00
ENDCHAR
STARTCHAR F09D
ENCODING 61597
SWIDTH 1131 0
DWIDTH 44 0
BBX 44 34 0 -2
BITMAP
1FFFFFFFFF80
7FFFFFFFFFE0
FFFFFFFFFFE0
FFFFFFFFFFF0
FFFFFFFFFFF0
FFFFFFFFFFF0
FFFFFFFFFFF0
FFFFFFFFFFF0
000000000000
000000000000
000000000000
000000000000
000000000000
000000000000
000000000000
000000000000
000000000000
FFFFFFFFFFF0
FFFFFFFFFFF0
FFFFFFFFFFF0
FFFFFFFFFFF0
FFFFFFFFFFF0
FFFFFFFFFFF0
FFFFFFFFFFF0
FFFFFFFFFFF0
F80E001FFFF0
F80E001FFFF0
F80E001FFFF0
F80E001FFFF0
F80E003FFFF0
FFFFFFFFFFF0
FFFFFFFFFFF0
FFFFFFFFFFE0
7FFFFFFFFFE0
ENDCHAR
STARTCHAR F09E
ENCODING 61598
SWIDTH 874 0
DWIDTH 34 0
BBX 34 34 0 -2
BITMAP
6000000000
FF80000000
FFF0000000
FFFC000000
FFFF000000
FFFFC00000
7FFFE00000
00FFF80000
003FFC0000
0007FE0000
0003FF0000
6000FF8000
FE007FC000
FFC01FE000
FFF00FF000
FFF807F000
FFFE07F800
3FFF03FC00
03FF81FC00
00FFC0FE00
003FC0FE00
001FE07F00
000FF07F00
0007F03F00
0003F83F80
3F03F83F80
7F81FC1F80
FF80FC1F80
FFC0FC1FC0
FFC0FE0FC0
FFC07E0FC0
FF807E0FC0
7F807E0FC0
3F007E0FC0
ENDCHAR
STARTCHAR F0A0
ENCODING 61600
SWIDTH 1131 0
DWIDTH 44 0
BBX 44 29 0 0
BITMAP
007FFFFFC000
007FFFFFE000
00FFFFFFF000
01FFFFFFF000
01FFFFFFF800
03FFFFFFFC00
07FFFFFFFC00
07FFFFFFFE00
0FFFFFFFFF00
1FFFFFFFFF00
1FFFFFFFFF80
3FFFFFFFFFC0
000000000000
000000000000
1FFFFFFFFF80
7FFFFFFFFFE0
FFFFFFFFFFE0
FFFFFFFFFFF0
FFFFFFFFFFF0
FFFFFFF3E7F0
FFFFFFE1C1F0
FFFFFFE0C1F0
FFFFFFE1C1F0
FFFFFFF1E3F0
FFFFFFFFFFF0
FFFFFFFFFFF0
FFFFFFFFFFF0
7FFFFFFFFFE0
3FFFFFFFFFC0
ENDCHAR
STARTCHAR F0A1
ENCODING 61601
SWIDTH 1131 0
DWIDTH 44 0
BBX 44 39 0 -5
BITMAP
000000000E00
000000001F00
000000007F80
00000000FF80
00000001FF80
00000007FF80
0000000FFF80
0000003FEF80
000001FFCF80
00001FFF0F80
7FFFFFFE0F80
FFFFFFF80F80
FFFFFFE00F80
FFFFFF000F80
FFFFE0000FE0
FFFFE0000FE0
FFFFE0000FF0
FFFFE0000FF0
FFFFE0000FE0
FFFFE0000FE0
FFFFFF000F80
FFFFFFE00F80
FFFFFFF80F80
7FFFFFFE0F80
01FF9FFF0F80
01FF01FFCF80
03FE003FEF80
03FE000FFF80
03FE0007FF80
03FE0001FF80
01FE0000FF80
01FE00007F80
01FE00001F00
01FE00000E00
01FF00000000
00FF80000000
00FF80000000
007F80000000
003F00000000
ENDCHAR
STARTCHAR F0A3
ENCODING 61603
SWIDTH 1002 0
DWIDTH 39 0
BBX 39 39 0 -5
BITMAP
0007018000
000783C000
0007C7C000
000FEFC000
000FFFE000
07CFFFE7C0
07FFFFFFC0
07FFFFFFC0
07FFFFFFC0
07FFFFFF80
03FFFFFF80
03FFFFFF80
1FFFFFFFF0
FFFFFFFFFC
FFFFFFFFFE
FFFFFFFFFE
7FFFFFFFFC
3FFFFFFFF8
1FFFFFFFF0
0FFFFFFFE0
1FFFFFFFF0
3FFFFFFFF8
7FFFFFFFFC
FFFFFFFFFE
FFFFFFFFFE
7FFFFFFFFC
0FFFFFFFE0
03FFFFFF80
03FFFFFF80
07FFFFFF80
07FFFFFFC0
07FFFFFFC0
07FFFFFFC0
078FFFE3C0
000FFFE000
000FEFC000
0007C7C000
000783C000
0003018000
ENDCHAR
STARTCHAR F0A4
ENCODING 61604
SWIDTH 1002 0
DWIDTH 39 0
BBX 39 29 0 0
BITMAP
00000F0000
00001F8000
00001F8000
00003FC000
0000FF8000
0001FF8000
0007FF0000
001FFFFFFC
7C3FFFFFFC
FE7FFFFFFE
FE7FFFFFFE
FEFFFFFFFE
FEFFFFFFFC
FEFFFFF000
FEFFFFF800
FEFFFFF800
FEFFFFF800
FEFFFFF000
FEFFFFF000
FEFFFFF000
FEFFFFF000
EEFFFFF000
C6FFFFE000
C6FFFFC000
FE7FFFC000
FE7FFFC000
7C1FFFC000
0003FF8000
0000FF0000
ENDCHAR
STARTCHAR F0A5
ENCODING 61605
SWIDTH 1002 0
DWIDTH 39 0
BBX 39 29 0 0
BITMAP
0001E00000
0003F00000
0007F00000
0007F80000
0007FC0000
0003FF0000
0003FF8000
7FFFFFE000
FFFFFFF87C
FFFFFFFCFE
FFFFFFFCFE
FFFFFFFCFE
7FFFFFFCFE
001FFFFCFE
003FFFFCFE
003FFFFCFE
003FFFFCFE
003FFFFCFE
001FFFFCFE
001FFFFCFE
001FFFFCFE
001FFFFCEE
000FFFFCC6
000FFFFCC6
0007FFFCFE
0007FFFCFE
0007FFE07C
0003FF8000
0001FE0000
ENDCHAR
STARTCHAR F0A6
ENCODING 61606
SWIDTH 745 0
DWIDTH 29 0
BBX 29 39 0 -5
BITMAP
00700000
00F80000
01F80000
01FC0000
01FC0000
01FC0000
01FC0000
01FC0000
01FC0000
01FC0000
01FFC000
01FFFE00
01FFFF00
19FFFFF0
7FFFFFF0
FFFFFFF8
FFFFFFF8
FFFFFFF8
FFFFFFF8
7FFFFFF8
1FFFFFF8
0FFFFFF8
07FFFFF8
07FFFFF0
03FFFFF0
01FFFFE0
01FFFFE0
00FFFFE0
00FFFFC0
007FFFC0
00000000
00000000
007FFFE0
00FFFFE0
00FFFCE0
00FFFC60
00FFFCE0
007FFFE0
007FFFC0
ENDCHAR
STARTCHAR F0A7
ENCODING 61607
SWIDTH 745 0
DWIDTH 29 0
BBX 29 39 0 -5
BITMAP
007FFFC0
00FFFFE0
00FFFCE0
00FFFC60
00FFFCE0
007FFFE0
007FFFC0
00000000
001FFF80
007FFFC0
00FFFFC0
00FFFFE0
01FFFFE0
01FFFFE0
03FFFFF0
07FFFFF0
07FFFFF8
0FFFFFF8
1FFFFFF8
7FFFFFF8
FFFFFFF8
FFFFFFF8
FFFFFFF8
FFFFFFF8
7DFFFFF0
11FFFFE0
01FFFF00
01FFFC00
01FFC000
01FC0000
01FC0000
01FC0000
01FC0000
01FC0000
01FC0000
01FC0000
01F80000
00F80000
00700000
ENDCHAR
STARTCHAR F0A8
ENCODING 61608
SWIDTH 1002 0
DWIDTH 39 0
BBX 37 37 1 -4
BITMAP
0007FF0000
003FFFE000
00FFFFF000
01FFFFFC00
03FFFFFE00
07FFFFFF00
0FFFFFFF80
1FFF8FFFC0
3FFF07FFC0
3FFE07FFE0
7FFC07FFE0
7FF80FFFF0
7FF01FFFF0
FFE07FFFF8
FFC0FFFFF8
FF81FFFFF8
FF000003F8
FE000001F8
FE000001F8
FE000001F8
FF000003F8
FF81FFFFF8
FFC07FFFF8
FFE03FFFF8
7FF01FFFF0
7FF80FFFF0
7FFC07FFE0
3FFE07FFE0
3FFF07FFC0
1FFF8FFFC0
0FFFFFFF80
07FFFFFF00
03FFFFFE00
01FFFFFC00
007FFFF000
001FFFC000
0007FF0000
ENDCHAR
STARTCHAR F0A9
ENCODING 61609
SWIDTH 1002 0
DWIDTH 39 0
BBX 37 37 1 -4
BITMAP
0007FF0000
003FFFE000
00FFFFF000
01FFFFFC00
03FFFFFE00
07FFFFFF00
0FFFFFFF80
1FFF8FFFC0
3FFF07FFC0
3FFF03FFE0
7FFF01FFE0
7FFF80FFF0
7FFFC07FF0
FFFFE03FF8
FFFFF01FF8
FFFFF80FF8
FE000007F8
FC000003F8
FC000003F8
FC000003F8
FE000007F8
FFFFF80FF8
FFFFF01FF8
FFFFE03FF8
7FFFC07FF0
7FFF80FFF0
7FFF01FFE0
3FFF03FFE0
3FFF07FFC0
1FFF8FFFC0
0FFFFFFF80
07FFFFFF00
03FFFFFE00
01FFFFFC00
007FFFF000
001FFFC000
0007FF0000
ENDCHAR
STARTCHAR F0AA
ENCODING 61610
SWIDTH 1002 0
DWIDTH 39 0
BBX 37 37 1 -4
BITMAP
0007FF0000
003FFFE000
00FFFFF000
01FFFFFC00
03FFFFFE00
07FFFFFF00
0FFFFFFF80
1FFF8FFFC0
3FFF07FFC0
3FFE03FFE0
7FFC01FFE0
7FF800FFF0
7FF0007FF0
FFE0003FF8
FFC0001FF8
FF81080FF8
FF030407F8
FE070603F8
FE070703F8
FE0F0783F8
FF1F07C7F8
FFFF07FFF8
FFFF07FFF8
FFFF07FFF8
7FFF07FFF0
7FFF07FFF0
7FFF07FFE0
3FFF07FFE0
3FFF07FFC0
1FFF07FFC0
0FFF8FFF80
07FFFFFF00
03FFFFFE00
01FFFFFC00
007FFFF000
001FFFC000
0007FF0000
ENDCHAR
STARTCHAR F0AB
ENCODING 61611
SWIDTH 1002 0
DWIDTH 39 0
BBX 37 37 1 -4
BITMAP
0007FF0000
003FFFE000
00FFFFF000
01FFFFFC00
03FFFFFE00
07FFFFFF00
0FFF8FFF80
1FFF07FFC0
3FFF07FFC0
3FFF07FFE0
7FFF07FFE0
7FFF07FFF0
7FFF07FFF0
FFFF07FFF8
FFFF07FFF8
FFFF07FFF8
FF1F07C7F8
FE0F0783F8
FE070703F8
FE030603F8
FF010407F8
FF80000FF8
FFC0001FF8
FFE0003FF8
7FF0007FF0
7FF800FFF0
7FFC01FFE0
3FFE03FFE0
3FFF07FFC0
1FFF8FFFC0
0FFFFFFF80
07FFFFFF00
03FFFFFE00
01FFFFFC00
007FFFF000
001FFFC000
0007FF0000
ENDCHAR
STARTCHAR F0AC
ENCODING 61612
SWIDTH 1002 0
DWIDTH 39 0
BBX 37 37 1 -4
BITMAP
0006230000
003C71E000
00F8F9F800
01F8F8FC00
03F1FCFE00
07F1FC7F00
0FF3FE7F80
1FE3FE7FC0
3FE3FE3FC0
3FE7FE3FE0
7FE7FF3FF0
0000000000
0000000000
0000000000
FFC7FF1FF8
FFCFFF1FF8
FFCFFF1FF8
FFCFFF1FF8
FFCFFF1FF8
FFCFFF1FF8
FFCFFF1FF8
FFCFFF1FF8
FFC7FF1FF8
0000000000
0000000000
0000000000
7FE7FF3FE0
3FE7FE3FE0
3FE3FE3FC0
1FF3FE7FC0
0FF3FC7F80
07F1FC7F00
03F9FCFE00
01F8F8FC00
007CF9F000
003C71C000
0006230000
ENDCHAR
STARTCHAR F0AD
ENCODING 61613
SWIDTH 1002 0
DWIDTH 39 0
BBX 37 39 0 -5
BITMAP
0000007E00
000003FF80
000007FFE0
00000FFFF0
00001FFFF8
00003FFFF8
00003FFFF8
00003FF000
00007FE000
00007FE000
00007FC000
00007FC000
00007FE000
00007FE000
00003FF000
0000BFFFF8
0001BFFFF8
0003DFFFF8
0007CFFFF0
000FE7FFE0
001FF9FF80
003FFC7E00
007FFE0000
00FFFC0000
01FFF80000
03FFF00000
07FFE00000
0FFFC00000
0FFF800000
1FFF000000
3FFE000000
79FC000000
F0F8000000
F0F0000000
F9E0000000
FFC0000000
7F80000000
7F00000000
1E00000000
ENDCHAR
STARTCHAR F0AE
ENCODING 61614
SWIDTH 1002 0
DWIDTH 39 0
BBX 39 32 0 0
BITMAP
00F0000000
01F0000000
03F1FFFFFE
67E1FFFFFE
FFC1FFFFFE
7F81FFFFFE
7F01FFFFFE
3E00000000
1C00000000
0000000000
0000000000
0000000000
0060000000
00F0000000
01F1FFFFFE
63E1FFFFFE
F7C1FFFFFE
FF81FFFFFE
7F01FFFFFE
3E00000000
1C00000000
0000000000
0000000000
0000000000
0000000000
1E00000000
3F01FFFFFE
7F01FFFFFE
7F81FFFFFE
7F01FFFFFE
3F01FFFFFE
1E00000000
ENDCHAR
STARTCHAR F0B0
ENCODING 61616
SWIDTH 1002 0
DWIDTH 39 0
BBX 39 39 0 -5
BITMAP
7FFFFFFFFC
FFFFFFFFFE
FFFFFFFFFE
7FFFFFFFFC
3FFFFFFFF8
1FFFFFFFF0
0FFFFFFFE0
07FFFFFFC0
03FFFFFF80
01FFFFFF00
00FFFFFE00
007FFFFC00
003FFFF800
001FFFF000
000FFFE000
0007FFC000
0003FF8000
0001FF0000
0001FF0000
0001FF0000
0001FF0000
0001FF0000
0001FF0000
0001FF0000
0001FF0000
0001FF0000
0001FF0000
0001FF0000
0001FF0000
0001FF0000
0001FF0000
0001FF0000
0001FF0000
0001FF0000
0000FF0000
00007F0000
00003F0000
00000F0000
0000070000
ENDCHAR
STARTCHAR F0B1
ENCODING 61617
SWIDTH 1002 0
DWIDTH 39 0
BBX 39 34 0 -2
BITMAP
000FFFC000
001FFFF000
003FFFF800
003FFFF800
003FFFF800
003E00F800
003E00F800
003E00F800
7FFFFFFFF8
FFFFFFFFFC
FFFFFFFFFE
FFFFFFFFFE
FFFFFFFFFE
FFFFFFFFFE
FFFFFFFFFE
FFFFFFFFFE
FFFFFFFFFE
0000000000
0000000000
0000000000
FFFE00FFFE
FFFE00FFFE
FFFFFFFFFE
FFFFFFFFFE
FFFFFFFFFE
FFFFFFFFFE
FFFFFFFFFE
FFFFFFFFFE
FFFFFFFFFE
FFFFFFFFFE
FFFFFFFFFE
FFFFFFFFFE
FFFFFFFFFC
7FFFFFFFFC
ENDCHAR
STARTCHAR F0B2
ENCODING 61618
SWIDTH 1002 0
DWIDTH 39 0
BBX 39 39 0 -5
BITMAP
0000380000
00007C0000
0000FE0000
0001FF0000
0003FF8000
0007FFC000
000FFFE000
000FFFE000
000FFFE000
0007FFC000
00007C0000
00007C0000
03807C0780
07C07C07C0
0FC07C07E0
1FC07C07F0
3FC07C07F8
7FFFFFFFFC
FFFFFFFFFE
FFFFFFFFFE
FFFFFFFFFE
7FFFFFFFFC
3FC07C07F8
1FC07C07F0
0FC07C07E0
07C07C07C0
03807C0380
00007C0000
00007C0000
000FFFC000
000FFFE000
000FFFE000
000FFFE000
0007FFC000
0003FF8000
0001FF0000
0000FE0000
00007C0000
0000380000
ENDCHAR
STARTCHAR F0C0
ENCODING 61632
SWIDTH 1260 0
DWIDTH 49 0
BBX 49 29 0 0
BITMAP
000007F0000000
00001FF8000000
00003FFC000000
00003FFE000000
00007FFF000000
00007FFF000000
0000FFFF000000
03E0FFFF03C000
07F0FFFF07F000
0FF8FFFF0FF800
0FF87FFF1FF800
1FFC7FFE1FF800
1FFC3FFE1FF800
1FFC1FFC1FF800
0FF80FF81FF800
0FF803E00FF000
07F1F00FC7F000
01C7FFFFE3C000
3E0FFFFFF43E00
7FEFFFFFFBFF00
FFCFFFFFFBFF00
FFCFFFFFFBFF80
FFCFFFFFFBFF80
FFCFFFFFFBFF80
FFCFFFFFFBFF80
FFCFFFFFFBFF00
7FCFFFFFFBFE00
000FFFFFF80000
0007FFFFF00000
ENDCHAR
STARTCHAR F0C1
ENCODING 61633
SWIDTH 1002 0
DWIDTH 39 0
BBX 39 39 0 -5
BITMAP
000000FE00
000003FF80
00000FFFE0
00001FFFF0
00003FFFF8
00007FFFF8
0000FF87FC
0001FF01FC
0003FE00FC
0007FC00FE
000FF8007E
000FF0007E
001FE0007E
001FC700FE
001F8F80FC
001F9FC1FC
031F9FE3FC
071F9FE3F8
0F1F87F3F8
1F9FC7F3F0
3F9FC3F3E0
3F8FF3F1C0
7F8FF3F180
7F07E3F000
FE03E3F000
FC01C7F000
FC000FE000
FC001FE000
FC003FC000
FE007FC000
FE00FF8000
7F01FF0000
7FC7FE0000
3FFFFC0000
3FFFF80000
1FFFF00000
0FFFE00000
03FF800000
007C000000
ENDCHAR
STARTCHAR F0C2
ENCODING 61634
SWIDTH 1260 0
DWIDTH 49 0
BBX 49 34 0 -2
BITMAP
00003800000000
0003FF80000000
0007FFC0000000
001FFFF0000000
003FFFF8000000
003FFFF8F00000
007FFFFFFC0000
00FFFFFFFE0000
00FFFFFFFF0000
00FFFFFFFF8000
01FFFFFFFF8000
01FFFFFFFF8000
01FFFFFFFF8000
03FFFFFFFF8000
07FFFFFFFF8000
1FFFFFFFFFC000
1FFFFFFFFFF000
3FFFFFFFFFF800
7FFFFFFFFFFC00
7FFFFFFFFFFE00
FFFFFFFFFFFF00
FFFFFFFFFFFF00
FFFFFFFFFFFF00
FFFFFFFFFFFF80
FFFFFFFFFFFF80
FFFFFFFFFFFF80
FFFFFFFFFFFF00
7FFFFFFFFFFF00
7FFFFFFFFFFF00
3FFFFFFFFFFE00
3FFFFFFFFFFE00
1FFFFFFFFFFC00
07FFFFFFFFF800
03FFFFFFFFE000
ENDCHAR
STARTCHAR F0C3
ENCODING 61635
SWIDTH 874 0
DWIDTH 34 0
BBX 34 39 0 -5
BITMAP
00FFFFC000
01FFFFE000
01FFFFE000
01FFFFE000
00FFFFC000
003E1F0000
003E1F0000
003E1F0000
003E1F0000
003E1F0000
003E1F0000
003E1F0000
003E1F0000
003E1F0000
003E1F0000
003E1F0000
003E1F0000
007C1F8000
00FC0FC000
00F807C000
01F807E000
03F003F000
03F003F000
07E001F800
07FFFFF800
0FFFFFFC00
1FFFFFFE00
1FFFFFFE00
3FFFFFFF00
7FFFFFFF80
7FFFFFFF80
FFFFFFFFC0
FFFFFFFFC0
FFFFFFFFC0
FFFFFFFFC0
FFFFFFFFC0
7FFFFFFF80
3FFFFFFF00
1FFFFFFE00
ENDCHAR
STARTCHAR F0C4
ENCODING 61636
SWIDTH 874 0
DWIDTH 34 0
BBX 34 34 0 -2
BITMAP
0380000000
1FE0000000
3FF0003F00
7FF8007FC0
7FFC00FFC0
FCFC01FF80
F87C03FF00
F83E07FE00
F83E0FFC00
FC7C1FF800
7FFC3FF000
7FFE7FE000
3FFFFFC000
1FFFFF8000
07FFFF0000
007FFE0000
003FFC0000
001E780000
003FFC0000
007FFE0000
0FFFFF0000
1FFFFF8000
3FFFFFC000
7FFE7FE000
FFFC3FF000
FC7C1FF800
F83E0FFC00
F83E07FE00
F87C03FF00
FEFC01FF80
7FFC00FFC0
7FF8007FC0
3FF0003F00
0FE0000000
ENDCHAR
STARTCHAR F0C5
ENCODING 61637
SWIDTH 874 0
DWIDTH 34 0
BBX 34 39 0 -5
BITMAP
003FFF1000
003FFF1800
003FFF1C00
003FFF1E00
003FFF1F00
003FFF1F80
003FFF1FC0
7E3FFF0000
FE3FFF0000
FE3FFF8000
FE3FFFFFC0
FE3FFFFFC0
FE3FFFFFC0
FE3FFFFFC0
FE3FFFFFC0
FE3FFFFFC0
FE3FFFFFC0
FE3FFFFFC0
FE3FFFFFC0
FE3FFFFFC0
FE3FFFFFC0
FE3FFFFFC0
FE3FFFFFC0
FE3FFFFFC0
FE3FFFFFC0
FE3FFFFFC0
FE3FFFFFC0
FE3FFFFFC0
FE3FFFFFC0
FE3FFFFFC0
FE3FFFFFC0
FF1FFFFF80
FF00000000
FF80000000
FFFFFF0000
FFFFFF0000
FFFFFF0000
FFFFFF0000
7FFFFF0000
ENDCHAR
STARTCHAR F0C6
ENCODING 61638
SWIDTH 874 0
DWIDTH 34 0
BBX 34 39 0 -5
BITMAP
000003F000
000007FC00
00001FFE00
00003FFF00
00007FFF80
0000FE0F80
0001FC0FC0
0003F807C0
0007F007C0
0007E407C0
000FCE07C0
001F9F0FC0
003F3F1F80
007E7F3F80
00FCFE7F00
01F9FCFE00
03F3F9FC00
07E7F3F800
0FEFE7F600
1FDFCFEF00
3FBF9FDF80
7F7F3FBF80
7EFE7F7F00
7CFCFEFE00
F8F9FDFC00
F8FBFBF800
F8FFF7F000
F8FFE7E000
F87FCFC000
F83F9F8000
FC0E3F0000
7C007E0000
7E00FC0000
3F83FC0000
3FFFF80000
1FFFF00000
07FFC00000
03FF800000
007C000000
ENDCHAR
STARTCHAR F0C7
ENCODING 61639
SWIDTH 874 0
DWIDTH 34 0
BBX 34 34 0 -2
BITMAP
1FFFFF8000
7FFFFFE000
FFFFFFF000
FFFFFFF800
FFFFFFFC00
F80000FE00
F80000FF00
F80000FF80
F80000FF80
F80000FFC0
F80000FFC0
F80000FFC0
F80000FFC0
F80000FFC0
F80000FFC0
FFFFFFFFC0
FFFFFFFFC0
FFFFFFFFC0
FFFFFFFFC0
FFFFFFFFC0
FFFE1FFFC0
FFF807FFC0
FFF807FFC0
FFF003FFC0
FFF003FFC0
FFF003FFC0
FFF003FFC0
FFF807FFC0
FFFC0FFFC0
FFFF3FFFC0
FFFFFFFFC0
FFFFFFFFC0
FFFFFFFFC0
7FFFFFFF80
ENDCHAR
STARTCHAR F0C8
ENCODING 61640
SWIDTH 874 0
DWIDTH 34 0
BBX 34 34 0 -2
BITMAP
1FFFFFFE00
7FFFFFFF80
FFFFFFFFC0
FFFFFFFFC0
FFFFFFFFC0
FFFFFFFFC0
FFFFFFFFC0
FFFFFFFFC0
FFFFFFFFC0
FFFFFFFFC0
FFFFFFFFC0
FFFFFFFFC0
FFFFFFFFC0
FFFFFFFFC0
FFFFFFFFC0
FFFFFFFFC0
FFFFFFFFC0
FFFFFFFFC0
FFFFFFFFC0
FFFFFFFFC0
FFFFFFFFC0
FFFFFFFFC0
FFFFFFFFC0
FFFFFFFFC0
FFFFFFFFC0
FFFFFFFFC0
FFFFFFFFC0
FFFFFFFFC0
FFFFFFFFC0
FFFFFFFFC0
FFFFFFFFC0
FFFFFFFFC0
FFFFFFFFC0
7FFFFFFF80
ENDCHAR
STARTCHAR F0C9
ENCODING 61641
SWIDTH 874 0
DWIDTH 34 0
BBX 34 29 0 0
BITMAP
FFFFFFFFC0
FFFFFFFFC0
FFFFFFFFC0
FFFFFFFFC0
FFFFFFFFC0
0000000000
0000000000
0000000000
0000000000
0000000000
0000000000
0000000000
FFFFFFFFC0
FFFFFFFFC0
FFFFFFFFC0
FFFFFFFFC0
FFFFFFFFC0
0000000000
0000000000
0000000000
0000000000
0000000000
0000000000
0000000000
FFFFFFFFC0
FFFFFFFFC0
FFFFFFFFC0
FFFFFFFFC0
FFFFFFFFC0
ENDCHAR
STARTCHAR F0CA
ENCODING 61642
SWIDTH 1002 0
DWIDTH 39 0
BBX 39 31 0 -1
BITMAP
7C00000000
FE3FFFFFFE
FE3FFFFFFE
FE3FFFFFFE
FE3FFFFFFE
7E3FFFFFFE
3800000000
0000000000
0000000000
0000000000
0000000000
0000000000
7C00000000
7E3FFFFFFE
FE3FFFFFFE
FE3FFFFFFE
FE3FFFFFFE
7E3FFFFFFE
3C00000000
0000000000
0000000000
0000000000
0000000000
0000000000
3C00000000
7E3FFFFFFE
FE3FFFFFFE
FE3FFFFFFE
FE3FFFFFFE
FE3FFFFFFE
7C00000000
ENDCHAR
STARTCHAR F0CB
ENCODING 61643
SWIDTH 1002 0
DWIDTH 39 0
BBX 39 34 0 -2
BITMAP
1800000000
7800000000
F800000000
F83FFFFFFE
383FFFFFFE
383FFFFFFE
383FFFFFFE
383FFFFFFE
FE00000000
FE00000000
0000000000
0000000000
0000000000
7C00000000
FE00000000
6E3FFFFFFE
0E3FFFFFFE
3C3FFFFFFE
783FFFFFFE
F03FFFFFFE
FE00000000
FE00000000
0000000000
0000000000
0000000000
FE00000000
FC00000000
1C3FFFFFFE
383FFFFFFE
3E3FFFFFFE
1E3FFFFFFE
4E3FFFFFFE
FE00000000
FC00000000
ENDCHAR
STARTCHAR F0CC
ENCODING 61644
SWIDTH 1002 0
DWIDTH 39 0
BBX 39 35 0 -3
BITMAP
0001FF0000
0007FFE000
001FFFF800
003FFFFC00
007FFFFC00
007FFFFC00
007F01FC00
00FE00FC00
00FE007C00
00FE003C00
00FE000000
00FE000000
007F800000
007FC00000
0000000000
FFFFFFFFFE
FFFFFFFFFE
FFFFFFFFFE
FFFFFFFFFE
FFFFFFFFFE
0000000000
000003FE00
000000FE00
000000FE00
0000007E00
00F8007E00
01F8007E00
01FC00FE00
00FE01FE00
00FFFFFC00
00FFFFFC00
007FFFF800
003FFFF000
000FFFC000
0003FF0000
ENDCHAR
STARTCHAR F0CD
ENCODING 61645
SWIDTH 874 0
DWIDTH 34 0
BBX 34 39 0 -5
BITMAP
3FFC0FFF00
3FFE1FFF00
3FFE1FFF00
3FFE1FFF00
3FFC0FFF00
07E001F800
07E001F800
07E001F800
07E001F800
07E001F800
07E001F800
07E001F800
07E001F800
07E001F800
07E001F800
07E001F800
07E001F800
07E001F800
07E001F800
07E001F800
07F003F800
03F003F000
03F807F000
03FC0FF000
01FFFFE000
01FFFFE000
00FFFFC000
003FFF0000
000FFE0000
0000000000
0000000000
0000000000
0000000000
0000000000
FFFFFFFFC0
FFFFFFFFC0
FFFFFFFFC0
FFFFFFFFC0
FFFFFFFFC0
ENDCHAR
STARTCHAR F0CE
ENCODING 61646
SWIDTH 1002 0
DWIDTH 39 0
BBX 39 34 0 -2
BITMAP
1FFFFFFFF0
7FFFFFFFFC
FFFFFFFFFE
FFFFFFFFFE
FFFFFFFFFE
FFFFFFFFFE
FFFFFFFFFE
FFFFFFFFFE
FFFFFFFFFE
FFFFFFFFFE
F8007C003E
F8007C003E
F8007C003E
F8007C003E
F8007C003E
F8007C003E
F8007C003E
FFFFFFFFFE
FFFFFFFFFE
FFFFFFFFFE
FFFFFFFFFE
FFFFFFFFFE
F8007C003E
F8007C003E
F8007C003E
F8007C003E
F8007C003E
F8007C003E
F8007C003E
F8007C003E
FFFFFFFFFE
FFFFFFFFFE
FFFFFFFFFE
7FFFFFFFFC
ENDCHAR
STARTCHAR F0D0
ENCODING 61648
SWIDTH 1002 0
DWIDTH 39 0
BBX 39 39 0 -5
BITMAP
0000000600
1000200F00
1000601F80
3C30F03FC0
3830707FE0
29FE50FFF0
00FC01F9F8
007803F0FC
007807E07E
00080FC07E
00001F80FC
00003F01F8
00007F03F0
0000FF87E0
0001FFCFC0
0003FFFF80
0007FFFF00
000FFFFE00
001FFFFC10
003FFFF830
007FFFF078
00FFFFE038
01FFFFC028
03FFFF8000
07FFFF0000
0FFFFE0000
1FFFFC0000
3FFFF80000
7FFFF00000
FFFFE00000
FFFFC00000
7FFF800000
3FFF000000
1FFE000000
0FFC000000
07F8000000
03F0000000
01E0000000
00C0000000
ENDCHAR
STARTCHAR F0D1
ENCODING 61649
SWIDTH 1260 0
DWIDTH 49 0
BBX 49 39 0 -5
BITMAP
00001FFFFFFE00
00003FFFFFFF00
00007FFFFFFF00
00007FFFFFFF80
00007FFFFFFF80
00007FFFFFFF80
00007FFFFFFF80
000FFFFFFFFF80
001FFFFFFFFF80
003FFFFFFFFF80
007FFFFFFFFF80
00F87FFFFFFF80
01F07FFFFFFF80
03E07FFFFFFF80
07C07FFFFFFF80
0F807FFFFFFF80
1F007FFFFFFF80
1E007FFFFFFF80
3C007FFFFFFF80
3FFFFFFFFFFF80
3FFFFFFFFFFF80
3FFFFFFFFFFF80
3FFFFFFFFFFF80
3FFFFFFFFFFF80
3FFFFFFFFFFF80
3FFFFFFFFFFF80
3FFFFFFFFFFF80
FFFFFFFFFFFF80
FFC3FFFFE3FF80
FF81FFFF81FF80
FF80FFFF80FF00
7F80FFFF80FE00
0780E00780F000
0781E00780E000
07C3E003C1E000
03FFC003FFE000
01FFC001FFC000
00FF8000FF8000
003C00003E0000
ENDCHAR
STARTCHAR F0D7
ENCODING 61655
SWIDTH 617 0
DWIDTH 24 0
BBX 22 12 1 7
BITMAP
FFFFFC
FFFFFC
7FFFFC
3FFFF8
1FFFF0
0FFFE0
07FFC0
03FF80
01FF00
00FE00
007C00
003800
ENDCHAR
STARTCHAR F0D8
ENCODING 61656
SWIDTH 617 0
DWIDTH 24 0
BBX 22 13 1 7
BITMAP
003000
007800
00FC00
01FE00
03FF00
07FF80
0FFFC0
1FFFE0
3FFFF0
7FFFF8
FFFFFC
FFFFFC
7FFFFC
ENDCHAR
STARTCHAR F0D9
ENCODING 61657
SWIDTH 385 0
DWIDTH 15 0
BBX 13 23 2 3
BITMAP
0030
0078
00F8
01F8
03F8
07F8
0FF8
1FF8
3FF8
7FF8
FFF8
FFF8
FFF8
7FF8
3FF8
1FF8
0FF8
07F8
03F8
01F8
00F8
0078
0030
ENDCHAR
STARTCHAR F0DA
ENCODING 61658
SWIDTH 385 0
DWIDTH 15 0
BBX 13 23 0 3
BITMAP
E000
F000
F800
FC00
FE00
FF00
FF80
FFC0
FFE0
FFF0
FFF0
FFF8
FFF0
FFE0
FFC0
FF80
FF00
FE00
FC00
F800
F000
E000
4000
ENDCHAR
STARTCHAR F0DB
ENCODING 61659
SWIDTH 1002 0
DWIDTH 39 0
BBX 39 34 0 -2
BITMAP
1FFFFFFFF0
7FFFFFFFFC
FFFFFFFFFE
FFFFFFFFFE
FFFFFFFFFE
FFFFFFFFFE
FFFFFFFFFE
FFFFFFFFFE
FFFFFFFFFE
FFFFFFFFFE
F8007C003E
F8007C003E
F8007C003E
F8007C003E
F8007C003E
F8007C003E
F8007C003E
F8007C003E
F8007C003E
F8007C003E
F8007C003E
F8007C003E
F8007C003E
F8007C003E
F8007C003E
F8007C003E
F8007C003E
F8007C003E
F8007C003E
F8007C003E
FFFFFFFFFE
FFFFFFFFFE
FFFFFFFFFE
7FFFFFFFFC
ENDCHAR
STARTCHAR F0DC
ENCODING 61660
SWIDTH 617 0
DWIDTH 24 0
BBX 22 31 1 -1
BITMAP
003000
007800
00FC00
01FE00
03FF00
07FF80
0FFFC0
1FFFE0
3FFFF0
7FFFF8
FFFFFC
FFFFFC
7FFFF8
000000
000000
000000
000000
000000
7FFFFC
FFFFFC
FFFFFC
7FFFF8
3FFFF0
1FFFE0
0FFFC0
07FF80
03FF00
01FE00
00FC00
007800
001000
ENDCHAR
STARTCHAR F0DD
ENCODING 61661
SWIDTH 617 0
DWIDTH 24 0
BBX 22 13 1 -1
BITMAP
7FFFFC
FFFFFC
FFFFFC
7FFFF8
3FFFF0
1FFFE0
0FFFC0
07FF80
03FF00
01FE00
00FC00
007800
001000
ENDCHAR
STARTCHAR F0DE
ENCODING 61662
SWIDTH 617 0
DWIDTH 24 0
BBX 22 13 1 17
BITMAP
003000
007800
00FC00
01FE00
03FF00
07FF80
0FFFC0
1FFFE0
3FFFF0
7FFFF8
FFFFFC
FFFFFC
7FFFF8
ENDCHAR
STARTCHAR F0E0
ENCODING 61664
SWIDTH 1002 0
DWIDTH 39 0
BBX 39 29 0 0
BITMAP
3FFFFFFFF8
7FFFFFFFFC
FFFFFFFFFE
FFFFFFFFFE
FFFFFFFFFE
FFFFFFFFFE
7FFFFFFFFC
3FFFFFFFF8
1FFFFFFFE0
87FFFFFFC2
C3FFFFFF86
E1FFFFFE1E
F87FFFFC3E
FC3FFFF87E
FF0FFFE1FE
FF87FFC3FE
FFC3FF87FE
FFF0FE1FFE
FFF87C3FFE
FFFC007FFE
FFFF01FFFE
FFFFC7FFFE
FFFFFFFFFE
FFFFFFFFFE
FFFFFFFFFE
FFFFFFFFFE
FFFFFFFFFE
7FFFFFFFFC
3FFFFFFFF8
ENDCHAR
STARTCHAR F0E2
ENCODING 61666
SWIDTH 1002 0
DWIDTH 39 0
BBX 38 38 0 -4
BITMAP
F800000000
F803FF8000
F81FFFF000
F87FFFFC00
F8FFFFFE00
F9FFFFFF00
FBFF01FF80
FFF8003FC0
FFF0001FE0
FFE0000FE0
FFC00007F0
FF800003F8
FFFF8001F8
FFFF8001F8
FFFF8000FC
FFFF8000FC
FFFF8000FC
000000007C
000000007C
000000007C
000000007C
000000007C
00000000FC
00000000FC
00000000FC
00000001F8
00000001F8
00000003F0
00000007F0
0060000FE0
00F0001FE0
01FC007FC0
01FF83FF80
01FFFFFF00
00FFFFFE00
003FFFF800
000FFFE000
0003FF8000
ENDCHAR
STARTCHAR F0E3
ENCODING 61667
SWIDTH 1002 0
DWIDTH 39 0
BBX 39 39 0 -5
BITMAP
0000070000
00000F8000
00001FC000
00003FC000
00007FC000
0000FF8000
0001FFC000
0003FFE000
0007FFF000
000FFFF800
001FFFFC00
001FFFFE00
000FFFFF00
0007FFFFB8
00037FFFFC
00003FFFFE
00001FFFFE
00001FFFFC
00003FFFFC
00007FFFF8
0000F9FFF0
0001F0FFE0
007BE07FC0
00FFC0FF80
01FF80FF00
03FF007E00
07FF803C00
0FFF801800
1FFF800000
3FFF000000
7FFE000000
FFFC000000
FFF8000000
FFF0000000
FFE0000000
7FC0000000
3F80000000
1F00000000
0600000000
ENDCHAR
STARTCHAR F0E7
ENCODING 61671
SWIDTH 617 0
DWIDTH 24 0
BBX 24 39 0 -5
BITMAP
1FFF00
3FFF00
3FFF00
3FFF00
3FFF00
3FFE00
3FFE00
3FFE00
7FFE00
7FFC00
7FFC00
7FFC00
7FFFFF
7FFFFF
7FFFFF
7FFFFF
FFFFFE
FFFFFE
FFFFFC
FFFFF8
FFFFF8
7FFFF0
001FF0
003FE0
003FE0
003FC0
003F80
003F80
007F00
007F00
007E00
007C00
00FC00
00F800
00F800
00F000
01F000
01E000
00C000
ENDCHAR
STARTCHAR F0E8
ENCODING 61672
SWIDTH 1260 0
DWIDTH 49 0
BBX 49 39 0 -5
BITMAP
00003FFE000000
00007FFF000000
00007FFF000000
00007FFF000000
00007FFF000000
00007FFF000000
00007FFF000000
00007FFF000000
00007FFF000000
00007FFF000000
00007FFF000000
00007FFF000000
00007FFF000000
00007FFE000000
00003FFC000000
000003C0000000
000003C0000000
000003C0000000
03FFFFFFFFC000
03FFFFFFFFE000
07FFFFFFFFE000
078003C001E000
078003C001E000
078003C001E000
7FFC3FFE1FFF00
FFFC7FFE3FFF80
FFFE7FFF3FFF80
FFFE7FFF3FFF80
FFFE7FFF3FFF80
FFFE7FFF3FFF80
FFFE7FFF3FFF80
FFFE7FFF3FFF80
FFFE7FFF3FFF80
FFFE7FFF3FFF80
FFFE7FFF3FFF80
FFFE7FFF3FFF80
FFFE7FFF3FFF80
FFFE7FFF3FFF80
7FFC3FFE1FFF00
ENDCHAR
STARTCHAR F0E9
ENCODING 61673
SWIDTH 1131 0
DWIDTH 44 0
BBX 44 39 0 -5
BITMAP
00000E000000
00000F000000
00001F000000
00001F000000
000000000000
0000FFE00000
0007FFFE0000
003FFFFF8000
00FFFFFFE000
01FFFFFFF800
03FFFFFFFC00
07FFFFFFFE00
0FFFFFFFFF00
1FFFFFFFFF80
3FFFFFFFFFC0
3FFFFFFFFFC0
7FFFFFFFFFE0
7FFFFFFFFFE0
F07FE0FFE0E0
E01FCF3F8070
000F9F1F0000
00071F0E0000
00061F040000
00001F000000
00001F000000
00001F000000
00001F000000
00001F000000
00001F000000
00181F000000
003C1F000000
003E1F000000
003E1F000000
003F3F000000
003FFF000000
001FFE000000
000FFC000000
0007F8000000
0001E0000000
ENDCHAR
STARTCHAR F0EA
ENCODING 61674
SWIDTH 874 0
DWIDTH 34 0
BBX 34 39 0 -5
BITMAP
003C000000
007F000000
7FFFFE0000
FFE7FF0000
FFC3FF0000
FFC3FF0000
FFE7FF0000
FFFFFF0000
FFFFFF0000
FFFFFF0000
FFE0000000
FFC0000000
FFC7FF1000
FFCFFF1800
FFCFFF1C00
FFCFFF1E00
FFCFFF1F00
FFCFFF1F80
FFCFFF1FC0
FFCFFF0000
FFCFFF0000
FFCFFF8000
FFCFFFFFC0
FFCFFFFFC0
FFCFFFFFC0
FFCFFFFFC0
FFCFFFFFC0
FFCFFFFFC0
FFCFFFFFC0
FFCFFFFFC0
FFCFFFFFC0
7FCFFFFFC0
000FFFFFC0
000FFFFFC0
000FFFFFC0
000FFFFFC0
000FFFFFC0
000FFFFFC0
0007FFFF80
ENDCHAR
STARTCHAR F0EB
ENCODING 61675
SWIDTH 745 0
DWIDTH 29 0
BBX 27 39 1 -5
BITMAP
003F8000
01FFF000
03FFF800
0FFFFE00
1FFFFF00
1FC1FF00
3F81FF80
7E0FFFC0
7E3FFFC0
7C7FFFC0
FCFFFFE0
F8FFFFE0
F8FFFFE0
F9FFFFE0
FDFFFFE0
FFFFFFE0
FFFFFFE0
7FFFFFC0
7FFFFFC0
3FFFFF80
3FFFFF80
1FFFFF00
0FFFFE00
07FFFC00
07FFFC00
03FFF800
03FFF800
01FFF000
01FFF000
00000000
00000000
00000000
01FFF000
01FFF000
01FFF000
00FFE000
007FC000
007FC000
007FC000
ENDCHAR
STARTCHAR F0F0
ENCODING 61680
SWIDTH 874 0
DWIDTH 34 0
BBX 34 39 0 -5
BITMAP
0003F00000
000FFC0000
003FFF0000
007FFF8000
00FFFFC000
00FFFFC000
01FFFFE000
01FFFFE000
01FFFFE000
03FFFFF000
03FFFFF000
03FFFFF000
01FFFFE000
01FFFFE000
01FFFFE000
00FFFFC000
00FFFFC000
007FFF8000
003FFF0000
001FFE0000
0007F80000
0000000000
0E30031C00
1E3FFF1E00
3E3FFF1F00
7E3FFC0780
FE3FF803C0
FC1FF1F1C0
F80FF3F9C0
F1C7E3F8C0
F3E7E3F8C0
F3E7E3F8C0
F3E7E3F8C0
F1C7E3F8C0
F80FE0E0C0
FC1FF0E1C0
FFFFFFFFC0
7FFFFFFF80
3FFFFFFF00
ENDCHAR
STARTCHAR F0F1
ENCODING 61681
SWIDTH 1002 0
DWIDTH 39 0
BBX 39 39 0 -5
BITMAP
0F00780000
7F00FF0000
FF80FF0000
FF80FF0000
FF00FF0000
F8001F0000
F8001F0000
F8001F0000
F8001F0040
F8001F01F8
F8001F03FC
F8001F03FE
F8001F079E
F8001F079E
F8001F07FE
F8001F03FC
F8001F03FC
F8001F00F8
7C003F00F0
7E007E00F0
3F00FE00F0
3FC3FC00F0
1FFFF800F0
0FFFF000F0
07FFE000F0
01FFC000F0
003E0000F0
003E0001F0
003E0001F0
003E0001F0
003F0003F0
001F8007E0
001FC00FE0
000FF03FC0
0007FFFF80
0003FFFF00
0001FFFE00
00007FF800
00000FC000
ENDCHAR
STARTCHAR F0F2
ENCODING 61682
SWIDTH 1002 0
DWIDTH 39 0
BBX 39 34 0 -2
BITMAP
000FFFC000
001FFFF000
003FFFF800
003FFFF800
003FFFF800
003E00F800
003E00F800
003E00F800
79FFFFFF38
F9FFFFFF3C
F9FFFFFF3E
F9FFFFFF3E
F9FFFFFF3E
F9FFFFFF3E
F9FFFFFF3E
F9FFFFFF3E
F9FFFFFF3E
F9FFFFFF3E
F9FFFFFF3E
F9FFFFFF3E
F9FFFFFF3E
F9FFFFFF3E
F9FFFFFF3E
F9FFFFFF3E
F9FFFFFF3E
F9FFFFFF3E
F9FFFFFF3E
F9FFFFFF3E
F9FFFFFF3E
F9FFFFFF3E
F9FFFFFF3E
F9FFFFFF3E
F9FFFFFF3C
79FFFFFF3C
ENDCHAR
STARTCHAR F0F3
ENCODING 61683
SWIDTH 874 0
DWIDTH 34 0
BBX 34 39 0 -5
BITMAP
0000C00000
0001E00000
0001E00000
0001E00000
000FFC0000
003FFF0000
007FFF8000
00FFFFC000
01FFFFE000
01FFFFE000
03FFFFF000
03FFFFF000
07FFFFF800
07FFFFF800
07FFFFF800
07FFFFF800
07FFFFF800
07FFFFF800
07FFFFF800
07FFFFF800
07FFFFF800
0FFFFFFC00
0FFFFFFC00
0FFFFFFC00
1FFFFFFE00
1FFFFFFE00
3FFFFFFF00
7FFFFFFF80
7FFFFFFFC0
FFFFFFFFC0
FFFFFFFFC0
FFFFFFFFC0
7FFFFFFF80
3FFFFFFF00
000DFC0000
000CFC0000
0006380000
0003F00000
0001E00000
ENDCHAR
STARTCHAR F0F4
ENCODING 61684
SWIDTH 1260 0
DWIDTH 49 0
BBX 49 34 0 -2
BITMAP
007FFFFFFF0000
01FFFFFFFFE000
01FFFFFFFFF800
01FFFFFFFFFC00
01FFFFFFFFFE00
01FFFFFFF0FE00
01FFFFFFF03F00
01FFFFFFF01F00
01FFFFFFF01F00
01FFFFFFF00F80
01FFFFFFF00F80
01FFFFFFF00F80
01FFFFFFF01F00
01FFFFFFF03F00
01FFFFFFF07F00
01FFFFFFFFFE00
01FFFFFFFFFC00
01FFFFFFFFF800
01FFFFFFFFF000
01FFFFFFFFC000
01FFFFFFF00000
01FFFFFFF00000
00FFFFFFF00000
00FFFFFFE00000
007FFFFFE00000
003FFFFFC00000
001FFFFF000000
00000000000000
00000000000000
00000000000000
FFFFFFFFFFFC00
FFFFFFFFFFFC00
FFFFFFFFFFFC00
7FFFFFFFFFF800
ENDCHAR
STARTCHAR F0F8
ENCODING 61688
SWIDTH 874 0
DWIDTH 34 0
BBX 34 39 0 -5
BITMAP
001FFE0000
001FFE0000
001F3E0000
001F3E0000
001F3E0000
0018060000
0018060000
1FFF3FFE00
3FFF3FFE00
3FFF3FFF00
3FFFFFFF00
3FFFFFFF00
3FFFFFFF00
3FFFFFFF00
3FFFFFFF00
3FC1E0FF00
3FC1E0FF00
3FC1E0FF00
3FC1E0FF00
3FFFFFFF00
3FFFFFFF00
3FFFFFFF00
3FC1F0FF00
3FC1E0FF00
3FC1E0FF00
3FC1E0FF00
3FC3F0FF00
3FFFFFFF00
3FFFFFFF00
3FFE1FFF00
3FFE1FFF00
3FFE1FFF00
3FFE1FFF00
3FFE1FFF00
3FFE1FFF00
3FFE1FFF00
7FFFFFFF80
FFFFFFFFC0
FFFFFFFFC0
ENDCHAR
STARTCHAR F0F9
ENCODING 61689
SWIDTH 1260 0
DWIDTH 49 0
BBX 49 39 0 -5
BITMAP
00001FFFFFFE00
00003FFFFFFF00
00007FFFFFFF00
00007FFFFFFF80
00007FFFFFFF80
00007FFFFFFF80
00007FFFFFFF80
000FFFFC7FFF80
001FFFF83FFF80
003FFFF83FFF80
007FFFF83FFF80
00F87FF83FFF80
01F07F8003FF80
03E07F0001FF80
07C07F0001FF80
0F807F0001FF80
1F007F8003FF80
1E007FF83FFF80
3C007FF83FFF80
3FFFFFF83FFF80
3FFFFFF83FFF80
3FFFFFFC3FFF80
3FFFFFFFFFFF80
3FFFFFFFFFFF80
3FFFFFFFFFFF80
3FFFFFFFFFFF80
3FFFFFFFFFFF80
FFFFFFFFFFFF80
FFC3FFFFE3FF80
FF81FFFF81FF80
FF80FFFF80FF00
7F80FFFF80FE00
0780E00780F000
0781E00780E000
07C3E003C1E000
03FFC003FFE000
01FFC001FFC000
00FF8000FF8000
003C00003E0000
ENDCHAR
STARTCHAR F0FA
ENCODING 61690
SWIDTH 1002 0
DWIDTH 39 0
BBX 39 34 0 -2
BITMAP
000FFFC000
001FFFF000
003FFFF800
003FFFF800
003FFFF800
003E00F800
003E00F800
003E00F800
79FFFFFF38
F9FFFFFF3C
F9FFFFFF3E
F9FFFFFF3E
F9FFFFFF3E
F9FF83FF3E
F9FF83FF3E
F9FF83FF3E
F9FF83FF3E
F9F8003F3E
F9F0001F3E
F9F0001F3E
F9F0001F3E
F9F0001F3E
F9FF83FF3E
F9FF83FF3E
F9FF83FF3E
F9FF83FF3E
F9FF83FF3E
F9FFFFFF3E
F9FFFFFF3E
F9FFFFFF3E
F9FFFFFF3E
F9FFFFFF3E
F9FFFFFF3C
79FFFFFF3C
ENDCHAR
STARTCHAR F0FB
ENCODING 61691
SWIDTH 1260 0
DWIDTH 49 0
BBX 49 34 0 -2
BITMAP
000FF800000000
00078000000000
0007C000000000
0007E000000000
0007F000000000
0007F800000000
0007F800000000
0007FC00000000
7807FE00000000
7C07FF00000000
7C07FF80000000
7E07FF80000000
7F07FFC0000000
7F87FFFE000000
7FFFFFFFF80000
1FFFFFFFFFF000
FFFFFFFFFFFE00
FFFFFFFFFFFF80
FFFFFFFFFFFE00
0FFFFFFFFFE000
7FFFFFFFF00000
7F87FFFC000000
7F07FFC0000000
7E07FF80000000
7C07FF00000000
7807FF00000000
7807FE00000000
0007FC00000000
0007F800000000
0007F000000000
0007F000000000
0007E000000000
0007C000000000
000FF800000000
ENDCHAR
STARTCHAR F0FC
ENCODING 61692
SWIDTH 874 0
DWIDTH 34 0
BBX 34 34 0 -2
BITMAP
7FFFFE0000
FFFFFF0000
FFFFFF0000
FFFFFF0000
FFFFFF0000
FFFFFFFC00
FFFFFFFF00
FFFFFFFF80
FE3E7FFF80
FE3E7FFFC0
FE3E7F07C0
FE3E7F07C0
FE3E7F07C0
FE3E7F07C0
FE3E7F07C0
FE3E7F07C0
FE3E7F07C0
FE3E7F07C0
FE3E7F07C0
FE3E7F07C0
FE3E7F07C0
FE3E7F07C0
FE3E7F0FC0
FE3E7F3FC0
FE3E7FFF80
FE3E7FFF00
FE3E7FFE00
FFFFFFF800
FFFFFFC000
FFFFFF0000
FFFFFF0000
FFFFFF0000
FFFFFF0000
FFFFFF0000
ENDCHAR
STARTCHAR F0FD
ENCODING 61693
SWIDTH 874 0
DWIDTH 34 0
BBX 34 34 0 -2
BITMAP
1FFFFFFE00
7FFFFFFF80
FFFFFFFFC0
FFFFFFFFC0
FFFFFFFFC0
FFFFFFFFC0
FFFFFFFFC0
FFFFFFFFC0
FE0FFC1FC0
FE0FFC1FC0
FE0FFC1FC0
FE0FFC1FC0
FE0FFC1FC0
FE0FFC1FC0
FE0FFC1FC0
FE00001FC0
FE00001FC0
FE00001FC0
FE00001FC0
FE00001FC0
FE0FFC1FC0
FE0FFC1FC0
FE0FFC1FC0
FE0FFC1FC0
FE0FFC1FC0
FE0FFC1FC0
FE0FFC1FC0
FFFFFFFFC0
FFFFFFFFC0
FFFFFFFFC0
FFFFFFFFC0
FFFFFFFFC0
FFFFFFFFC0
7FFFFFFF80
ENDCHAR
STARTCHAR F0FE
ENCODING 61694
SWIDTH 874 0
DWIDTH 34 0
BBX 34 34 0 -2
BITMAP
1FFFFFFE00
7FFFFFFF80
FFFFFFFFC0
FFFFFFFFC0
FFFFFFFFC0
FFFFFFFFC0
FFFE1FFFC0
FFFC0FFFC0
FFFC0FFFC0
FFFC0FFFC0
FFFC0FFFC0
FFFC0FFFC0
FFFC0FFFC0
FFFC0FFFC0
FE00001FC0
FC00000FC0
FC00000FC0
FC00000FC0
FC00000FC0
FC00000FC0
FFFC0FFFC0
FFFC0FFFC0
FFFC0FFFC0
FFFC0FFFC0
FFFC0FFFC0
FFFC0FFFC0
FFFC0FFFC0
FFFC0FFFC0
FFFFFFFFC0
FFFFFFFFC0
FFFFFFFFC0
FFFFFFFFC0
FFFFFFFFC0
7FFFFFFF80
ENDCHAR
STARTCHAR F100
ENCODING 61696
SWIDTH 874 0
DWIDTH 34 0
BBX 30 25 2 2
BITMAP
00180020
003C0078
007E00FC
00FF01FC
01FE03FC
03FE07F8
07FC0FF0
0FF81FE0
1FF03FC0
3FE07F80
7FC0FF00
FF81FE00
FF03FC00
FF81FE00
7FC0FF00
3FE07F80
1FF03FC0
0FF81FE0
07FC0FF0
03FE07F8
01FE03FC
00FE01FC
007E00F8
003C0070
00180020
ENDCHAR
STARTCHAR F101
ENCODING 61697
SWIDTH 874 0
DWIDTH 34 0
BBX 30 25 2 2
BITMAP
30006000
7800F000
FC01F800
FE03FC00
FF01FE00
7F81FF00
3FC0FF80
1FE07FC0
0FF03FE0
07F81FF0
03FC0FF8
01FE07FC
00FF03FC
01FE07FC
03FC0FF8
07F81FF0
0FF03FE0
1FE07FC0
3FC0FF80
7F81FF00
FF01FE00
FE01FC00
7C01F800
3800F000
10004000
ENDCHAR
STARTCHAR F102
ENCODING 61698
SWIDTH 617 0
DWIDTH 24 0
BBX 24 31 0 -1
BITMAP
001800
003C00
007E00
00FF00
01FF80
03FFC0
07FFE0
0FFFF0
1FF7F8
3FE3FC
7FC1FE
FF80FF
FF007F
FE003F
7C001E
381C0C
003E00
007F00
00FF80
01FFC0
03FFE0
07FFF0
0FFFF8
1FE7FC
3FC3FE
7F81FF
FF00FF
FE007F
7C003F
38001E
100008
ENDCHAR
STARTCHAR F103
ENCODING 61699
SWIDTH 617 0
DWIDTH 24 0
BBX 24 31 0 -1
BITMAP
10000C
3C001E
7E003F
FF007F
FF80FF
7FC1FE
3FE3FC
1FF7F8
0FFFF0
07FFE0
03FFC0
01FF80
00FF00
007E00
003C00
38181C
7C003E
FE007F
FF00FF
FF81FF
7FC3FE
3FE7FC
1FFFF8
0FFFF0
07FFE0
03FFC0
01FF80
00FF00
007E00
003C00
000800
ENDCHAR
STARTCHAR F104
ENCODING 61700
SWIDTH 488 0
DWIDTH 19 0
BBX 15 25 2 2
BITMAP
0018
003C
007E
00FE
01FE
03FE
07FC
0FF8
1FF0
3FE0
7FC0
FF80
FF00
FF80
7FC0
3FE0
1FF0
0FF8
07FC
03FE
01FE
00FE
007E
003C
0008
ENDCHAR
STARTCHAR F105
ENCODING 61701
SWIDTH 488 0
DWIDTH 19 0
BBX 16 25 2 2
BITMAP
3000
7800
FC00
FE00
FF00
7F80
3FC0
1FE0
0FF0
07F8
03FC
01FE
00FF
01FE
03FC
07F8
0FF0
1FE0
3FC0
7F80
FF00
FE00
7C00
3800
1000
ENDCHAR
STARTCHAR F106
ENCODING 61702
SWIDTH 617 0
DWIDTH 24 0
BBX 24 15 0 7
BITMAP
003C00
007E00
00FF00
01FF80
03FFC0
07FFE0
0FFFF0
1FFFF8
3FE7FC
7FC3FE
FF81FF
FF00FF
FE007F
7C003E
38001C
ENDCHAR
STARTCHAR F107
ENCODING 61703
SWIDTH 617 0
DWIDTH 24 0
BBX 24 15 0 7
BITMAP
38001C
7C003E
FE007F
FF00FF
7F81FF
3FC3FE
1FE7FC
0FFFF8
07FFF0
03FFE0
01FFC0
00FF80
007F00
003E00
001C00
ENDCHAR
STARTCHAR F108
ENCODING 61704
SWIDTH 1131 0
DWIDTH 44 0
BBX 44 39 0 -5
BITMAP
3FFFFFFFFFC0
7FFFFFFFFFE0
FFFFFFFFFFF0
FFFFFFFFFFF0
FFFFFFFFFFF0
F800000001F0
F800000001F0
F800000001F0
F800000001F0
F800000001F0
F800000001F0
F800000001F0
F800000001F0
F800000001F0
F800000001F0
F800000001F0
F800000001F0
F800000001F0
F800000001F0
F800000001F0
F800000001F0
F800000001F0
F800000001F0
F800000001F0
F800000001F0
F800000001F0
F800000001F0
FFFFFFFFFFF0
FFFFFFFFFFF0
FFFFFFFFFFE0
7FFFFFFFFFE0
1FFFFFFFFF80
00003FC00000
00003FC00000
00007FC00000
001FFFFF8000
003FFFFFC000
003FFFFFC000
003FFFFF8000
ENDCHAR
STARTCHAR F109
ENCODING 61705
SWIDTH 1260 0
DWIDTH 49 0
BBX 49 39 0 -5
BITMAP
01FFFFFFFFC000
03FFFFFFFFE000
07FFFFFFFFF000
07FFFFFFFFF000
07FFFFFFFFF000
07C0000001F000
07C0000001F000
07C0000001F000
07C0000001F000
07C0000001F000
07C0000001F000
07C0000001F000
07C0000001F000
07C0000001F000
07C0000001F000
07C0000001F000
07C0000001F000
07C0000001F000
07C0000001F000
07C0000001F000
07C0000001F000
07C0000001F000
07C0000001F000
07C0000001F000
07FFFFFFFFF000
07FFFFFFFFF000
07FFFFFFFFF000
07FFFFFFFFE000
03FFFFFFFFC000
00000000000000
00000000000000
00000000000000
FFFFF007FFFF80
FFFFF00FFFFF80
FFFFFFFFFFFF80
FFFFFFFFFFFF80
FFFFFFFFFFFF00
7FFFFFFFFFFF00
3FFFFFFFFFFE00
ENDCHAR
STARTCHAR F10A
ENCODING 61706
SWIDTH 874 0
DWIDTH 34 0
BBX 34 39 0 -5
BITMAP
3FFFFFFF00
7FFFFFFF80
FFFFFFFFC0
FFFFFFFFC0
FFFFFFFFC0
FFFFFFFFC0
FFFFFFFFC0
FFFFFFFFC0
FFFFFFFFC0
FFFFFFFFC0
FFFFFFFFC0
FFFFFFFFC0
FFFFFFFFC0
FFFFFFFFC0
FFFFFFFFC0
FFFFFFFFC0
FFFFFFFFC0
FFFFFFFFC0
FFFFFFFFC0
FFFFFFFFC0
FFFFFFFFC0
FFFFFFFFC0
FFFFFFFFC0
FFFFFFFFC0
FFFFFFFFC0
FFFFFFFFC0
FFFFFFFFC0
FFFFFFFFC0
FFFFFFFFC0
FFFFFFFFC0
FFFFFFFFC0
FFFFFFFFC0
FFFE1FFFC0
FFFE1FFFC0
FFFE1FFFC0
FFFE1FFFC0
FFFFFFFFC0
7FFFFFFF80
3FFFFFFF00
ENDCHAR
STARTCHAR F10B
ENCODING 61707
SWIDTH 617 0
DWIDTH 24 0
BBX 24 39 0 -5
BITMAP
3FFFFE
7FFFFF
FFFFFF
FFFFFF
FFFFFF
FFFFFF
FFFFFF
FFFFFF
FFFFFF
FFFFFF
FFFFFF
FFFFFF
FFFFFF
FFFFFF
FFFFFF
FFFFFF
FFFFFF
FFFFFF
FFFFFF
FFFFFF
FFFFFF
FFFFFF
FFFFFF
FFFFFF
FFFFFF
FFFFFF
FFFFFF
FFFFFF
FFFFFF
FFFFFF
FFFFFF
FFFFFF
FFC3FF
FFC1FF
FFC1FF
FFC3FF
FFFFFF
7FFFFE
3FFFFC
ENDCHAR
STARTCHAR F10D
ENCODING 61709
SWIDTH 1002 0
DWIDTH 39 0
BBX 39 34 0 -2
BITMAP
0001000004
000F80003E
003F8000FE
00FF8003FE
01FF8007FE
03FF801FFE
07FF001FFC
0FFC003FF0
1FF0007FC0
1FE000FF80
3FC000FF00
3F8000FE00
7F8001FE00
7F0001FC00
7F0001FC00
FF0003FC00
FF0003FC00
FFFC03FFF0
FFFF03FFFC
FFFF83FFFE
FFFF83FFFE
FFFF83FFFE
FFFF83FFFE
FFFF83FFFE
FFFF83FFFE
FFFF83FFFE
FFFF83FFFE
FFFF83FFFE
FFFF83FFFE
FFFF83FFFE
FFFF83FFFE
FFFF83FFFE
FFFF83FFFE
7FFF01FFFC
ENDCHAR
STARTCHAR F10E
ENCODING 61710
SWIDTH 1002 0
DWIDTH 39 0
BBX 39 34 0 -3
BITMAP
1FFC007FF0
7FFF01FFFC
FFFF83FFFE
FFFF83FFFE
FFFF83FFFE
FFFF83FFFE
FFFF83FFFE
FFFF83FFFE
FFFF83FFFE
FFFF83FFFE
FFFF83FFFE
FFFF83FFFE
FFFF83FFFE
FFFF83FFFE
FFFF83FFFE
FFFF83FFFE
7FFF81FFFE
007F8001FE
007F8001FE
007F0001FC
007F0001FC
00FF0003FC
00FF0003FC
00FE0007F8
01FE0007F8
03FC000FF0
07FC001FF0
1FF8007FE0
7FF001FFC0
FFE003FF80
FFC003FF00
FF8003FE00
FE0003F800
F80003E000
ENDCHAR
STARTCHAR F110
ENCODING 61712
SWIDTH 1002 0
DWIDTH 39 0
BBX 39 39 0 -5
BITMAP
0000780000
0000FC0000
0000FE0000
0000FE0000
0000FE0000
03E0FE0000
07E07C0000
07F0000000
07F0000000
07F0000000
07E0000000
01C0000000
0000000000
0000000000
0000000000
0000000000
7C00000078
7E000000FC
FE000000FE
FE000000FE
FE000000FE
7E000000FC
3C00000078
0000000000
0000000000
0000000000
0000000000
03C0000780
07E0000FC0
07F0001FC0
07F0001FC0
07F0001FC0
07E07C1FC0
03C0FE0F80
0000FE0000
0000FE0000
0000FE0000
00007C0000
0000380000
ENDCHAR
STARTCHAR F111
ENCODING 61713
SWIDTH 1002 0
DWIDTH 39 0
BBX 37 37 1 -4
BITMAP
0007FF0000
003FFFE000
00FFFFF000
01FFFFFC00
03FFFFFE00
07FFFFFF00
0FFFFFFF80
1FFFFFFFC0
3FFFFFFFC0
3FFFFFFFE0
7FFFFFFFF0
7FFFFFFFF0
7FFFFFFFF0
FFFFFFFFF8
FFFFFFFFF8
FFFFFFFFF8
FFFFFFFFF8
FFFFFFFFF8
FFFFFFFFF8
FFFFFFFFF8
FFFFFFFFF8
FFFFFFFFF8
FFFFFFFFF8
FFFFFFFFF8
7FFFFFFFF0
7FFFFFFFF0
7FFFFFFFE0
3FFFFFFFE0
3FFFFFFFC0
1FFFFFFFC0
0FFFFFFF80
07FFFFFF00
03FFFFFE00
01FFFFFC00
007FFFF000
003FFFC000
0007FF0000
ENDCHAR
STARTCHAR F118
ENCODING 61720
SWIDTH 1002 0
DWIDTH 39 0
BBX 37 37 1 -4
BITMAP
0007FF0000
003FFFE000
00FFFFF000
01FFFFFC00
03FFFFFE00
07FFFFFF00
0FFFFFFF80
1FFFFFFFC0
3FE7FE7FC0
3F81F80FE0
7F1CF1E7E0
7F0E70F7F0
7E0F60F3F0
FE7F27F3F8
FE7F67F3F8
FF7E77F7F8
FF3E73E7F8
FF80F80FF8
FFE3FE3FF8
FFFFFFFFF8
FFFFFFFFF8
FFFFFFFFF8
FF9FFFCFF8
FF9FFFCFF8
7F8FFF8FF0
7FC7FF1FF0
7FE1FC3FE0
3FF0607FE0
3FF800FFC0
1FFF07FFC0
0FFFFFFF80
07FFFFFF00
03FFFFFE00
01FFFFFC00
007FFFF000
001FFFC000
0007FF0000
ENDCHAR
STARTCHAR F119
ENCODING 61721
SWIDTH 1002 0
DWIDTH 39 0
BBX 37 37 1 -4
BITMAP
0007FF0000
003FFFE000
00FFFFF000
01FFFFFC00
03FFFFFE00
07FFFFFF00
0FFFFFFF80
1FFFFFFFC0
3FE7FE7FC0
3F81F80FE0
7F1CF1E7E0
7F0E70F7F0
7E0F60F3F0
FE7F27F3F8
FE7F67F3F8
FF7E77F7F8
FF3E73E7F8
FF80F80FF8
FFE3FE3FF8
FFFFFFFFF8
FFFFFFFFF8
FFFE03FFF8
FFF800FFF8
FFF0707FF8
7FE1FC3FF0
7FC7FE1FF0
7FCFFF1FE0
3FCFFF9FE0
3FFFFFFFC0
1FFFFFFFC0
0FFFFFFF80
07FFFFFF00
03FFFFFE00
01FFFFFC00
007FFFF000
001FFFC000
0007FF0000
ENDCHAR
STARTCHAR F11A
ENCODING 61722
SWIDTH 1002 0
DWIDTH 39 0
BBX 37 37 1 -4
BITMAP
0007FF0000
003FFFE000
00FFFFF000
01FFFFFC00
03FFFFFE00
07FFFFFF00
0FFFFFFF80
1FFFFFFFC0
3FE7FE7FC0
3F81F80FE0
7F1CF1E7E0
7F0E70F7F0
7E0F60F3F0
FE7F27F3F8
FE7F67F3F8
FF7E77F7F8
FF3E73E7F8
FF80F80FF8
FFE3FE3FF8
FFFFFFFFF8
FFFFFFFFF8
FFFFFFFFF8
FFFFFFFFF8
FFFFFFFFF8
7FFFFFFFF0
7FFFFFFFF0
7FE0003FE0
3FE0003FE0
3FFFFFFFC0
1FFFFFFFC0
0FFFFFFF80
07FFFFFF00
03FFFFFE00
01FFFFFC00
007FFFF000
001FFFC000
0007FF0000
ENDCHAR
STARTCHAR F11B
ENCODING 61723
SWIDTH 1260 0
DWIDTH 49 0
BBX 49 25 0 2
BITMAP
003FFFFFFE0000
01FFFFFFFFC000
07FFFFFFFFE000
0FFFFFFFFFF800
1FFFFFFFFFFC00
3FC3FFFFFFFC00
3FC1FFFFF83E00
7FC1FFFFF01F00
7FC1FFFFF01F00
FFC1FFFFF01F00
F8001FFFF01F00
F8001FFFF83F80
F8001FFE0C7F80
F8001FFC0FFF80
F8001FFC07FF00
FFC1FFFC07FF00
7FC1FFFC07FF00
7FC1FFFC0FFE00
3FC1FFFE1FFE00
3FC3FFFFFFFC00
1FFFFFFFFFF800
0FFFF00FFFF000
07FFE003FFE000
01FF8001FF8000
001800001C0000
ENDCHAR
STARTCHAR F11C
ENCODING 61724
SWIDTH 1131 0
DWIDTH 44 0
BBX 44 29 0 0
BITMAP
7FFFFFFFFFC0
7FFFFFFFFFE0
FFFFFFFFFFF0
FFFFFFFFFFF0
FFFFFFFFFFF0
F83060E0C1F0
F83060E0C1F0
F83060E0C1F0
F83060E0C1F0
FC78F0E1E3F0
FFFFFFFFFFF0
FFFFFFFFFFF0
FF87060C1FF0
FF87060C1FF0
FF87060C1FF0
FF87060C1FF0
FF870E0E1FF0
FFFFFFFFFFF0
FFFFFFFFFFF0
F8700001C1F0
F8300000C1F0
F8300000C1F0
F8300000C1F0
F8300000C1F0
FFFFFFFFFFF0
FFFFFFFFFFF0
FFFFFFFFFFF0
7FFFFFFFFFE0
3FFFFFFFFFC0
ENDCHAR
STARTCHAR F11E
ENCODING 61726
SWIDTH 1002 0
DWIDTH 39 0
BBX 38 39 1 -5
BITMAP
3C00000000
7E00000000
FF00000000
FF00000000
FF00000000
FFFFC00078
FFFFF801FC
7FFFFFFFFC
7FFFFFFFFC
7F0FBFFFBC
7C0F87FC3C
7C0F81F83C
7C0F81F83C
7C0F81F83C
7C7041F83C
7FF079F8FC
7FF07E27FC
7FF07E07FC
7FF07E07FC
7FCFFE07FC
7E0F8E07BC
7C0F81043C
7C0F81F83C
7C0F81F83C
7C0F81F83C
7CFFF1F87C
7FFFFFF9FC
7FFFFFFFF8
7FE03FFFF0
7E0007FFC0
7C0000FE00
7C00000000
7C00000000
7C00000000
7C00000000
7C00000000
7C00000000
7C00000000
3C00000000
ENDCHAR
STARTCHAR F120
ENCODING 61728
SWIDTH 1260 0
DWIDTH 49 0
BBX 49 33 0 -2
BITMAP
38000000000000
7C000000000000
FE000000000000
FF000000000000
FF800000000000
7FC00000000000
3FE00000000000
1FF00000000000
0FF80000000000
07FC0000000000
03FE0000000000
01FF0000000000
00FF8000000000
007FC000000000
003FE000000000
001FF000000000
000FF000000000
001FF000000000
003FE000000000
007FC000000000
00FF8000000000
01FF0000000000
03FE0000000000
07FC0000000000
0FF80000000000
1FF00000000000
3FE00000000000
7FC001FFFFFF00
FF8003FFFFFF00
FF0003FFFFFF80
FE0003FFFFFF80
7C0003FFFFFF80
380003FFFFFF00
ENDCHAR
STARTCHAR F121
ENCODING 61729
SWIDTH 1260 0
DWIDTH 49 0
BBX 49 39 0 -5
BITMAP
00000038000000
0000003F000000
0000003F800000
0000007F000000
0000007F000000
0000007F000000
0000007E000000
000000FE000000
001000FE080000
003800FE1C0000
007C01FC3F0000
00FE01FC7F8000
01FF01FC7FC000
03FF01F87FE000
07FC03F83FF000
0FF803F81FF800
1FF003F80FFC00
3FE007F003FE00
7FC007F001FF00
FF8007F000FF80
7FC007E003FF00
3FE00FE007FE00
1FF00FE00FFC00
0FFC0FE01FF800
07FE1FC03FF000
03FF1FC07FE000
01FF1FC07F8000
00FE3F807F0000
007C3F803E0000
00383F801C0000
00103F80080000
00007F00000000
00007F00000000
00007F00000000
0000FE00000000
0000FE00000000
0000FE00000000
00007E00000000
00000C00000000
ENDCHAR
STARTCHAR F122
ENCODING 61730
SWIDTH 1131 0
DWIDTH 44 0
BBX 44 34 0 -2
BITMAP
000100800000
000781E00000
000F83E00000
001F87E00000
003F1FE00000
007E3FE00000
01F87FE00000
03F0FFE00000
07E1FFE00000
0FC3FFFF8000
1F87FFFFF000
3F1FFFFFFC00
FE3FFFFFFE00
FE3FFFFFFF80
FE3FFFFFFF80
7F1FFFFFFFC0
3F0FFFFFFFE0
1F87FFFFFFE0
0FE3FFFFFFE0
03F1FFE3FFE0
01F87FE07FF0
00FC3FE03FF0
007E1FE01FF0
003F0FE00FF0
001F87E00FF0
000783E00FE0
000381C00FE0
000000000FE0
000000000FC0
000000000FC0
000000000F80
000000000F00
000000001E00
000000001C00
ENDCHAR
STARTCHAR F124
ENCODING 61732
SWIDTH 1002 0
DWIDTH 39 0
BBX 39 39 0 -5
BITMAP
0000000078
00000001FC
00000007FE
0000001FFE
0000007FFE
000001FFFC
00000FFFFC
00003FFFF8
0000FFFFF8
0003FFFFF8
000FFFFFF0
007FFFFFF0
01FFFFFFE0
07FFFFFFE0
1FFFFFFFC0
7FFFFFFFC0
FFFFFFFF80
FFFFFFFF80
FFFFFFFF00
FFFFFFFF00
7FFFFFFE00
3FFFFFFE00
00007FFE00
00007FFC00
00007FFC00
00007FF800
00007FF800
00007FF000
00007FF000
00007FE000
00007FE000
00007FC000
00007FC000
00007FC000
00007F8000
00007F8000
00007F0000
00003F0000
00001C0000
ENDCHAR
STARTCHAR F125
ENCODING 61733
SWIDTH 1002 0
DWIDTH 39 0
BBX 39 39 0 -5
BITMAP
07F000001C
07F000003C
07F000007E
07F00000FE
07F00001FC
FFFFFFFFF8
FFFFFFFFF0
FFFFFFFFE0
FFFFFFFFC0
FFFFFFFFC0
FFFFFFFFC0
FFFFFFFFC0
07F001FFC0
07F003FFC0
07F007FFC0
07F00FFFC0
07F01FDFC0
07F03F9FC0
07F07F1FC0
07F0FE1FC0
07F1FC1FC0
07F3F81FC0
07F7F01FC0
07FFE01FC0
07FFC01FC0
07FF801FC0
07FF001FC0
07FFFFFFFE
07FFFFFFFE
07FFFFFFFE
07FFFFFFFE
07FFFFFFFE
07FFFFFFFE
07FFFFFFFC
0000001FC0
0000001FC0
0000001FC0
0000001FC0
0000001F80
ENDCHAR
STARTCHAR F126
ENCODING 61734
SWIDTH 745 0
DWIDTH 29 0
BBX 29 39 0 -5
BITMAP
0F800000
3FC00000
7FE00000
7FF00000
FFF00000
F9F00FC0
F9F01FE0
FFF03FF0
FFF07FF8
7FE07FF8
3FC07CF8
1F807CF8
0F007FF8
0F003FF8
0F003FF0
0F001FE0
0F0007C0
0F000780
0F000780
0F000780
0F001F00
0F03FF00
0F7FFE00
0FFFF800
0FFFE000
0FE00000
0F800000
1F800000
3FC00000
7FE00000
FFF00000
FFF00000
F9F00000
F9F00000
FFF00000
7FE00000
7FE00000
3FC00000
0F000000
ENDCHAR
STARTCHAR F127
ENCODING 61735
SWIDTH 1002 0
DWIDTH 39 0
BBX 39 39 0 -5
BITMAP
380000FE00
7C0003FF80
FE000FFFE0
FF001FFFF0
FF803FFFF8
7FC07FFFF8
3FE0FF87FC
1FF1FF01FC
0FF8FE00FC
07FC7C00FE
03FE38007E
01FF00007E
00FF80007E
007FC000FE
003FE000FC
011FF001FC
038FF803FC
07C7FC07F8
0FE3FE0FF8
1FE1FF0FF0
3FE0FF8FE0
3FC07FC7C0
7F803FE380
7F001FF000
FE000FF800
FC0007FC00
FC0003FE00
FC0001FF00
FC0038FF80
FE007C7FC0
FE00FE3FE0
7F01FE1FF0
7FC7FE0FF8
3FFFFC07FC
3FFFF803FE
1FFFF001FE
0FFFE000FC
03FF800078
007C000030
ENDCHAR
STARTCHAR F128
ENCODING 61736
SWIDTH 745 0
DWIDTH 29 0
BBX 27 39 2 -5
BITMAP
007F8000
03FFF000
07FFF800
1FFFFE00
3FFFFF00
7FFFFF80
7FFFFF80
FFFFFFC0
FFC0FFC0
7F007FC0
3E003FE0
1C003FE0
00003FE0
00007FE0
0000FFC0
0003FFC0
000FFF80
001FFF80
003FFF00
007FFC00
007FF800
00FFE000
00FFC000
00FF8000
00FF8000
00FF8000
00000000
00000000
001C0000
007F0000
00FF8000
00FF8000
01FFC000
01FFC000
01FFC000
00FF8000
00FF8000
007F0000
001E0000
ENDCHAR
STARTCHAR F129
ENCODING 61737
SWIDTH 385 0
DWIDTH 15 0
BBX 15 39 0 -5
BITMAP
07C0
1FE0
1FF0
3FF0
3FF8
3FF8
3FF8
3FF0
1FF0
0FE0
0780
0000
0000
0000
0000
FFE0
FFF0
FFF0
FFF0
FFF0
FFF0
1FF0
1FF0
1FF0
1FF0
1FF0
1FF0
1FF0
1FF0
1FF0
1FF0
1FF0
7FFC
FFFE
FFFE
FFFE
FFFE
FFFE
7FFC
ENDCHAR
STARTCHAR F12A
ENCODING 61738
SWIDTH 385 0
DWIDTH 15 0
BBX 12 39 1 -5
BITMAP
7FE0
7FF0
7FF0
7FF0
7FF0
7FF0
7FE0
7FE0
7FE0
7FE0
7FE0
7FE0
7FE0
7FE0
3FE0
3FE0
3FE0
3FE0
3FE0
3FE0
3FE0
3FE0
3FE0
3FC0
0000
0000
0000
1F80
3FE0
7FE0
7FF0
FFF0
FFF0
FFF0
FFF0
7FF0
7FE0
3FC0
0F00
ENDCHAR
STARTCHAR F12B
ENCODING 61739
SWIDTH 1002 0
DWIDTH 39 0
BBX 39 34 0 -2
BITMAP
0000000380
0000001FE0
0000007FF8
000000FFFC
000000FFFC
000000FFFC
00000078FE
000000107E
00000000FC
00000001FC
00000003FC
00000007F8
0000001FF0
FF03FC3FE0
FF03FC7F80
FF87FC7F00
FF8FFCFE00
0FCFC0FFFC
0FFFC0FFFE
07FF80FFFE
03FF00FFFE
03FF00FFFE
01FE000000
01FE000000
01FE000000
03FF000000
07FF800000
07FFC00000
0FDFC00000
1FCFE00000
FF87FC0000
FF87FC0000
FF03FC0000
FE01FC0000
ENDCHAR
STARTCHAR F12C
ENCODING 61740
SWIDTH 1002 0
DWIDTH 39 0
BBX 39 34 0 -2
BITMAP
7E01F80000
FF03FC0000
FF03FC0000
FF87FC0000
FFCFFC0000
0FCFC00000
0FFFC00000
07FF800000
03FF000000
03FF000000
01FE000000
01FE000000
01FF000000
03FF001FE0
07FF803FF8
0FFFC07FF8
0FCFC0FFFC
7FCFF8FFFC
FF87FC78FE
FF07FC307E
FF03FC00FC
FE01FC01FC
00000003FC
00000007F8
0000001FF0
0000003FE0
0000007FC0
0000007F00
000000FE00
000000FC00
000000FFFE
000000FFFE
000000FFFE
000000FFFE
ENDCHAR
STARTCHAR F12D
ENCODING 61741
SWIDTH 1002 0
DWIDTH 39 0
BBX 39 34 0 -2
BITMAP
0000030000
00000FC000
00001FE000
00003FF000
00007FF800
0000FFFC00
0001FFFE00
0003FFFF00
0007FFFF80
000FFFFFC0
001FFFFFE0
003FFFFFF0
007FFFFFF8
00FFFFFFFC
01FDFFFFFC
03F8FFFFFE
07F07FFFFE
0FE03FFFFE
1FC01FFFFC
3F800FFFF8
7F0007FFF0
7E0003FFE0
FC0001FFC0
F80000FF80
FC00007F00
7E0000FE00
7F0001FC00
3F8003F800
1FC007F000
0FE00FE000
07FFFFFFFE
03FFFFFFFE
01FFFFFFFE
00FFFFFFFE
ENDCHAR
STARTCHAR F12E
ENCODING 61742
SWIDTH 1131 0
DWIDTH 44 0
BBX 44 39 0 -5
BITMAP
0007C0000000
000FF0000000
001FF0000000
001FF8000000
001FF8000000
001FF0000000
001FF0000000
000FE0000000
0007E0000000
0007C0000000
0007C0000000
0007C0018000
000FE00F0000
FC7FF9FF0000
FFFFFFFF0000
FFFFFFFF0000
FFFFFFFE0000
FFFFFFFE0000
FFFFFFFE0000
FFFFFFFE0000
FFFFFFFE0000
FFFFFFFE0000
FFFFFFFE07C0
FFFFFFFF1FE0
FFFFFFFFFFE0
FFFC7FFFFFF0
FFF01FFFFFF0
FFE00FFFFFF0
FFE00FFFFFF0
FFE00FFE1FE0
FFE00FFE07C0
FFE00FFC0100
FFF01FFC0000
FFF03FFC0000
FFF83FFC0000
FFFC7FFE0000
FFFC7FFE0000
FFF83FFE0000
1FE00F800000
ENDCHAR
STARTCHAR F130
ENCODING 61744
SWIDTH 745 0
DWIDTH 29 0
BBX 25 39 2 -5
BITMAP
003E0000
00FF8000
01FFC000
03FFE000
03FFE000
07FFF000
07FFF000
07FFF000
07FFF000
07FFF000
07FFF000
07FFF000
07FFF000
07FFF000
07FFF000
E7FFF380
E7FFF380
E7FFF380
E7FFF380
E7FFF380
F7FFF380
F3FFF780
F3FFE780
F3FFE780
79FFCF00
7CFF9F00
3E1E3E00
1F007C00
0FF3F800
07FFF000
03FFE000
00FF8000
001C0000
001C0000
001C0000
001C0000
07FFF000
07FFF000
07FFF000
ENDCHAR
STARTCHAR F131
ENCODING 61745
SWIDTH 1002 0
DWIDTH 39 0
BBX 39 39 0 -5
BITMAP
70007C0000
F801FF0000
FC03FF8000
FE03FFC000
7F01FFC000
3F80FFE000
1FC07FE000
0FE03FE000
07F01FE000
03F80FE000
01FC07E000
00FE03E000
007F01E000
003F80E000
001FC06000
01CFE02700
01CFF00700
01CFF80700
01CFFC0700
01CFFE0300
01CFFF0100
01EFFF8000
01E7FFC000
01E7FFE000
00F3FFF000
00F9FFF800
007C39FC00
003E00FE00
003FEFFF00
000FFFFF80
0007FFDFC0
0001FF0FE0
00003807F0
00003803F8
00003801FC
00003800FE
000FFFE07E
000FFFE03C
000FFFE018
ENDCHAR
STARTCHAR F133
ENCODING 61747
SWIDTH 874 0
DWIDTH 34 0
BBX 34 39 0 -5
BITMAP
01F003E000
01F003E000
01F003E000
01F003E000
01F003E000
3FFFFFFF80
7FFFFFFF80
FFFFFFFFC0
FFFFFFFFC0
FFFFFFFFC0
FFFFFFFFC0
FFFFFFFFC0
0000000000
0000000000
0000000000
FFFFFFFFC0
FFFFFFFFC0
FFFFFFFFC0
FFFFFFFFC0
FFFFFFFFC0
FFFFFFFFC0
FFFFFFFFC0
FFFFFFFFC0
FFFFFFFFC0
FFFFFFFFC0
FFFFFFFFC0
FFFFFFFFC0
FFFFFFFFC0
FFFFFFFFC0
FFFFFFFFC0
FFFFFFFFC0
FFFFFFFFC0
FFFFFFFFC0
FFFFFFFFC0
FFFFFFFFC0
FFFFFFFFC0
FFFFFFFFC0
7FFFFFFF80
3FFFFFFF00
ENDCHAR
STARTCHAR F134
ENCODING 61748
SWIDTH 874 0
DWIDTH 34 0
BBX 34 39 0 -5
BITMAP
0078000000
00FC000000
01FE0003C0
01CE00FFC0
01CE0FFFC0
01FFFFFFC0
07FFFFFFC0
0FFFFFFFC0
1FFFFFFFC0
3E071FFFC0
7C070FFFC0
780F803FC0
F03FE00080
F07FF00000
E0FFF80000
00FFF80000
01FFFC0000
01FFFC0000
01FFFC0000
01FFFC0000
01FFFC0000
01FFFC0000
01FFFC0000
01FFFC0000
01FFFC0000
01FFFC0000
01FFFC0000
01FFFC0000
01FFFC0000
01FFFC0000
01FFFC0000
01FFFC0000
01FFFC0000
01FFFC0000
01FFFC0000
01FFFC0000
01FFFC0000
01FFFC0000
00FFF80000
ENDCHAR
STARTCHAR F135
ENCODING 61749
SWIDTH 1002 0
DWIDTH 39 0
BBX 39 39 0 -5
BITMAP
0000001FF8
000000FFFC
000003FFFE
00000FFFFE
00001FFFFE
00003FF0FE
00007FE07E
00007FE03E
0000FFE03E
0001FFE03E
07FFFFE07E
0FFFFFF0FE
0FFFFFFFFC
1FFFFFFFFC
1FFFFFFFFC
3FFFFFFFF8
3FFFFFFFF8
7FFFFFFFF0
7FFFFFFFE0
FFFFFFFFC0
FFFFFFFF80
7FFFFFFF00
007FFFFE00
00FFFFF800
00FFFFF800
00FFFFF800
00FFFFF800
007FFFF800
003FFFF800
001FFFF800
000F7FF800
00007FF800
00007FF800
00007FF800
00007FF000
00007FC000
00007F0000
00007C0000
0000300000
ENDCHAR
STARTCHAR F137
ENCODING 61751
SWIDTH 1002 0
DWIDTH 39 0
BBX 37 37 1 -4
BITMAP
0007FF0000
003FFFE000
00FFFFF000
01FFFFFC00
03FFFFFE00
07FFFFFF00
0FFFFBFF80
1FFFE1FFC0
3FFFC0FFC0
3FFF80FFE0
7FFF00FFE0
7FFE01FFF0
7FFC03FFF0
FFF807FFF8
FFF00FFFF8
FFE01FFFF8
FFC03FFFF8
FFC07FFFF8
FF80FFFFF8
FFC07FFFF8
FFE03FFFF8
FFF01FFFF8
FFF80FFFF8
FFFC07FFF8
7FFE03FFF0
7FFF01FFF0
7FFF80FFE0
3FFFC0FFE0
3FFFE0FFC0
1FFFF1FFC0
0FFFFBFF80
07FFFFFF00
03FFFFFE00
01FFFFFC00
007FFFF000
001FFFC000
0007FF0000
ENDCHAR
STARTCHAR F138
ENCODING 61752
SWIDTH 1002 0
DWIDTH 39 0
BBX 37 37 1 -4
BITMAP
0007FF0000
003FFFE000
00FFFFF000
01FFFFFC00
03FFFFFE00
07FFFFFF00
0FFEFFFF80
1FFC7FFFC0
3FF83FFFC0
3FF01FFFE0
7FF80FFFE0
7FFC07FFF0
7FFE03FFF0
FFFF01FFF8
FFFF80FFF8
FFFFC07FF8
FFFFE03FF8
FFFFF01FF8
FFFFF80FF8
FFFFF01FF8
FFFFE03FF8
FFFFC07FF8
FFFF80FFF8
FFFF01FFF8
7FFE03FFF0
7FFC07FFF0
7FF80FFFE0
3FF01FFFE0
3FF83FFFC0
1FFC7FFFC0
0FFEFFFF80
07FFFFFF00
03FFFFFE00
01FFFFFC00
007FFFF000
001FFFC000
0007FF0000
ENDCHAR
STARTCHAR F139
ENCODING 61753
SWIDTH 1002 0
DWIDTH 39 0
BBX 37 37 1 -4
BITMAP
0007FF0000
003FFFE000
00FFFFF000
01FFFFFC00
03FFFFFE00
07FFFFFF00
0FFFFFFF80
1FFFFFFFC0
3FFFFFFFC0
3FFFDFFFE0
7FFF0FFFE0
7FFE07FFF0
7FFC03FFF0
FFF801FFF8
FFF000FFF8
FFE0007FF8
FFC0203FF8
FF80701FF8
FF00F80FF8
FE01FC07F8
FE03FE03F8
FC07FF01F8
FE0FFF83F8
FF1FFFC7F8
7FFFFFFFF0
7FFFFFFFF0
7FFFFFFFE0
3FFFFFFFE0
3FFFFFFFC0
1FFFFFFFC0
0FFFFFFF80
07FFFFFF00
03FFFFFE00
01FFFFFC00
007FFFF000
001FFFC000
0007FF0000
ENDCHAR
STARTCHAR F13A
ENCODING 61754
SWIDTH 1002 0
DWIDTH 39 0
BBX 37 37 1 -4
BITMAP
0007FF0000
003FFFE000
00FFFFF000
01FFFFFC00
03FFFFFE00
07FFFFFF00
0FFFFFFF80
1FFFFFFFC0
3FFFFFFFC0
3FFFFFFFE0
7FFFFFFFE0
7FFFFFFFF0
7FBFFFEFF0
FF1FFFC7F8
FE0FFF83F8
FC07FF01F8
FE03FE03F8
FF01FC07F8
FF80F80FF8
FFC0701FF8
FFE0203FF8
FFF0007FF8
FFF800FFF8
FFFC01FFF8
7FFE03FFF0
7FFF07FFF0
7FFF8FFFE0
3FFFDFFFE0
3FFFFFFFC0
1FFFFFFFC0
0FFFFFFF80
07FFFFFF00
03FFFFFE00
01FFFFFC00
007FFFF000
001FFFC000
0007FF0000
ENDCHAR
STARTCHAR F13D
ENCODING 61757
SWIDTH 1131 0
DWIDTH 44 0
BBX 44 39 0 -5
BITMAP
00001F800000
00007FC00000
0000FFE00000
0000FFF00000
0001FFF80000
0001F1F80000
0001F0F80000
0001E0F80000
0001F0F80000
0001F9F80000
0001FFF00000
0000FFF00000
00007FE00000
00003FC00000
00001F000000
0001FFF80000
0001FFF80000
0001FFF80000
0001FFF80000
00001F000000
06001F000600
0F001F000F00
1F801F001F80
3FC01F003FC0
7FE01F007FE0
FFF01F00FFF0
FFF01F00FFE0
0F801F001F00
0F801F003F00
0FC01F003E00
07E01F007E00
03F81F01FC00
03FE1F07F800
01FFDF3FF000
00FFFFFFE000
003FFFFFC000
000FFFFF0000
0003FFFC0000
00003FC00000
ENDCHAR
STARTCHAR F13E
ENCODING 61758
SWIDTH 874 0
DWIDTH 34 0
BBX 34 39 0 -5
BITMAP
0003F00000
001FFE0000
003FFF0000
007FFF8000
00FFFFC000
01FFFFE000
01FE1FE000
03F807F000
03F803F000
03F003F000
03F003F800
07F003F800
07F003F800
07F001F000
07F000E000
07F0000000
07F0000000
07F0000000
07F0000000
1FFFFFFE00
7FFFFFFF80
FFFFFFFFC0
FFFFFFFFC0
FFFFFFFFC0
FFFF3FFFC0
FFFE1FFFC0
FFFC0FFFC0
FFFC0FFFC0
FFFC0FFFC0
FFFC0FFFC0
FFFC0FFFC0
FFFC0FFFC0
FFFC0FFFC0
FFFE1FFFC0
FFFFFFFFC0
FFFFFFFFC0
FFFFFFFFC0
7FFFFFFF80
3FFFFFFF00
ENDCHAR
STARTCHAR F140
ENCODING 61760
SWIDTH 1002 0
DWIDTH 39 0
BBX 37 37 1 -4
BITMAP
0007FF0000
003FFFE000
00FFFFF000
01FFFFFC00
03FF9FFE00
07F800FF00
0FE0003F80
1FC0001FC0
3F80000FC0
3F01FC07E0
7E07FF03F0
7C0FFF81F0
7C1FFFC1F0
F83FFFE0F8
F87F07E0F8
F87E03F0F8
F87C01F0F8
F07C01F0F8
F07C01F0F8
F87C01F0F8
F87C01F0F8
F87E03F0F8
F83F07E0F8
F83FFFE1F8
7C1FFFC1F0
7C0FFF81F0
7E07FF03E0
3F01FC07E0
3F80000FC0
1FC0001FC0
0FE0003F80
07F801FF00
03FFFFFE00
01FFFFFC00
007FFFF000
003FFFC000
0007FF0000
ENDCHAR
STARTCHAR F141
ENCODING 61761
SWIDTH 1002 0
DWIDTH 39 0
BBX 37 11 1 9
BITMAP
1F00F807C0
7F81FC0FF0
FFC3FE1FF0
FFC7FF1FF8
FFC7FF3FF8
FFE7FF3FF8
FFC7FF3FF8
FFC7FF1FF8
FFC3FE1FF0
7F81FC0FE0
1E00F803C0
ENDCHAR
STARTCHAR F142
ENCODING 61762
SWIDTH 385 0
DWIDTH 15 0
BBX 11 37 2 -4
BITMAP
3F00
7F80
FFC0
FFE0
FFE0
FFE0
FFE0
FFC0
7FC0
3F00
0400
0000
0000
1F00
7F80
7FC0
FFC0
FFE0
FFE0
FFE0
FFC0
7FC0
3F80
1E00
0000
0000
0E00
3F80
7FC0
FFC0
FFE0
FFE0
FFE0
FFC0
FFC0
7F80
3F00
ENDCHAR
STARTCHAR F143
ENCODING 61763
SWIDTH 874 0
DWIDTH 34 0
BBX 34 34 0 -2
BITMAP
1FFFFFFE00
7FFFFFFF80
FFFFFFFFC0
FFFFFFFFC0
FFFFFFFFC0
F8FFFFFFC0
F807FFFFC0
F801FFFFC0
F8007FFFC0
F8001FFFC0
FFE00FFFC0
FFF807FFC0
FFFE03FFC0
F8FF81FFC0
F80FC0FFC0
F807E07FC0
F801F07FC0
FE00F83FC0
FFC07C3FC0
FFF03C1FC0
FFF81E1FC0
FFFC1E0FC0
FE3E0F0FC0
FC1E0F0FC0
F80F0707C0
F80F0707C0
F80F8787C0
F80F8787C0
FC1F8787C0
FF7FC787C0
FFFFFFFFC0
FFFFFFFFC0
FFFFFFFFC0
7FFFFFFF80
ENDCHAR
STARTCHAR F144
ENCODING 61764
SWIDTH 1002 0
DWIDTH 39 0
BBX 37 37 1 -4
BITMAP
0007FF0000
003FFFE000
00FFFFF000
01FFFFFC00
03FFFFFE00
07FFFFFF00
0FFFFFFF80
1FFFFFFFC0
3FFFFFFFC0
3FE1FFFFE0
7FE0FFFFF0
7FE03FFFF0
7FE00FFFF0
FFE007FFF8
FFE001FFF8
FFE0007FF8
FFE0003FF8
FFE0000FF8
FFE0000FF8
FFE0000FF8
FFE0001FF8
FFE0007FF8
FFE001FFF8
FFE003FFF8
7FE00FFFF0
7FE03FFFF0
7FE0FFFFE0
3FF1FFFFE0
3FFFFFFFC0
1FFFFFFFC0
0FFFFFFF80
07FFFFFF00
03FFFFFE00
01FFFFFC00
007FFFF000
003FFFC000
0007FF0000
ENDCHAR
STARTCHAR F146
ENCODING 61766
SWIDTH 874 0
DWIDTH 34 0
BBX 34 34 0 -2
BITMAP
1FFFFFFE00
7FFFFFFF80
FFFFFFFFC0
FFFFFFFFC0
FFFFFFFFC0
FFFFFFFFC0
FFFFFFFFC0
FFFFFFFFC0
FFFFFFFFC0
FFFFFFFFC0
FFFFFFFFC0
FFFFFFFFC0
FFFFFFFFC0
FFFFFFFFC0
FE00001FC0
FC00000FC0
FC00000FC0
FC00000FC0
FC00000FC0
FC00000FC0
FFFFFFFFC0
FFFFFFFFC0
FFFFFFFFC0
FFFFFFFFC0
FFFFFFFFC0
FFFFFFFFC0
FFFFFFFFC0
FFFFFFFFC0
FFFFFFFFC0
FFFFFFFFC0
FFFFFFFFC0
FFFFFFFFC0
FFFFFFFFC0
7FFFFFFF80
ENDCHAR
STARTCHAR F14A
ENCODING 61770
SWIDTH 874 0
DWIDTH 34 0
BBX 34 34 0 -2
BITMAP
1FFFFFFE00
7FFFFFFF80
FFFFFFFFC0
FFFFFFFFC0
FFFFFFFFC0
FFFFFFFFC0
FFFFFFFFC0
FFFFFFFFC0
FFFFFFFFC0
FFFFFFDFC0
FFFFFF0FC0
FFFFFE07C0
FFFFFC07C0
FFFFF80FC0
FFFFF01FC0
FEFFE03FC0
FC7FC07FC0
F83F80FFC0
F81F01FFC0
FC0E03FFC0
FE0407FFC0
FF000FFFC0
FF801FFFC0
FFC03FFFC0
FFE07FFFC0
FFF0FFFFC0
FFF9FFFFC0
FFFFFFFFC0
FFFFFFFFC0
FFFFFFFFC0
FFFFFFFFC0
FFFFFFFFC0
FFFFFFFFC0
7FFFFFFF80
ENDCHAR
STARTCHAR F14B
ENCODING 61771
SWIDTH 874 0
DWIDTH 34 0
BBX 34 34 0 -2
BITMAP
1FFFFFFE00
7FFFFFFF80
FFFFFFFFC0
FFFFFFFFC0
FFFFFFFFC0
FFFFFFFFC0
FFFFFFFFC0
FFFFFFFFC0
FFFFF8FFC0
FFFFF07FC0
FFFFF03FC0
FFFFD01FC0
FFFF881FC0
FFFF043FC0
FFFE027FC0
FFFC01FFC0
FFF801FFC0
FFF003FFC0
FFE007FFC0
FFC00FFFC0
FF801FFFC0
FF003FFFC0
FF007FFFC0
FF00FFFFC0
FE01FFFFC0
FE03FFFFC0
FE07FFFFC0
FFFFFFFFC0
FFFFFFFFC0
FFFFFFFFC0
FFFFFFFFC0
FFFFFFFFC0
FFFFFFFFC0
7FFFFFFF80
ENDCHAR
STARTCHAR F14D
ENCODING 61773
SWIDTH 1131 0
DWIDTH 44 0
BBX 44 39 0 -5
BITMAP
000000030000
000000078000
00000007C000
00000007E000
00000007F000
3FFC0007F800
7FF80007FE00
FFF000FFFF00
FFC03FFFFF80
FF81FFFFFFC0
F803FFFFFFE0
F80FFFFFFFF0
F80FFFFFFFF0
F81FFFFFFFE0
F83FFFFFFFC0
F83FFFFFFF80
F83FFFFFFF00
F87FFE07FE00
F87FE007FC00
F87FC007F800
F87F8007F000
F87F0007E000
F87F0007C000
F83F00070000
F83F00000000
F83F00000000
F81F00000000
F81F00000000
F80F0007C000
F8070007C000
F8038007C000
F8010007C000
F8000007C000
F8000007C000
FFFFFFFFC000
FFFFFFFFC000
FFFFFFFFC000
7FFFFFFF8000
3FFFFFFF0000
ENDCHAR
STARTCHAR F14E
ENCODING 61774
SWIDTH 1002 0
DWIDTH 39 0
BBX 37 37 1 -4
BITMAP
0007FF0000
003FFFE000
00FFFFF000
01FFFFFC00
03FFFFFE00
07FFFFFF00
0FFFFFFF80
1FFFFFFFC0
3FFFFC7FC0
3FFFF87FE0
7FFFF07FE0
7FFFE07FF0
7FFFC07FF0
FFFF80FFF8
FFFF00FFF8
FFFE00FFF8
FFFC70FFF8
FFFCF8FFF8
FFFCF9FFF8
FFF8F9FFF8
FFF871FFF8
FFF803FFF8
FFF807FFF8
FFF00FFFF8
7FF01FFFF0
7FF03FFFF0
7FF07FFFE0
3FE0FFFFE0
3FF1FFFFC0
1FFFFFFFC0
0FFFFFFF80
07FFFFFF00
03FFFFFE00
01FFFFFC00
007FFFF000
001FFFC000
0007FF0000
ENDCHAR
STARTCHAR F150
ENCODING 61776
SWIDTH 874 0
DWIDTH 34 0
BBX 34 34 0 -2
BITMAP
1FFFFFFE00
7FFFFFFF80
FFFFFFFFC0
FFFFFFFFC0
FFFFFFFFC0
FFFFFFFFC0
FFFFFFFFC0
FFFFFFFFC0
FFFFFFFFC0
FFFFFFFFC0
FFFFFFFFC0
FFFFFFFFC0
FFFFFFFFC0
FE00001FC0
FE00001FC0
FF00003FC0
FF80007FC0
FFC000FFC0
FFE001FFC0
FFF003FFC0
FFF807FFC0
FFFC0FFFC0
FFFE1FFFC0
FFFF3FFFC0
FFFFFFFFC0
FFFFFFFFC0
FFFFFFFFC0
FFFFFFFFC0
FFFFFFFFC0
FFFFFFFFC0
FFFFFFFFC0
FFFFFFFFC0
FFFFFFFFC0
7FFFFFFF80
ENDCHAR
STARTCHAR F151
ENCODING 61777
SWIDTH 874 0
DWIDTH 34 0
BBX 34 34 0 -2
BITMAP
1FFFFFFE00
7FFFFFFF80
FFFFFFFFC0
FFFFFFFFC0
FFFFFFFFC0
FFFFFFFFC0
FFFFFFFFC0
FFFFFFFFC0
FFFFFFFFC0
FFFFFFFFC0
FFFFFFFFC0
FFFF3FFFC0
FFFE1FFFC0
FFFC0FFFC0
FFF807FFC0
FFF003FFC0
FFE001FFC0
FFC000FFC0
FF80007FC0
FF00003FC0
FE00001FC0
FE00001FC0
FFFFFFFFC0
FFFFFFFFC0
FFFFFFFFC0
FFFFFFFFC0
FFFFFFFFC0
FFFFFFFFC0
FFFFFFFFC0
FFFFFFFFC0
FFFFFFFFC0
FFFFFFFFC0
FFFFFFFFC0
7FFFFFFF80
ENDCHAR
STARTCHAR F152
ENCODING 61778
SWIDTH 874 0
DWIDTH 34 0
BBX 34 34 0 -2
BITMAP
1FFFFFFE00
7FFFFFFF80
FFFFFFFFC0
FFFFFFFFC0
FFFFFFFFC0
FFFFFFFFC0
FFFFFFFFC0
FFFBFFFFC0
FFF9FFFFC0
FFF8FFFFC0
FFF87FFFC0
FFF83FFFC0
FFF81FFFC0
FFF80FFFC0
FFF807FFC0
FFF803FFC0
FFF801FFC0
FFF800FFC0
FFF801FFC0
FFF803FFC0
FFF807FFC0
FFF80FFFC0
FFF81FFFC0
FFF83FFFC0
FFF87FFFC0
FFF8FFFFC0
FFF9FFFFC0
FFFBFFFFC0
FFFFFFFFC0
FFFFFFFFC0
FFFFFFFFC0
FFFFFFFFC0
FFFFFFFFC0
7FFFFFFF80
ENDCHAR
STARTCHAR F153
ENCODING 61779
SWIDTH 617 0
DWIDTH 24 0
BBX 24 34 0 -2
BITMAP
000078
0007FF
001FFF
007FFE
00FFFE
01FFFE
03FE00
07F800
07F000
0FE000
0FC000
FFFFF8
FFFFF8
FFFFF8
FFFFF8
1F8000
3F8000
3F8000
3F8000
FFFFF0
FFFFF0
FFFFE0
FFFFE0
1FC000
0FE000
0FE000
07F000
07FC00
03FF00
01FFFF
00FFFF
007FFF
001FFF
0007FF
ENDCHAR
STARTCHAR F154
ENCODING 61780
SWIDTH 617 0
DWIDTH 24 0
BBX 24 34 0 -2
BITMAP
000700
007FE0
01FFF8
03FFFC
07FFFC
07FFF8
0FF070
0FE000
0FC000
0FC000
0FC000
0FC000
0FC000
0FC000
0FC000
7FFF80
7FFF80
7FFF80
7FFF80
7FFF80
0FC000
0FC000
0FC000
0FC000
0FC000
0FC01F
0FC01F
0FC01F
0FC01F
0FFFFF
FFFFFF
FFFFFF
FFFFFF
FFFFFF
ENDCHAR
STARTCHAR F155
ENCODING 61781
SWIDTH 617 0
DWIDTH 24 0
BBX 21 39 2 -5
BITMAP
00F000
00F800
00F800
00F800
00F800
07FF00
0FFFC0
1FFFF0
3FFFF0
7FFFE0
7F03E0
FE00C0
FE0000
FE0000
FE0000
7F8000
7FE000
3FF800
1FFF00
0FFF80
03FFE0
00FFE0
001FF0
0007F0
0003F8
0003F8
3003F8
3C03F0
7F07F0
FFFFF0
FFFFE0
7FFFC0
1FFF80
07FE00
00F800
00F800
00F800
00F800
00F000
ENDCHAR
STARTCHAR F156
ENCODING 61782
SWIDTH 617 0
DWIDTH 24 0
BBX 24 34 0 -2
BITMAP
7FFFFF
FFFFFF
FFFFFF
FFFFFF
FFFFFF
FFFFC0
001FC0
000FE0
FFFFFF
FFFFFF
FFFFFF
FFFFFF
7FFFFF
0007E0
000FE0
001FE0
003FC0
FFFFC0
FFFF80
FFFF00
FFFE00
FFF800
FF8000
7FC000
3FE000
1FF000
0FF800
03FE00
01FF00
00FF80
007FC0
003FE0
001FF0
000FF8
ENDCHAR
STARTCHAR F157
ENCODING 61783
SWIDTH 745 0
DWIDTH 29 0
BBX 26 34 2 -2
BITMAP
FC001F80
FE001FC0
FE003F80
7F003F80
7F007F00
3F007F00
3F80FE00
1F80FC00
1FC1FC00
0FC1F800
0FE3F800
07E3F000
07F7F000
7FF7FF80
FFF7FF80
FFFFFF80
FFFFFF80
00FF8000
007F8000
007F0000
003F0000
003F0000
7FFFFF00
FFFFFF80
FFFFFF80
FFFFFF80
7FFFFF00
003F0000
003F0000
003F0000
003F0000
003F0000
003F0000
003F0000
ENDCHAR
STARTCHAR F158
ENCODING 61784
SWIDTH 745 0
DWIDTH 29 0
BBX 29 34 0 -2
BITMAP
07FFF000
07FFFE00
07FFFF80
07FFFFC0
07FFFFE0
07FFFFF0
07E00FF0
07E003F8
07E003F8
07E001F8
07E001F8
07E001F8
07E001F8
07E003F8
07E003F8
07E007F0
07E00FF0
FFFFFFE0
FFFFFFE0
FFFFFFC0
FFFFFF00
FFFFFE00
07E00000
07E00000
07E00000
FFFFFF00
FFFFFF00
FFFFFF00
FFFFFF00
7FFFFF00
07E00000
07E00000
07E00000
07E00000
ENDCHAR
STARTCHAR F159
ENCODING 61785
SWIDTH 1131 0
DWIDTH 44 0
BBX 44 34 0 -2
BITMAP
0E000F000F00
1F001F001F80
1F001F801F00
0F801F801F00
0F803F801F00
0F803F801F00
0F803FC03E00
0F803FC03E00
FFFFFFFFFFF0
FFFFFFFFFFF0
FFFFFFFFFFF0
FFFFFFFFFFF0
7FFFFFFFFFE0
03E0FBE07C00
03E0F9E07C00
FFFFFFFFFFF0
FFFFFFFFFFF0
FFFFFFFFFFF0
FFFFFFFFFFF0
FFFFFFFFFFF0
01F1F0F8F000
00F3E0F9F000
00FBE0F9F000
00FBE07DF000
00FBE07DE000
007BC07DE000
007FC07FE000
007FC03FE000
007FC03FC000
007F803FC000
003F803FC000
003F801FC000
003F801F8000
003F801F8000
ENDCHAR
STARTCHAR F15B
ENCODING 61787
SWIDTH 745 0
DWIDTH 29 0
BBX 29 39 0 -5
BITMAP
7FFF9800
FFFF9C00
FFFF9E00
FFFF9F00
FFFF9F80
FFFF9FC0
FFFF9FE0
FFFF9FF0
FFFF9FF8
FFFF9FF8
FFFF8000
FFFF8000
FFFFFFF8
FFFFFFF8
FFFFFFF8
FFFFFFF8
FFFFFFF8
FFFFFFF8
FFFFFFF8
FFFFFFF8
FFFFFFF8
FFFFFFF8
FFFFFFF8
FFFFFFF8
FFFFFFF8
FFFFFFF8
FFFFFFF8
FFFFFFF8
FFFFFFF8
FFFFFFF8
FFFFFFF8
FFFFFFF8
FFFFFFF8
FFFFFFF8
FFFFFFF8
FFFFFFF8
FFFFFFF8
FFFFFFF8
7FFFFFF0
ENDCHAR
STARTCHAR F15C
ENCODING 61788
SWIDTH 745 0
DWIDTH 29 0
BBX 29 39 0 -5
BITMAP
7FFF9800
FFFF9C00
FFFF9E00
FFFF9F00
FFFF9F80
FFFF9FC0
FFFF9FE0
FFFF9FF0
FFFF9FF8
FFFF9FF8
FFFF8000
FFFF8000
FFFFFFF8
FFFFFFF8
FFFFFFF8
FFFFFFF8
FFFFFFF8
FE0003F8
FE0003F8
FFFFFFF8
FFFFFFF8
FFFFFFF8
FE0003F8
FE0003F8
FFFFFFF8
FFFFFFF8
FFFFFFF8
FE0003F8
FE0003F8
FFFFFFF8
FFFFFFF8
FFFFFFF8
FFFFFFF8
FFFFFFF8
FFFFFFF8
FFFFFFF8
FFFFFFF8
FFFFFFF8
7FFFFFF0
ENDCHAR
STARTCHAR F15D
ENCODING 61789
SWIDTH 874 0
DWIDTH 34 0
BBX 32 34 0 -2
BITMAP
038000E0
07C001F0
07C001F0
07C003F8
07C003F8
07C003F8
07C007FC
07C007BC
07C007FC
07C00FFE
07C00FFE
07C00FFE
07C01F1F
07C01E0F
07C01E0F
07C00000
07C00000
07C00000
07C00000
07C00000
07C00FFE
07C00FFE
07C00FFE
07C00FFE
07C0007C
07C000F8
FFFC01F8
FFFE01F0
7FFC03E0
3FF807C0
1FF00FFE
0FE00FFE
07C00FFE
03800FFE
ENDCHAR
STARTCHAR F15E
ENCODING 61790
SWIDTH 874 0
DWIDTH 34 0
BBX 32 34 0 -2
BITMAP
010000E0
038001F0
07C001F0
0FE003F8
1FF003F8
3FF803F8
7FFC07FC
FFFE07BC
FFFC07FC
07C00FFE
07C00FFE
07C00FFE
07C01F1F
07C01E0F
07C01E0F
07C00000
07C00000
07C00000
07C00000
07C00000
07C00FFE
07C00FFE
07C00FFE
07C00FFE
07C0007C
07C000F8
07C001F8
07C001F0
07C003E0
07C007C0
07C00FFE
07C00FFE
07C00FFE
07C00FFE
ENDCHAR
STARTCHAR F160
ENCODING 61792
SWIDTH 1002 0
DWIDTH 39 0
BBX 39 34 0 -2
BITMAP
03803FFFFC
07C07FFFFE
07C07FFFFE
07C07FFFFE
07C07FFFFE
07C0000000
07C0000000
07C0000000
07C0000000
07C0000000
07C07FFFC0
07C07FFFC0
07C07FFFC0
07C07FFFC0
07C07FFFC0
07C0000000
07C0000000
07C0000000
07C0000000
07C0000000
07C07FF800
07C07FF800
07C07FF800
07C07FF800
07C03FF800
07C0000000
FFFC000000
FFFE000000
7FFC000000
3FF8000000
1FF07F0000
0FE07F0000
07C07F0000
03807F0000
ENDCHAR
STARTCHAR F161
ENCODING 61793
SWIDTH 1002 0
DWIDTH 39 0
BBX 39 34 0 -2
BITMAP
01003FFFFC
03807FFFFE
07C07FFFFE
0FE07FFFFE
1FF07FFFFE
3FF8000000
7FFC000000
FFFE000000
FFFC000000
07C0000000
07C07FFFC0
07C07FFFC0
07C07FFFC0
07C07FFFC0
07C07FFFC0
07C0000000
07C0000000
07C0000000
07C0000000
07C0000000
07C07FF800
07C07FF800
07C07FF800
07C07FF800
07C03FF800
07C0000000
07C0000000
07C0000000
07C0000000
07C0000000
07C07F0000
07C07F0000
07C07F0000
07C07F0000
ENDCHAR
STARTCHAR F162
ENCODING 61794
SWIDTH 874 0
DWIDTH 34 0
BBX 32 35 0 -3
BITMAP
03800038
07C000F8
07C001F8
07C003F8
07C003F8
07C003F8
07C001F8
07C00078
07C00078
07C00078
07C00078
07C003FF
07C003FF
07C003FF
07C003FF
07C00000
07C00000
07C00000
07C00000
07C00000
07C001F8
07C003FE
07C003FE
07C007DF
07C0078F
07C0078F
FFFC07FF
FFFE03FF
7FFC01FF
3FF800FF
1FF001FF
0FE003FE
07C003FC
038003F8
000001E0
ENDCHAR
STARTCHAR F163
ENCODING 61795
SWIDTH 874 0
DWIDTH 34 0
BBX 32 35 0 -3
BITMAP
01000038
038000F8
07C001F8
0FE003F8
1FF003F8
3FF803F8
7FFC01F8
FFFE0078
FFFC0078
07C00078
07C00078
07C003FF
07C003FF
07C003FF
07C003FF
07C00000
07C00000
07C00000
07C00000
07C00000
07C001F8
07C003FE
07C003FE
07C007DF
07C0078F
07C0078F
07C007FF
07C003FF
07C001FF
07C000FF
07C001FF
07C003FE
07C003FC
07C003F8
000001E0
ENDCHAR
STARTCHAR F164
ENCODING 61796
SWIDTH 1002 0
DWIDTH 39 0
BBX 39 39 0 -5
BITMAP
000001C000
000003F000
000003F000
000007F800
000007F800
000007F800
000007F800
00000FF800
00001FF800
00001FF000
00003FF000
00007FE000
0000FFE000
0000FFFFF0
0001FFFFF8
0003FFFFFC
0007FFFFFE
7F8FFFFFFE
FFCFFFFFFE
FFCFFFFFFE
FFCFFFFFFC
FFCFFFFFF8
FFCFFFFFFC
FFCFFFFFFC
FFCFFFFFFC
FFCFFFFFFC
FFCFFFFFF8
FFCFFFFFF8
FFCFFFFFF8
FFCFFFFFF8
FFCFFFFFF8
FFCFFFFFF0
F3CFFFFFF0
E1CFFFFFF0
E1CFFFFFF0
F3C1FFFFE0
FFC07FFFE0
FFC01FFFC0
7F8001FF00
ENDCHAR
STARTCHAR F165
ENCODING 61797
SWIDTH 1002 0
DWIDTH 39 0
BBX 39 39 0 -5
BITMAP
000003FF00
00001FFFC0
7F007FFFE0
FFC3FFFFE0
FFCFFFFFF0
FFCFFFFFE0
FFCFFFFFF0
FFCFFFFFF8
FFCFFFFFF8
FFCFFFFFF8
FFCFFFFFF8
FFCFFFFFF8
FFCFFFFFF8
FFCFFFFFFC
FFCFFFFFFC
FFCFFFFFFC
FFCFFFFFFC
FFCFFFFFFC
E3CFFFFFFC
E1CFFFFFFE
E3CFFFFFFE
FFC7FFFFFE
FFC7FFFFFE
FF83FFFFFC
0001FFFFF8
0000FFFFC0
0000FFE000
00007FE000
00003FF000
00001FF800
00000FF800
00000FF800
000007F800
000007F800
000007F800
000007F800
000003F000
000003F000
000001C000
ENDCHAR
STARTCHAR F182
ENCODING 61826
SWIDTH 488 0
DWIDTH 19 0
BBX 18 39 1 -5
BITMAP
03E000
07F000
0FF800
0FF800
0FFC00
0FFC00
0FF800
07F800
07F000
01C000
000000
0F7C00
1FFC00
1FFC00
1FFE00
1FFE00
3FFE00
3FFE00
3FFF00
3FFF00
7FFF00
7FFF00
7FFF80
7FFF80
FFFF80
FFFF80
FFFFC0
FFFFC0
FFFF80
03F000
03F000
03F000
03F000
03F000
03F000
03F000
03F000
03F000
03E000
ENDCHAR
STARTCHAR F183
ENCODING 61827
SWIDTH 385 0
DWIDTH 15 0
BBX 15 39 0 -5
BITMAP
0780
0FE0
1FF0
1FF0
3FF0
3FF0
1FF0
1FE0
0FE0
0380
0000
3EF8
7FFC
FFFC
FFFE
FFFE
FFFE
FFFE
FFFE
FFFE
FFFE
FFFE
FFFE
FFFE
FFFE
FFFC
7FFC
1FF0
1FF0
1FF0
1FF0
1FF0
1FF0
1FF0
1FF0
1FF0
1FF0
1FE0
0FE0
ENDCHAR
STARTCHAR F185
ENCODING 61829
SWIDTH 1002 0
DWIDTH 39 0
BBX 37 39 1 -5
BITMAP
0000700000
0000700000
0000F80000
0100F80C00
03C0F81C00
03F1FC7C00
01FBFFFC00
01FFFFFC00
01FFFFFC00
01FF07F800
00F800F800
01F0007C00
7FE1FC3FF0
FFC7FF1FF8
FF8FFF9FF8
7F8FFF8FF0
3F9FFFCFE0
1F1FFFC7C0
0F1FFFC700
071FFFC700
0F1FFFC780
1F1FFFC7C0
3F9FFFCFE0
7F8FFF8FF0
FF8FFF9FF8
FFC7FE1FF8
7FE1FC3FF0
01F0007800
00FC01F800
01FF07F800
01FFFFFC00
01FFFFFC00
01FBFCFC00
03F1FC7C00
03C0F81C00
0000F80000
0000F00000
0000700000
0000600000
ENDCHAR
STARTCHAR F186
ENCODING 61830
SWIDTH 1002 0
DWIDTH 39 0
BBX 35 39 2 -5
BITMAP
0001FE0000
000FFF0000
003FFE0000
00FFF80000
01FFF00000
03FFE00000
07FFC00000
0FFFC00000
1FFF800000
1FFF800000
3FFF000000
3FFF000000
7FFF000000
7FFF000000
7FFF000000
FFFF000000
FFFF000000
FFFF000000
FFFF000000
FFFF000000
FFFF800000
FFFF800000
FFFF800000
FFFFC00000
7FFFE00000
7FFFF00000
7FFFF80000
3FFFFC0000
3FFFFE0000
1FFFFFC000
1FFFFFFFE0
0FFFFFFFE0
07FFFFFFC0
03FFFFFF80
01FFFFFF00
007FFFFC00
003FFFF800
000FFFE000
0000FF0000
ENDCHAR
STARTCHAR F187
ENCODING 61831
SWIDTH 1002 0
DWIDTH 39 0
BBX 39 34 0 -2
BITMAP
7FFFFFFFFC
FFFFFFFFFE
FFFFFFFFFE
FFFFFFFFFE
FFFFFFFFFE
FFFFFFFFFE
FFFFFFFFFE
7FFFFFFFFC
0000000000
0000000000
1FFFFFFFF0
3FFFFFFFF0
3FFFFFFFF0
3FFFFFFFF0
3FFFFFFFF0
3FFE00FFF0
3FFE00FFF0
3FFFFFFFF0
3FFFFFFFF0
3FFFFFFFF0
3FFFFFFFF0
3FFFFFFFF0
3FFFFFFFF0
3FFFFFFFF0
3FFFFFFFF0
3FFFFFFFF0
3FFFFFFFF0
3FFFFFFFF0
3FFFFFFFF0
3FFFFFFFF0
3FFFFFFFF0
3FFFFFFFF0
3FFFFFFFF0
1FFFFFFFF0
ENDCHAR
STARTCHAR F188
ENCODING 61832
SWIDTH 1002 0
DWIDTH 39 0
BBX 39 39 0 -5
BITMAP
00007C0000
0001FF0000
0007FFC000
0007FFC000
000FFFE000
000FFFE000
001FFFF000
0C1FFFF060
1E000000F0
3F000001F0
1F800003F0
1FC00007F0
0FFFFFFFE0
07FFFFFFC0
03FFFFFF80
01FFFFFF00
01FFFFFF00
01FFC7FF00
01FFC7FF00
3FFFC7FFF8
FFFFC7FFFC
FFFFC7FFFE
FFFFC7FFFE
7FFFC7FFFC
01FFC7FF00
01FFC7FF00
01FFC7FF00
01FFC7FF00
01FFC7FF00
01FFC7FE00
01FFC7FF00
03FFC7FF80
07FFC7FFC0
0FFFC7FFE0
1FDFC7F7F0
1F87C7C3F0
3F000001F0
1E000000F0
0C00000060
ENDCHAR
STARTCHAR F191
ENCODING 61841
SWIDTH 874 0
DWIDTH 34 0
BBX 34 34 0 -2
BITMAP
1FFFFFFE00
7FFFFFFF80
FFFFFFFFC0
FFFFFFFFC0
FFFFFFFFC0
FFFFFFFFC0
FFFFFFFFC0
FFFFF7FFC0
FFFFE7FFC0
FFFFC7FFC0
FFFF87FFC0
FFFF07FFC0
FFFE07FFC0
FFFC07FFC0
FFF807FFC0
FFF007FFC0
FFE007FFC0
FFC007FFC0
FFE007FFC0
FFF007FFC0
FFF807FFC0
FFFC07FFC0
FFFE07FFC0
FFFF07FFC0
FFFF87FFC0
FFFFC7FFC0
FFFFE7FFC0
FFFFF7FFC0
FFFFFFFFC0
FFFFFFFFC0
FFFFFFFFC0
FFFFFFFFC0
FFFFFFFFC0
7FFFFFFF80
ENDCHAR
STARTCHAR F192
ENCODING 61842
SWIDTH 1002 0
DWIDTH 39 0
BBX 37 37 1 -4
BITMAP
0007FF0000
003FFFE000
00FFFFF000
01FFFFFC00
03FFFFFE00
07FFFFFF00
0FFFFFFF80
1FFFFFFFC0
3FFFFFFFC0
3FFFFFFFE0
7FFFFFFFF0
7FFFFFFFF0
7FFF8FFFF0
FFFE03FFF8
FFFC01FFF8
FFF800FFF8
FFF800FFF8
FFF000FFF8
FFF0007FF8
FFF000FFF8
FFF800FFF8
FFF800FFF8
FFFC01FFF8
FFFE03FFF8
7FFFFFFFF0
7FFFFFFFF0
7FFFFFFFE0
3FFFFFFFE0
3FFFFFFFC0
1FFFFFFFC0
0FFFFFFF80
07FFFFFF00
03FFFFFE00
01FFFFFC00
007FFFF000
003FFFC000
0007FF0000
ENDCHAR
STARTCHAR F193
ENCODING 61843
SWIDTH 1002 0
DWIDTH 39 0
BBX 39 39 0 -5
BITMAP
000F800000
001FC00000
003FE00000
003FE00000
003FE00000
003FE00000
003FE00000
003FE00000
003FC00000
003F000000
003E000000
001F000000
001FFFC000
001FFFE000
039FFFE000
0F9FFFE000
1F9FFFE000
1F9F000000
3F8F800000
7E0FFFE000
7C0FFFF800
7C0FFFF800
F80FFFFC00
F807FFFC00
F800007E00
F800003E00
F800003F00
F800031F00
F800071F80
7C00078FBC
7E000F8FFC
7E001F87FE
3F803F87FE
1FC0FF07F8
1FFFFE03E0
0FFFFC01C0
03FFF80000
01FFE00000
003F000000
ENDCHAR
STARTCHAR F195
ENCODING 61845
SWIDTH 745 0
DWIDTH 29 0
BBX 29 34 0 -2
BITMAP
07C00000
07E00000
07E00000
07E03C00
07E3FC00
07FFFC00
07FFFC00
7FFFFC00
FFFFE000
FFFC0000
FFE00C00
FFE1FC00
07FFFC00
07FFFC00
3FFFFC00
FFFFF000
FFFE0000
FFE000F8
FFE000F8
C7E000F8
07E001F8
07E001F8
07E001F8
07E001F0
07E003F0
07E007F0
07E00FE0
07E01FC0
07E07FC0
07E7FF80
07FFFF00
07FFFC00
07FFF800
07FFC000
ENDCHAR
STARTCHAR F197
ENCODING 61847
SWIDTH 1260 0
DWIDTH 49 0
BBX 49 34 0 -2
BITMAP
05800000000000
0DF80000000000
1DFC0000000000
1DFF0000000000
3DFF8000000000
3DFFC000000000
3DFFF000000000
3DFFF800000000
3DFFFE00000000
3DFFFF80000000
7FFFFFF0000000
FFFC0000000000
FFFFFFFFFF8000
FFFFFFFFFFF000
FFFFFFFFFBFC00
FFFFFFFFF3FF00
7FFFFFFFF1FF00
3FFFFFFFF1FF80
7FFFFFFFF1FF00
FFFFFFFFF3FE00
FFFFFFFFFFFC00
FFFFFFFFFFF000
FFFFFFFFFF0000
FFFC0000000000
7FFFFFF0000000
3DFFFF00000000
3DFFFC00000000
3DFFF800000000
3DFFE000000000
3DFFC000000000
3DFF8000000000
1DFE0000000000
1DFC0000000000
0DF00000000000
ENDCHAR
STARTCHAR F199
ENCODING 61849
SWIDTH 874 0
DWIDTH 34 0
BBX 34 34 0 -2
BITMAP
1FFFFFFE00
7FFFFFFF80
FFFFFFFFC0
FFFFFFFFC0
FFFFFFFFC0
FFFFFFFFC0
FFFFFFFFC0
FFFFFFFFC0
F8000007C0
F8000007C0
F8000007C0
F8000007C0
FC00000FC0
FF00003FC0
FF80007FC0
FBC000F7C0
F9F003E7C0
F8780787C0
F83C0F07C0
F80F3C07C0
F807F807C0
F803F007C0
F8000007C0
F8000007C0
F8000007C0
F8000007C0
F8000007C0
FFFFFFFFC0
FFFFFFFFC0
FFFFFFFFC0
FFFFFFFFC0
FFFFFFFFC0
FFFFFFFFC0
7FFFFFFF80
ENDCHAR
STARTCHAR F19C
ENCODING 61852
SWIDTH 1002 0
DWIDTH 39 0
BBX 37 34 1 -2
BITMAP
0000200000
0001F80000
0007FF0000
003FFFE000
00FFFFF800
07FFFFFF00
3FFFFFFFE0
FFFFFFFFF8
FFFFFFFFF8
7FFFFFFFF0
1FFFFFFFC0
0000000000
0000000000
03E0F83E00
03E0F83E00
03E0F83E00
03E0F83E00
03E0F83E00
03E0F83E00
03E0F83E00
03E0F83E00
03E0F83E00
03E0F83E00
03E0F83E00
03E0F83E00
03E0F83E00
03E0F83E00
1FFFFFFFC0
1FFFFFFFC0
1FFFFFFFC0
0000000000
7FFFFFFFF0
FFFFFFFFF8
FFFFFFFFF8
ENDCHAR
STARTCHAR F19D
ENCODING 61853
SWIDTH 1260 0
DWIDTH 49 0
BBX 49 29 0 0
BITMAP
000007F0000000
00003FFE000000
0001FFFFC00000
001FFFFFF80000
00FFFFFFFF8000
07FFFFFFFFF000
3FFFFFFFFFFE00
FFFFFFFFFFFF00
FFFFFFFFFFFF80
FFFFFFFFFFFF00
1FFFFFFFFFFC00
0FFFFFFFFFE000
0E7FFFFFFF0000
0C0FFFFFF00000
0C00FFFF800000
1E201FFC020000
3E3C03E01E0000
3E3F8000FE0000
1E3FF00FFE0000
0C7FFFFFFE0000
1C7FFFFFFE0000
1C7FFFFFFE0000
1E7FFFFFFE0000
1E3FFFFFFC0000
1E0FFFFFF80000
1E01FFFFC00000
1E0007F0000000
1E000000000000
3E000000000000
ENDCHAR
STARTCHAR F1AB
ENCODING 61867
SWIDTH 1260 0
DWIDTH 49 0
BBX 49 25 0 2
BITMAP
7FFFFE3FFFFF00
FFFFFE3FFFFF00
FFFFFE3FFFFF80
FFFFFE3FFFFF80
FFFFFE3FFFFF80
FF87FE3FF1FF80
FF87FE3FF1FF80
FF03FE3E000780
FF03FE3C000780
FF23FE3C000780
FE21FE3FFF1F80
FE31FE3FFE1F80
FC31FE3FC63F80
FC30FE3FC03F80
FC00FE3FC07F80
F800FE3FE0FF80
F8007E3FC07F80
F8F87E3F803F80
F0FC7E3F863F80
F8FC7E3FDF7F80
FFFFFE3FFFFF80
FFFFFE3FFFFF80
FFFFFE3FFFFF80
FFFFFE3FFFFF00
7FFFFE3FFFFE00
ENDCHAR
STARTCHAR F1AC
ENCODING 61868
SWIDTH 1002 0
DWIDTH 39 0
BBX 39 39 0 -5
BITMAP
000FFFFE00
001FFFFF80
001FFFFFC0
001FFFFFE0
001E0007F0
001E0007F0
001E0007F0
3E1E000070
7F9E000070
FF9E000070
FFDE000070
FFDE000070
FFDE000078
FFDE00007C
FFDE00007E
FFDFFFFFFE
FFDFFFFFFE
FFDFFFFFFE
FFDFFFFFFE
FFDFC7E1FE
FFDF83E0FE
FFDF83E0FE
FFDF83E0FE
FFDF83E0FE
FFDFFFFFFE
FFDFFFFFFE
FFDFFFFFFE
FFDFFFFFFE
FFDFFFFFFE
FFDF83E1FE
FFDF83E0FE
FFDF83E0FE
FFDF83E0FE
FFDF83E1FE
FFDFFFFFFE
FFDFFFFFFE
FF9FFFFFFE
7F8FFFFFFC
3F07FFFFF8
ENDCHAR
STARTCHAR F1AD
ENCODING 61869
SWIDTH 874 0
DWIDTH 34 0
BBX 34 39 0 -5
BITMAP
1FFFFFFE00
3FFFFFFF00
3FFFFFFF00
3FFFFFFF00
3FFFFFFF00
3FC1E0FF00
3FC1E0FF00
3FC1E0FF00
3FC1E0FF00
3FC3F0FF00
3FFFFFFF00
3FFFFFFF00
3FC3F0FF00
3FC1E0FF00
3FC1E0FF00
3FC1E0FF00
3FC3F0FF00
3FFFFFFF00
3FFFFFFF00
3FC3F0FF00
3FC1E0FF00
3FC1E0FF00
3FC1E0FF00
3FC1E0FF00
3FFFFFFF00
3FFFFFFF00
3FFFFFFF00
3FFFFFFF00
3FFFFFFF00
3FFE1FFF00
3FFE1FFF00
3FFE1FFF00
3FFE1FFF00
3FFE1FFF00
3FFE1FFF00
3FFE1FFF00
7FFFFFFF80
FFFFFFFFC0
FFFFFFFFC0
ENDCHAR
STARTCHAR F1AE
ENCODING 61870
SWIDTH 745 0
DWIDTH 29 0
BBX 29 39 0 -5
BITMAP
000F8000
001FC000
003FE000
007FF000
007FF000
707FF070
F87FF0F8
FC7FF1F8
FE3FE3F8
7F1FC7F0
3F8F8FE0
1FC01FC0
0FFFFF80
07FFFF00
03FFFE00
01FFFC00
00FFF800
00FFF800
00FFF800
00FFF800
00FFF800
00FFF800
00FFF800
00FFF800
00FFF800
00FFF800
00FFF800
00FFF800
00FDF800
00FDF800
00FDF800
00FDF800
00FDF800
00FDF800
00FDF800
00FDF800
00FDF800
00FDF800
0078F000
ENDCHAR
STARTCHAR F1B0
ENCODING 61872
SWIDTH 1002 0
DWIDTH 39 0
BBX 39 34 0 -2
BITMAP
0018003000
007E00F800
007F01FC00
00FF83FE00
00FF87FE00
00FFC7FE00
00FFC7FE00
00FFC7FE00
00FFC7FE00
007FC7FC00
007FC7FC00
3C3F83F878
7E1F03F0FC
FF000001FC
FF800003FE
FF800007FE
FFC00007FE
FFC00007FE
7FC07C07FC
7FC1FF07FC
3FC7FFC7F8
1FCFFFE7F0
0F9FFFF3E0
003FFFF800
007FFFFC00
00FFFFFE00
01FFFFFE00
01FFFFFF00
03FFFFFF00
03FFFFFF80
03FFFFFF80
03FFFFFF80
03FFEFFF80
01FE00FF00
ENDCHAR
STARTCHAR F1B2
ENCODING 61874
SWIDTH 1002 0
DWIDTH 39 0
BBX 39 38 0 -4
BITMAP
0000380000
0001FF0000
0007FFC000
003FFFF800
01FFFFFF00
07FFCFFFC0
3FFF01FFF8
7FF8003FFC
FFC0000FFE
FF000001FE
F80000003E
FE000000FE
FF800003FE
FFF0001FFE
FFFC007FFE
FFFF83FFFE
FFFFEFFFBE
FFFFFFFC3E
FFFFFFF03E
FFFFFF803E
FFFFFE003E
FFFFFC003E
FFFFFC003E
FFFFFC003E
FFFFFC003E
FFFFFC003E
FFFFFC007E
FFFFFC01FE
FFFFFC07FC
7FFFFC1FFC
1FFFFC7FF0
07FFFDFFC0
01FFFFFF00
007FFFFC00
001FFFF000
0007FFC000
0001FF0000
00007C0000
ENDCHAR
STARTCHAR F1B3
ENCODING 61875
SWIDTH 1002 0
DWIDTH 39 0
BBX 39 34 0 -3
BITMAP
0000100000
0000FE0000
0007FFC000
001FC7F000
003E01F800
0078003C00
0078003C00
007F01FC00
007FC7FC00
007FFF9C00
007FFE1C00
007FF81C00
007FF81C00
007FF81C00
00FFF81E00
03FFF8FF80
1FFFFFFFF0
7F07FFC1FC
F801FE003E
E00038000E
F800FE003E
FF07FFC1FE
FFDFFFF7FE
FFFE3FFFCE
FFF83FFE0E
FFF03FFC0E
FFF03FFC0E
FFF03FFC0E
FFF07FFC1E
FFF1FFFC7C
3FF7EFFDF8
0FFF83FFE0
03FE00FF80
00F8003E00
ENDCHAR
STARTCHAR F1B8
ENCODING 61880
SWIDTH 1002 0
DWIDTH 39 0
BBX 39 39 0 -5
BITMAP
00007C0000
0001FF0000
0003FF8000
0007FFC000
0007FFC000
000FC7E000
000F83F080
000703F3C0
000101FF80
000000FF80
000000FF80
01F000FF80
3FF003FF80
7FF807FF00
3FF807FF00
1FF801FF00
07F8000F00
0FF8000000
0FFC000000
1FFC000030
1F1C0000F0
3F000001F8
7E000000FC
7C000000FC
FC0003007E
F80007003E
F8000F003E
F8001F003E
FC003F007E
7FF07FFFFC
7FF0FFFFFC
3FF0FFFFF8
1FF0FFFFF0
0FF07FFFC0
00003F0000
00001F0000
00000F0000
0000070000
0000030000
ENDCHAR
STARTCHAR F1B9
ENCODING 61881
SWIDTH 1002 0
DWIDTH 39 0
BBX 39 29 0 0
BITMAP
001FFFF000
007FFFF800
00FFFFFE00
01FFFFFF00
03FFFFFF00
03F0001F80
03E0000F80
07C0000FC0
FFC00007FE
FFC00007FE
7F800003FC
0FFFFFFFE0
3FFFFFFFF0
3FFFFFFFF8
7FFFFFFFFC
78FFFFFE3C
707FFFFC3C
703FFFF81C
783FFFF83C
783FFFF87C
7FFFFFFFF8
3FFFFFFFF8
3FFFFFFFF0
3FFFFFFFF0
3FC00007F0
3FC00007F0
3FC00007F0
3FC00007F0
1F800003F0
ENDCHAR
STARTCHAR F1BA
ENCODING 61882
SWIDTH 1002 0
DWIDTH 39 0
BBX 37 34 1 -2
BITMAP
000FFF0000
001FFFC000
001FFFC000
001FFFC000
001FFFC000
007FFFF000
01FFFFFC00
03FFFFFE00
07FFFFFF00
07FFFFFF00
0FC0001F80
0F80000F80
0F80000F80
0F80000F80
1F000007C0
1F000007C0
1FFFFFFFC0
7FFFFFFFF0
FFFFFFFFF8
FFFFFFFFF8
FFFFFFFFF8
F0FFFFF8F8
F07FFFF078
F07FFFF078
F07FFFF078
F0FFFFF8F8
FFFFFFFFF8
FFFFFFFFF0
7FFFFFFFE0
7FFFFFFFE0
7F80000FE0
7F80000FE0
7F80000FE0
3F80000FE0
ENDCHAR
STARTCHAR F1BB
ENCODING 61883
SWIDTH 745 0
DWIDTH 29 0
BBX 29 39 0 -5
BITMAP
00070000
000F8000
001FC000
003FE000
003FF000
007FF800
00FFF800
01FFFC00
03FFFE00
07FFFF00
07FFFF00
07FFFF00
007FF000
00FFF800
01FFFC00
03FFFE00
07FFFF00
0FFFFF80
1FFFFFC0
1FFFFFE0
3FFFFFE0
1FFFFFC0
03FFFE00
07FFFF00
0FFFFF80
1FFFFFC0
3FFFFFE0
7FFFFFF0
FFFFFFF8
FFFFFFF8
FFFFFFF8
7FFFFFF0
001FC000
001FC000
003FE000
003FF000
007FF800
00FFF800
00FFF800
ENDCHAR
STARTCHAR F1C0
ENCODING 61888
SWIDTH 874 0
DWIDTH 34 0
BBX 34 39 0 -5
BITMAP
003FFF0000
07FFFFF800
1FFFFFFE00
7FFFFFFF80
FFFFFFFFC0
FFFFFFFFC0
FFFFFFFFC0
FFFFFFFFC0
FFFFFFFFC0
FFFFFFFFC0
7FFFFFFF80
3FFFFFFF00
0FFFFFFC00
01FFFFE000
C001F000C0
F8000007C0
FF80007FC0
FFFFFFFFC0
FFFFFFFFC0
FFFFFFFFC0
FFFFFFFFC0
FFFFFFFFC0
FFFFFFFFC0
3FFFFFFF00
1FFFFFFE00
03FFFFF000
C00FFC00C0
F0000003C0
FF00003FC0
FFFFFFFFC0
FFFFFFFFC0
FFFFFFFFC0
FFFFFFFFC0
FFFFFFFFC0
FFFFFFFFC0
7FFFFFFF80
1FFFFFFE00
03FFFFF000
001FFE0000
ENDCHAR
STARTCHAR F1C1
ENCODING 61889
SWIDTH 745 0
DWIDTH 29 0
BBX 29 39 0 -5
BITMAP
7FFF9800
FFFF9C00
FFFF9E00
FFFF9F00
FFFF9F80
FFFF9FC0
FFFF9FE0
FFFF9FF0
FFFF9FF8
FFFF9FF8
FFFF8000
FFFF8000
FFFFFFF8
FFFFFFF8
FFFFFFF8
FFF1FFF8
FFF4FFF8
FFF4FFF8
FFF1FFF8
FFF1FFF8
FFF1FFF8
FFF1FFF8
FFF0FFF8
FFF4FFF8
FFE67FF8
FFE701F8
FFCE00F8
FFC006F8
FF83F0F8
FE1FFFF8
FD1FFFF8
F93FFFF8
F87FFFF8
F8FFFFF8
FFFFFFF8
FFFFFFF8
FFFFFFF8
FFFFFFF8
7FFFFFF0
ENDCHAR
STARTCHAR F1C2
ENCODING 61890
SWIDTH 745 0
DWIDTH 29 0
BBX 29 39 0 -5
BITMAP
7FFF9800
FFFF9C00
FFFF9E00
FFFF9F00
FFFF9F80
FFFF9FC0
FFFF9FE0
FFFF9FF0
FFFF9FF8
FFFF9FF8
FFFF8000
FFFF8000
FFFFFFF8
FFFFFFF8
FFFFFFF8
FFFFFFF8
FFFFFFF8
FFFFFFF8
FFFFFFF8
FCF8F9F8
F87870F8
F87070F8
FC7070F8
FC7071F8
FC3031F8
FC2221F8
FC2221F8
FE2223F8
FE2223F8
FE0303F8
FE0703F8
FF0703F8
FF0707F8
FF0F87F8
FFFFFFF8
FFFFFFF8
FFFFFFF8
FFFFFFF8
7FFFFFF0
ENDCHAR
STARTCHAR F1C3
ENCODING 61891
SWIDTH 745 0
DWIDTH 29 0
BBX 29 39 0 -5
BITMAP
7FFF9800
FFFF9C00
FFFF9E00
FFFF9F00
FFFF9F80
FFFF9FC0
FFFF9FE0
FFFF9FF0
FFFF9FF8
FFFF9FF8
FFFF8000
FFFF8000
FFFFFFF8
FFFFFFF8
FFFFFFF8
FFFFFFF8
FFFFFFF8
FF0F83F8
FF0F87F8
FF0707F8
FF870FF8
FFC20FF8
FFC21FF8
FFE03FF8
FFF03FF8
FFF07FF8
FFF03FF8
FFE03FF8
FFC21FF8
FFC20FF8
FF870FF8
FF0707F8
FF0F83F8
FF0F83F8
FFFFFFF8
FFFFFFF8
FFFFFFF8
FFFFFFF8
7FFFFFF0
ENDCHAR
STARTCHAR F1C4
ENCODING 61892
SWIDTH 745 0
DWIDTH 29 0
BBX 29 39 0 -5
BITMAP
7FFF9800
FFFF9C00
FFFF9E00
FFFF9F00
FFFF9F80
FFFF9FC0
FFFF9FE0
FFFF9FF0
FFFF9FF8
FFFF9FF8
FFFF8000
FFFF8000
FFFFFFF8
FFFFFFF8
FFFFFFF8
FFFFFFF8
FFFFFFF8
FF803FF8
FF001FF8
FF000FF8
FF0007F8
FF0707F8
FF0787F8
FF0787F8
FF0707F8
FF0007F8
FF000FF8
FF001FF8
FF007FF8
FF07FFF8
FF07FFF8
FF07FFF8
FF07FFF8
FF8FFFF8
FFFFFFF8
FFFFFFF8
FFFFFFF8
FFFFFFF8
7FFFFFF0
ENDCHAR
STARTCHAR F1C5
ENCODING 61893
SWIDTH 745 0
DWIDTH 29 0
BBX 29 39 0 -5
BITMAP
7FFF9800
FFFF9C00
FFFF9E00
FFFF9F00
FFFF9F80
FFFF9FC0
FFFF9FE0
FFFF9FF0
FFFF9FF8
FFFF9FF8
FFFF8000
FFFF8000
FFFFFFF8
FE3FFFF8
FC1FFFF8
F80FFFF8
F80FFFF8
F80FFFF8
F80FFFF8
FC1FFFF8
FF3FF3F8
FFFFE1F8
FFFFC0F8
FFFF80F8
FFFF00F8
FE3E00F8
FC1C00F8
F80800F8
F80000F8
F80000F8
F80000F8
F80000F8
FFFFFFF8
FFFFFFF8
FFFFFFF8
FFFFFFF8
FFFFFFF8
FFFFFFF8
7FFFFFF0
ENDCHAR
STARTCHAR F1C6
ENCODING 61894
SWIDTH 745 0
DWIDTH 29 0
BBX 29 39 0 -5
BITMAP
7FCF9800
FFCF9C00
FE3F9E00
FE3F9F00
FE3F9F80
FFCF9FC0
FFCF9FE0
FE3F9FF0
FE3F9FF8
FE3F9FF8
FFCF8000
FFCF8000
FE3FFFF8
FE3FFFF8
FE3FFFF8
FFCFFFF8
FFCFFFF8
FE3FFFF8
FE3FFFF8
FE0FFFF8
FE0FFFF8
FE07FFF8
FE07FFF8
FE07FFF8
FC07FFF8
FC07FFF8
FCF3FFF8
FDF3FFF8
FCF3FFF8
FC67FFF8
FE0FFFF8
FF9FFFF8
FFFFFFF8
FFFFFFF8
FFFFFFF8
FFFFFFF8
FFFFFFF8
FFFFFFF8
7FFFFFF0
ENDCHAR
STARTCHAR F1C7
ENCODING 61895
SWIDTH 745 0
DWIDTH 29 0
BBX 29 39 0 -5
BITMAP
7FFF9800
FFFF9C00
FFFF9E00
FFFF9F00
FFFF9F80
FFFF9FC0
FFFF9FE0
FFFF9FF0
FFFF9FF8
FFFF9FF8
FFFF8000
FFFF8000
FFFFFFF8
FFFFFFF8
FFFFFFF8
FFFFFFF8
FFFFFFF8
FFFFFFF8
FFFFC7F8
FFEFC3F8
FFCFC1F8
FF8E61F8
FC0C30F8
F80C30F8
F80E18F8
F80E18F8
F80E18F8
F80C10F8
FC0C30F8
FF8E70F8
FFCFE1F8
FFEFC1F8
FFFFC3F8
FFFFE7F8
FFFFFFF8
FFFFFFF8
FFFFFFF8
FFFFFFF8
7FFFFFF0
ENDCHAR
STARTCHAR F1C8
ENCODING 61896
SWIDTH 745 0
DWIDTH 29 0
BBX 29 39 0 -5
BITMAP
7FFF9800
FFFF9C00
FFFF9E00
FFFF9F00
FFFF9F80
FFFF9FC0
FFFF9FE0
FFFF9FF0
FFFF9FF8
FFFF9FF8
FFFF8000
FFFF8000
FFFFFFF8
FFFFFFF8
FFFFFFF8
FFFFFFF8
FFFFFFF8
FFFFFFF8
FFFFFFF8
FC00FDF8
F80078F8
F80070F8
F80060F8
F80040F8
F80000F8
F80000F8
F80000F8
F80040F8
F80060F8
F80070F8
F80078F8
FC00FDF8
FFFFFFF8
FFFFFFF8
FFFFFFF8
FFFFFFF8
FFFFFFF8
FFFFFFF8
7FFFFFF0
ENDCHAR
STARTCHAR F1C9
ENCODING 61897
SWIDTH 745 0
DWIDTH 29 0
BBX 29 39 0 -5
BITMAP
7FFF9800
FFFF9C00
FFFF9E00
FFFF9F00
FFFF9F80
FFFF9FC0
FFFF9FE0
FFFF9FF0
FFFF9FF8
FFFF9FF8
FFFF8000
FFFF8000
FFFFFFF8
FFFFFFF8
FFFFFFF8
FFFFFFF8
FFFFFFF8
FFFE3FF8
FFFE3FF8
FFFE3FF8
FFFE3FF8
FF3C67F8
FE1C41F8
FC3C60F8
F878F078
F0F8FC38
F878F078
FC38E0F8
FE11C1F8
FF31E7F8
FFF1FFF8
FFE3FFF8
FFE3FFF8
FFE3FFF8
FFFFFFF8
FFFFFFF8
FFFFFFF8
FFFFFFF8
7FFFFFF0
ENDCHAR
STARTCHAR F1CD
ENCODING 61901
SWIDTH 1002 0
DWIDTH 39 0
BBX 37 37 1 -4
BITMAP
0007FF0000
003FFFE000
00FFFFF000
01FFFFFC00
03FFFFFE00
077FFFFF00
0E3FFFE380
1C1FFFC1C0
380FFF81C0
3C07FF01E0
7E07FF03F0
7F0F0787F0
7F9C01CFF0
FFF800FFF8
FFF0007FF8
FFF0007FF8
FFE0007FF8
FFE0003FF8
FFE0003FF8
FFE0003FF8
FFE0007FF8
FFF0007FF8
FFF0007FF8
FFF800FFF8
7F9C03CFF0
7F0F8F87F0
7E07FF03E0
3C07FF01E0
3C0FFF81C0
1C1FFFC1C0
0E3FFFE780
07FFFFFF00
03FFFFFE00
01FFFFFC00
007FFFF000
003FFFC000
0007FF0000
ENDCHAR
STARTCHAR F1CE
ENCODING 61902
SWIDTH 1002 0
DWIDTH 39 0
BBX 37 37 1 -4
BITMAP
0006030000
003F07E000
00FF07F800
01FF07FC00
03FE07FE00
07F800FF00
0FE0003F80
1FC0001FC0
3F80000FC0
3F000007E0
7E000003F0
7C000001F0
7C000001F0
F8000000F8
F8000000F8
F8000000F8
F8000000F8
F0000000F8
F0000000F8
F8000000F8
F8000000F8
F8000000F8
F8000000F8
F8000001F8
7C000001F0
7C000001F0
7E000003E0
3F000007E0
3F80000FC0
1FC0001FC0
0FE0003F80
07F801FF00
03FFFFFE00
01FFFFFC00
007FFFF000
003FFFE000
0007FF0000
ENDCHAR
STARTCHAR F1D8
ENCODING 61912
SWIDTH 1002 0
DWIDTH 39 0
BBX 39 39 0 -5
BITMAP
000000000C
000000003E
00000000FE
00000003FE
00000007FE
0000001FFC
0000007FFC
000000FFFC
000003FCFC
00000FF9FC
00003FF3FC
00007FE7F8
0001FFCFF8
0007FF8FF8
001FFF1FF8
003FFC3FF8
00FFF87FF8
03FFF0FFF0
07FFE0FFF0
1FFFC1FFF0
7FFF83FFF0
FFFF07FFF0
FFFE0FFFE0
7FF81FFFE0
1FF01FFFE0
07E03FFFE0
00C07FFFE0
0000FFFFE0
0001FFFFC0
0003FFFFC0
0003FFFFC0
0007FFFFC0
0007FBFFC0
0007F0FFC0
0007F01F80
0007E00780
0007C00000
0007800000
0003000000
ENDCHAR
STARTCHAR F1DA
ENCODING 61914
SWIDTH 1002 0
DWIDTH 39 0
BBX 37 37 1 -4
BITMAP
0007FF0000
C03FFFE000
E0FFFFF000
F1FFFFFC00
FBFFCFFE00
FFF800FF00
FFE0003F80
FFC0001FC0
FF80000FC0
FFC0F807E0
FFE0F803F0
FFF0F801F0
FFF8F801F0
FFF8F800F8
0000F800F8
0000F800F8
0000F800F8
0000F800F8
0000F800F8
0000FC00F8
0000FF00F8
00007F80F8
00003F80F8
00001F01F8
00000601F0
00000001F0
00000003E0
00000007E0
0000000FC0
01C0001FC0
03E0003F80
03F801FF00
03FFFFFE00
01FFFFFC00
007FFFF000
001FFFC000
0007FF0000
ENDCHAR
STARTCHAR F1DC
ENCODING 61916
SWIDTH 1002 0
DWIDTH 39 0
BBX 37 34 1 -2
BITMAP
7FFC01FFF0
FFFE03FFF8
FFFE03FFF8
FFFE03FFF8
FFFE03FFF8
0FE0003F80
0FE0003F80
0FE0003F80
0FE0003F80
0FE0003F80
0FE0003F80
0FE0003F80
0FE0003F80
0FE0003F80
0FE0003F80
0FFFFFFF80
0FFFFFFF80
0FFFFFFF80
0FFFFFFF80
0FFFFFFF80
0FE0003F80
0FE0003F80
0FE0003F80
0FE0003F80
0FE0003F80
0FE0003F80
0FE0003F80
0FE0003F80
0FE0003F80
0FE0003F80
FFFE03FFF8
FFFE03FFF8
FFFE03FFF8
FFFE03FFF8
ENDCHAR
STARTCHAR F1DD
ENCODING 61917
SWIDTH 874 0
DWIDTH 34 0
BBX 32 34 1 -2
BITMAP
001FFFFE
01FFFFFF
03FFFFFF
0FFFFFFF
1FFFFFFF
3FFFFFFF
3FFFC7E0
7FFFC7E0
7FFFC7E0
7FFFC7E0
FFFFC7E0
FFFFC7E0
FFFFC7E0
FFFFC7E0
FFFFC7E0
7FFFC7E0
7FFFC7E0
7FFFC7E0
3FFFC7E0
3FFFC7E0
1FFFC7E0
0FFFC7E0
07FFC7E0
01FFC7E0
003FC7E0
000FC7E0
000FC7E0
000FC7E0
000FC7E0
000FC7E0
000FC7E0
000FC7E0
000FC7E0
0007C7E0
ENDCHAR
STARTCHAR F1DE
ENCODING 61918
SWIDTH 1131 0
DWIDTH 44 0
BBX 44 34 0 -3
BITMAP
00F000000000
01F000000000
FFFFFFFFFFF0
FFFFFFFFFFF0
FFFFFFFFFFF0
FFFFFFFFFFF0
FFFFFFFFFFF0
01F000000000
01F000000000
000000000000
000000000000
000000000000
00000000F000
00000000F000
FFFFFFFFFFE0
FFFFFFFFFFF0
FFFFFFFFFFF0
FFFFFFFFFFF0
FFFFFFFFFFF0
00000000F000
00000000F000
000000006000
000000000000
000000000000
000038000000
00007C000000
7FFFFFFFFFE0
FFFFFFFFFFF0
FFFFFFFFFFF0
FFFFFFFFFFF0
FFFFFFFFFFF0
00007C000000
00007C000000
000038000000
ENDCHAR
STARTCHAR F1E0
ENCODING 61920
SWIDTH 874 0
DWIDTH 34 0
BBX 34 39 0 -5
BITMAP
000000FC00
000003FE00
000007FF00
00000FFF80
00000FFFC0
00000FFFC0
00001FFFC0
00001FFFC0
00000FFFC0
00001FFFC0
00007FFF80
0001FFFF80
07C3FFFF00
1FFFF9FE00
3FFFF03000
7FFFC00000
7FFF800000
FFFE000000
FFFE000000
FFFE000000
FFFC000000
FFFE000000
7FFF800000
7FFFC00000
3FFFF07800
1FEFFDFE00
0783FFFF00
0000FFFF80
00007FFF80
00001FFFC0
00001FFFC0
00001FFFC0
00001FFFC0
00000FFFC0
00000FFF80
00000FFF80
000007FF00
000003FE00
000000F800
ENDCHAR
STARTCHAR F1E1
ENCODING 61921
SWIDTH 874 0
DWIDTH 34 0
BBX 34 34 0 -2
BITMAP
1FFFFFFE00
7FFFFFFF80
FFFFFFFFC0
FFFFFFFFC0
FFFFFFFFC0
FFFFFFFFC0
FFFFF87FC0
FFFFF03FC0
FFFFE01FC0
FFFFE01FC0
FFFFE01FC0
FFFFC01FC0
FFFF801FC0
FF86083FC0
FF003FFFC0
FE00FFFFC0
FE01FFFFC0
FE01FFFFC0
FE01FFFFC0
FE007FFFC0
FF003EFFC0
FFCE003FC0
FFFF801FC0
FFFFE01FC0
FFFFE01FC0
FFFFE01FC0
FFFFE01FC0
FFFFF03FC0
FFFFF87FC0
FFFFFFFFC0
FFFFFFFFC0
FFFFFFFFC0
FFFFFFFFC0
7FFFFFFF80
ENDCHAR
STARTCHAR F1E2
ENCODING 61922
SWIDTH 1002 0
DWIDTH 39 0
BBX 39 39 0 -5
BITMAP
0000000040
00000002C8
00000007D8
0000000378
0000000000
000000001E
0000000190
0007E1C3B8
003FFFE718
00FFFFFE08
03FFFFFC00
07FFFFFC00
0FFFFFFE00
1FF3FFFF00
3F81FFFF00
3F03FFFE00
7E1FFFFC00
7E3FFFFE00
7C7FFFFE00
FC7FFFFE00
FCFFFFFE00
FCFFFFFF00
FFFFFFFF00
FFFFFFFF00
FFFFFFFF00
FFFFFFFE00
FFFFFFFE00
7FFFFFFE00
7FFFFFFE00
7FFFFFFC00
3FFFFFFC00
3FFFFFF800
1FFFFFF000
0FFFFFF000
07FFFFE000
03FFFFC000
01FFFF0000
007FFC0000
000FE00000
ENDCHAR
STARTCHAR F1E3
ENCODING 61923
SWIDTH 1002 0
DWIDTH 39 0
BBX 37 37 1 -4
BITMAP
0007FF0000
003FFFE000
00FFFFF000
01FFFFFC00
03F3FE7E00
07C7FF3F00
0F87FF0F80
1F01FC07C0
3E007003C0
3F80200DE0
7F80000FE0
7F80000FF0
7F80000FF0
FFC0701FF8
FFC0F81FF8
FFC3FE1FF8
FF87FF0FF8
FF07FF07F8
FE07FF03F8
E407FE0138
E003FE0078
F003FE0078
F003FC0078
F001FC0078
70000000F0
79F0007CF0
7BFC01FFE0
3FFC01FFE0
3FFE03FFC0
1FFE03FFC0
0FFF07FF80
07FF07FF00
03FC01FE00
01FF8FFC00
007FFFF000
001FFFC000
0007FF0000
ENDCHAR
STARTCHAR F1E4
ENCODING 61924
SWIDTH 1002 0
DWIDTH 39 0
BBX 39 39 0 -5
BITMAP
0003FF8000
003FFFF000
00FFFFFE00
03FFFFFF80
0FFFFFFFC0
1FFFFFFFF0
3FF8003FF8
7FF0001FFC
FFF0001FFE
FFF0003FFE
7FF8003FFC
7FF8003FF8
3FF0001FF8
1FC00007F0
1E000001F0
0000000000
0000000000
0000000000
0000000000
1E3C3878F0
3E3E7CF8F0
3E3E7CF8F0
3E3E7CF8F0
3E3E7CF8F0
0000000000
0000000000
0000000000
03E7C7CF80
03E7C7CF80
03E7C7CF80
03E7C7CF80
01C3C78F00
0000000000
0000000000
1E3FFFF8F0
3E3FFFF8F0
3E3FFFF8F0
3E3FFFF8F0
1E3FFFF8F0
ENDCHAR
STARTCHAR F1E5
ENCODING 61925
SWIDTH 1002 0
DWIDTH 39 0
BBX 39 34 0 -2
BITMAP
00F8003C00
01FC00FE00
01FE00FF00
01FE00FF00
01FE00FF00
01FE00FF00
0000000000
0000000000
07FEFCFFC0
07FEFCFFC0
07FEFCFFC0
07FEFCFFC0
07FEFCFFC0
0FFEFCFFE0
0FFEFCFFE0
0FFEFCFFE0
1FFEFCFFF0
1FFEFCFFF0
3FFEFCFFF0
3FFEFCFFF8
3FF8003FF8
7FF8003FFC
7FF8003FFC
7FF8003FFC
FFF8003FFC
FFF8003FFE
FFF8003FFE
FFF8003FFE
FFF8003FFE
FFF8003FFE
0000000000
FFF8003FFE
FFF8003FFE
FFF8003FFE
ENDCHAR
STARTCHAR F1E6
ENCODING 61926
SWIDTH 745 0
DWIDTH 29 0
BBX 29 39 0 -5
BITMAP
03800E00
07C00F00
07C01F00
07C01F00
07C01F00
07C01F00
07C01F00
07C01F00
07C01F00
07C01F00
07C01F00
00000000
FFFFFFF8
FFFFFFF8
FFFFFFF8
FFFFFFF8
FFFFFFF8
3FFFFFE0
3FFFFFE0
3FFFFFE0
3FFFFFE0
1FFFFFE0
1FFFFFC0
1FFFFFC0
1FFFFFC0
0FFFFF80
07FFFF80
07FFFF00
03FFFE00
00FFFC00
007FF000
000F8000
000F8000
000F8000
000F8000
000F8000
000F8000
000F8000
000F8000
ENDCHAR
STARTCHAR F1EA
ENCODING 61930
SWIDTH 1131 0
DWIDTH 44 0
BBX 44 29 0 0
BITMAP
07FFFFFFFFE0
07FFFFFFFFF0
7FFFFFFFFFF0
FFFFFFFFFFF0
FFFFFFFFFFF0
FFC0000001F0
F7C0000001F0
F7C0000001F0
F7C0000001F0
F7C0000003F0
F7FFFFFFFFF0
F7FFFFFFFFF0
F7FFFFFFFFF0
F7FFFFFFFFF0
F7C001C003F0
F7C001C001F0
F7C001C001F0
F7FFFFFFFFF0
F7FFFFFFFFF0
F7FFFFFFFFF0
F7FFFFFFFFF0
F7FFFFFFFFF0
F7C001C001F0
F7C001C001F0
F7FFFFFFFFF0
FFFFFFFFFFF0
FFFFFFFFFFF0
7FFFFFFFFFE0
3FFFFFFFFFC0
ENDCHAR
STARTCHAR F1EB
ENCODING 61931
SWIDTH 1260 0
DWIDTH 49 0
BBX 48 34 0 -2
BITMAP
000003E00000
0000FFFF8000
000FFFFFF000
003FFFFFFE00
00FFFFFFFF80
03FFFFFFFFC0
07FFFE3FFFF0
1FFF8000FFF8
3FFC00001FFE
7FF0000007FF
FFC0000001FF
7F000000007F
3E000000003E
18003FFE001C
0001FFFFC000
0007FFFFF000
001FFFFFF800
003FFFFFFE00
007FFFFFFF00
007FE007FF00
007F8000FE00
003E00003C00
001C00001800
000000000000
000000000000
000003E00000
00000FF00000
00000FF80000
00000FF80000
00001FF80000
00000FF80000
00000FF80000
00000FF00000
000007E00000
ENDCHAR
STARTCHAR F1EC
ENCODING 61932
SWIDTH 874 0
DWIDTH 34 0
BBX 34 39 0 -5
BITMAP
3FFFFFFF00
7FFFFFFF80
FFFFFFFFC0
FFFFFFFFC0
FFFFFFFFC0
F8000007C0
F8000007C0
F8000007C0
F8000007C0
F8000007C0
F8000007C0
F8000007C0
F8000007C0
F8000007C0
FC000007C0
FFFFFFFFC0
FFFFFFFFC0
FFFFFFFFC0
FFFFFFFFC0
F87E1F87C0
F83E1F07C0
F83E1F07C0
F83E1F07C0
F83E1F07C0
FFFFFF07C0
FFFFFF07C0
FFFFFF07C0
FFFFFF07C0
FFFFFF07C0
F83E1F07C0
F83E1F07C0
F83E1F07C0
F83E1F07C0
F83E1F07C0
FFFFFFFFC0
FFFFFFFFC0
FFFFFFFFC0
7FFFFFFF80
3FFFFFFF00
ENDCHAR
STARTCHAR F1F6
ENCODING 61942
SWIDTH 1131 0
DWIDTH 44 0
BBX 44 39 0 -5
BITMAP
70000E000000
F8000F000000
FC001F000000
FE000F000000
7F807FC00000
3FC1FFF00000
1FE3FFFC0000
0FF7FFFE0000
03FFFFFF0000
01FFFFFF0000
00FFFFFF8000
007FFFFF8000
003FFFFFC000
001FFFFFC000
0007FFFFC000
0003FFFFC000
0001FFFFC000
0020FFFFC000
00307FFFC000
00383FFFC000
007C1FFFC000
007E07FFE000
007F03FFE000
007F81FFE000
00FFC0FFE000
00FFF07FF000
01FFF83FF800
03FFFC1FFC00
07FFFE07FC00
07FFFF03FE00
07FFFF81FE00
07FFFFC0FE00
07FFFFF07F80
01FFFFF83FC0
00006FE01FE0
000067C007F0
000033C003F0
00003F8001E0
00000F0000C0
ENDCHAR
STARTCHAR F1F8
ENCODING 61944
SWIDTH 874 0
DWIDTH 34 0
BBX 34 39 0 -5
BITMAP
001FFE0000
001FFE0000
7FFFFFFF80
FFFFFFFFC0
FFFFFFFFC0
FFFFFFFFC0
FFFFFFFFC0
0000000000
0000000000
0000000000
1FFFFFFE00
1FFFFFFE00
1FFFFFFE00
1FFFFFFE00
1FFFFFFE00
1FFFFFFE00
1FFFFFFE00
1FFFFFFE00
1FFFFFFE00
1FFFFFFE00
1FFFFFFE00
1FFFFFFE00
1FFFFFFE00
1FFFFFFE00
1FFFFFFE00
1FFFFFFE00
1FFFFFFE00
0FFFFFFC00
0FFFFFFC00
0FFFFFFC00
0FFFFFFC00
0FFFFFFC00
0FFFFFFC00
0FFFFFFC00
0FFFFFFC00
0FFFFFFC00
0FFFFFFC00
07FFFFF800
03FFFFF000
ENDCHAR
STARTCHAR F1F9
ENCODING 61945
SWIDTH 1002 0
DWIDTH 39 0
BBX 37 37 1 -4
BITMAP
0007FF0000
003FFFE000
00FFFFF000
01FFFFFC00
03FFFFFE00
07FFFFFF00
0FFFFFFF80
1FFFDFFFC0
3FFC00FFC0
3FF0003FE0
7FE0001FF0
7FC0001FF0
7FC0003FF0
FF80FE3FF8
FF81FF7FF8
FF03FFFFF8
FF03FFFFF8
FF03FFFFF8
FF07FFFFF8
FF03FFFFF8
FF03FFFFF8
FF03FFFFF8
FF81FF3FF8
FF80FC3FF8
7FC0001FF0
7FC0000FF0
7FE0001FE0
3FF8007FE0
3FFE01FFC0
1FFFFFFFC0
0FFFFFFF80
07FFFFFF00
03FFFFFE00
01FFFFFC00
007FFFF000
003FFFC000
0007FF0000
ENDCHAR
STARTCHAR F1FA
ENCODING 61946
SWIDTH 1002 0
DWIDTH 39 0
BBX 37 37 1 -4
BITMAP
0007FF8000
003FFFF000
00FFFFF800
01FFFFFE00
03FF8FFF00
07F800FF80
0FE0001FC0
1FC0000FE0
3F800007E0
3F03FDF3F0
7E0FFFF9F0
7C1FFFF9F8
7C3FFFF8F8
F87FFFF0F8
F87F8FF0F8
F8FE07F0F8
F8FE07F0F8
F0FC07F0F8
F0FC07E0F8
F8FC07E0F8
F9FC0FE1F8
F8FE1FE1F0
F8FF3FE7F0
F8FFFFFFE0
7CFFFFFFE0
7C7FF7FF80
7E3FE7FF00
3F1FC1F800
3F80000000
1FC0000000
0FE0007000
07FC01F800
03FFFFFC00
01FFFFF800
007FFFF000
003FFFE000
0007FF0000
ENDCHAR
STARTCHAR F1FB
ENCODING 61947
SWIDTH 1002 0
DWIDTH 39 0
BBX 39 39 0 -5
BITMAP
00000007E0
0000000FF0
0000001FF8
0000003FFC
0000007FFC
000000FFFE
000021FFFE
0000F3FFFE
0001FFFFFE
0003FFFFFC
0003FFFFFC
0007FFFFF8
0003FFFFF0
0001FFFFE0
0000FFFFC0
00007FFF80
00043FFF00
000E1FFE00
001F0FFE00
003F87FF00
007FC3FF00
00FFE1FF00
01FFF0FE00
03FFF87C00
07FFFC3800
0FFFFE0000
1FFFFC0000
3FFFF80000
3FFFF00000
3FFFE00000
3FFFC00000
3FFF800000
3FFF000000
3FFE000000
7FFC000000
7FF8000000
FE00000000
7800000000
2000000000
ENDCHAR
STARTCHAR F1FC
ENCODING 61948
SWIDTH 1002 0
DWIDTH 39 0
BBX 39 39 0 -5
BITMAP
0000000078
00000000FC
00000001FE
00000007FE
0000000FFE
0000001FFC
0000003FFC
0000007FFC
000000FFF8
000001FFF0
000003FFF0
00000FFFE0
00001FFFE0
00003FFFC0
00007FFFC0
00007FFF80
0000FFFF80
0000FFFF00
0000FFFE00
0000FFFE00
0000FFFC00
0000FFF800
00047FF000
003E3FE000
00FE1FC000
01FF020000
03FFC00000
83FFF00000
E7FFF80000
FFFFF80000
FFFFF80000
7FFFF00000
7FFFF00000
7FFFF00000
3FFFE00000
1FFFE00000
0FFFC00000
07FF000000
01FC000000
ENDCHAR
STARTCHAR F1FD
ENCODING 61949
SWIDTH 874 0
DWIDTH 34 0
BBX 34 39 0 -5
BITMAP
0100401000
0180603000
0380E03800
07C1E07800
07C1E0F800
07C1E0F800
0381E07000
0000000000
07C1E0F800
07C1E0F800
07C1E0F800
07C1E0F800
07C1E0F800
07C1E0F800
07C1E0F800
07C1E0F800
07C1E0F800
07C1E0F800
07C1E0F800
1FFFFFFE00
7FFFFFFF80
FFFFFFFFC0
FFFFFFFFC0
FFFFFFFFC0
FFFFFFFFC0
FFFFFFFFC0
FFFFFFFFC0
E0FC0FC1C0
C0380700C0
0E00C01C00
1F03F03E00
7FCFFDFF80
FFFFFFFFC0
FFFFFFFFC0
FFFFFFFFC0
FFFFFFFFC0
FFFFFFFFC0
FFFFFFFFC0
FFFFFFFFC0
ENDCHAR
STARTCHAR F1FE
ENCODING 61950
SWIDTH 1002 0
DWIDTH 39 0
BBX 39 29 0 0
BITMAP
F800000000
F800000000
F802000000
F807000000
F807800000
F80F800000
F80FC00000
F81FE00C00
F83FF03C00
F83FF07E00
F87FF9FE00
F87FFFFF00
F8FFFFFF00
F9FFFFFF80
F9FFFFFF80
F9FFFFFF80
F9FFFFFFC0
F9FFFFFFC0
F9FFFFFFE0
F9FFFFFFE0
F9FFFFFFF0
F9FFFFFFF0
F800000000
F800000000
FFFFFFFFFE
FFFFFFFFFE
FFFFFFFFFE
FFFFFFFFFE
FFFFFFFFFE
ENDCHAR
STARTCHAR F200
ENCODING 61952
SWIDTH 1131 0
DWIDTH 44 0
BBX 43 39 0 -5
BITMAP
000003C00000
000003F80000
0000C3FE0000
000FC3FF8000
003FC3FFC000
00FFC3FFE000
01FFC3FFF000
03FFC3FFF800
07FFC3FFF800
0FFFC3FFFC00
1FFFC3FFFC00
3FFFC3FFFE00
3FFFC3FFFE00
7FFFC3FFFF00
7FFFC3FFFF00
7FFFC3FFFF00
FFFFC3FFFF00
FFFFC3FFFF00
FFFFC0000000
FFFFC0000000
FFFFC0000000
FFFFE0000000
FFFFF07FFFE0
FFFFF83FFFE0
FFFFFC1FFFE0
7FFFFE0FFFE0
7FFFFF07FFC0
7FFFFF83FFC0
3FFFFFC1FFC0
3FFFFFE0FF80
1FFFFFF07F80
0FFFFFF83F00
0FFFFFFC1E00
07FFFFFE0E00
03FFFFFC0000
00FFFFF80000
007FFFE00000
001FFF800000
0001FC000000
ENDCHAR
STARTCHAR F201
ENCODING 61953
SWIDTH 1002 0
DWIDTH 39 0
BBX 39 29 0 0
BITMAP
F800000000
F800000000
F800007FF0
F80000FFF0
F80000FFF0
F800007FF0
F800003FF0
F800001FF0
F800001FF0
F800C03FF0
F801E07FF0
F803F0FFF0
F807F9FCF0
F80FFFF870
F81FFFF000
F83FFFE000
F87F3FC000
F8FE1F8000
F9FC0F0000
F9F8060000
F8F0000000
F860000000
F800000000
F800000000
FFFFFFFFFE
FFFFFFFFFE
FFFFFFFFFE
FFFFFFFFFE
FFFFFFFFFE
ENDCHAR
STARTCHAR F204
ENCODING 61956
SWIDTH 1131 0
DWIDTH 44 0
BBX 44 29 0 0
BITMAP
003FFFFFC000
00FFFFFFF000
03FFFFFFFC00
07FFFFFFFE00
0FFFFFFFFF00
1FE03FC07F80
3F800FE01F80
3F0007E00FC0
7E0003F007C0
7C0001F003E0
7C0001F803E0
F80000F803E0
F80000F801F0
F80000F801F0
F80000F801F0
F80000F801F0
F80000F801F0
F80000F803E0
7C0001F803E0
7C0001F007E0
7E0003F007C0
3F0007E00FC0
3F800FE01F80
1FE03FC07F80
0FFFFFFFFF00
07FFFFFFFE00
03FFFFFFF800
00FFFFFFF000
001FFFFF8000
ENDCHAR
STARTCHAR F205
ENCODING 61957
SWIDTH 1131 0
DWIDTH 44 0
BBX 44 29 0 0
BITMAP
003FFFFF8000
00FFFFFFF000
03FFFFFFF800
07FFFFFFFE00
0FFFFFFFFF00
1FFFFF807F80
3FFFFE001F80
3FFFFC000FC0
7FFFF80007C0
7FFFF80003E0
FFFFF00003E0
FFFFF00003E0
FFFFF00001F0
FFFFE00001F0
FFFFE00001F0
FFFFE00001F0
FFFFF00001F0
FFFFF00003E0
7FFFF00003E0
7FFFF80007E0
7FFFF80007C0
3FFFFC000FC0
3FFFFF001F80
1FFFFFC07F80
0FFFFFFFFF00
07FFFFFFFE00
03FFFFFFF800
00FFFFFFF000
001FFFFF8000
ENDCHAR
STARTCHAR F206
ENCODING 61958
SWIDTH 1260 0
DWIDTH 49 0
BBX 49 29 0 0
BITMAP
000003F8000000
000003FC000000
000003FE000000
003FE01E000000
003FE00F000000
003FFFFF000000
001FFFFF800000
0001FFFFC00000
0003FFFFC00000
0007C01FE00000
03FF801FFFE000
0FFF003CFFF800
1FFF803CFFFC00
3F1FC079F87E00
7C3FC0FBFC1E00
783FE0F3FE0F00
F079E1E39E0F00
F0F9E3E78F0700
F0FFFFC78F8780
F1FFFF87878780
F1FFFF87830780
F0FFFF07800700
7801E003C00F00
7803C003E01F00
7E07C001F03E00
3FFF8001FFFC00
1FFF0000FFF800
0FFE00003FF000
01F800000FC000
ENDCHAR
STARTCHAR F207
ENCODING 61959
SWIDTH 1002 0
DWIDTH 39 0
BBX 39 39 0 -5
BITMAP
000FFFC000
00FFFFFE00
03FFFFFF80
0FFFFFFFE0
1FFFFFFFF0
3FFFFFFFF0
3FFFFFFFF0
3E000000F0
3C00000070
3C00000070
FC0000007E
FC0000007E
FC0000007E
FC0000007E
FC0000007E
FC0000007E
FC0000007E
FC0000007E
FC0000007E
3C00000070
3C00000070
3E000000F0
3FFFFFFFF0
3FFFFFFFF0
3E3FFFF9F0
3C1FFFF070
3C1FFFE070
381FFFE070
3C1FFFF070
3C1FFFF070
3FFFFFFFF0
3FFFFFFFF0
3FFFFFFFF0
1FFFFFFFF0
07F0001FC0
07F0001FC0
07F0001FC0
07F0001FC0
03E0001F80
ENDCHAR
STARTCHAR F20A
ENCODING 61962
SWIDTH 1002 0
DWIDTH 39 0
BBX 39 29 0 0
BITMAP
3FFFFFFFF8
7FFFFFFFFC
FFFFFFFFFE
FFFFFFFFFE
FFFFFFFFFE
FFFFFFFFFE
FFFFFFFFFE
FFE0FF83FE
FF803E00FE
FE001C007E
FE0038007E
FC1F387EFE
FC3FF0FFFE
FC3FF0FFFE
FC3FF0FFFE
FC3FF0FFFE
FC3FF0FFFE
FC1F387CFE
FE0038007E
FE001C007E
FF803E00FE
FFE0FF83FE
FFFFFFFFFE
FFFFFFFFFE
FFFFFFFFFE
FFFFFFFFFE
FFFFFFFFFE
7FFFFFFFFC
3FFFFFFFF8
ENDCHAR
STARTCHAR F20B
ENCODING 61963
SWIDTH 874 0
DWIDTH 34 0
BBX 34 34 0 -2
BITMAP
FFFE000FC0
FFFFE00FC0
FFFFF80FC0
FFFFFC0FC0
FFFFFE0FC0
FC01FE0FC0
FC007F0FC0
FC003F0FC0
FC003F0FC0
FC7E3F8FC0
FC7E1F8FC0
FC7E1F8FC0
FC7E1F8FC0
FC7E1F8FC0
FC7E1F8FC0
FC7E1F8FC0
FC7E1F8FC0
FC7E1F8FC0
FC7E1F8FC0
FC7E1F8FC0
FC7E1F8FC0
FC7E1F8FC0
FC7E1F8FC0
FC7E1F8FC0
FC7E1F8FC0
FC7F1F8FC0
FC3F000FC0
FC3F000FC0
FC3F800FC0
FC1FF00FC0
FC0FFFFFC0
FC0FFFFFC0
FC03FFFFC0
FC01FFFFC0
ENDCHAR
STARTCHAR F217
ENCODING 61975
SWIDTH 1131 0
DWIDTH 44 0
BBX 44 39 0 -5
BITMAP
7FE000000000
FFE000000000
FFF000000000
FFF000000000
7FF000000000
01FFFFFFFFE0
01FFFFFFFFF0
00FFFFFFFFF0
00FFFFBFFFE0
00FFFF1FFFE0
00FFFF1FFFE0
00FFFF1FFFE0
007FFF1FFFC0
007FE000FFC0
007FE000FFC0
007FE000FFC0
007FFF1FFFC0
003FFF1FFF80
003FFF1FFF80
003FFF1FFF80
003FFF1FFF80
001FFFFFFF00
001FFFFFFF00
001FFFFFFF00
001F00000000
001F00000000
000F80000000
000FFFFFFC00
000FFFFFFE00
000FFFFFFE00
000FFFFFFC00
000FFFFFFE00
001FC0007F00
003FE000FF80
003FE000FF80
003FE000FF80
001FC0007F00
001FC0007F00
000700001C00
ENDCHAR
STARTCHAR F218
ENCODING 61976
SWIDTH 1131 0
DWIDTH 44 0
BBX 44 39 0 -5
BITMAP
7FE000000000
FFE000000000
FFF000000000
FFF000000000
7FF000000000
01FFFFFFFFE0
01FFFFFFFFF0
00FFFFFFFFF0
00FFFFFFFFE0
00FFFF1FFFE0
00FFFF1FFFE0
00FFFF1FFFE0
007FFF1FFFC0
007FFF1FFFC0
007FFF1FFFC0
007FF000FFC0
007FF001FFC0
003FF803FF80
003FFC07FF80
003FFE0FFF80
003FFF1FFF80
001FFFFFFF00
001FFFFFFF00
001FFFFFFF00
001F00000000
001F00000000
000F80000000
000FFFFFFC00
000FFFFFFE00
000FFFFFFE00
000FFFFFFC00
000FFFFFFE00
001FC0007F00
003FE000FF80
003FE000FF80
003FE000FF80
001FC0007F00
001FC0007F00
000700001C00
ENDCHAR
STARTCHAR F21A
ENCODING 61978
SWIDTH 1260 0
DWIDTH 49 0
BBX 49 39 0 -5
BITMAP
00003FFE000000
00007FFF000000
00007FFF000000
00007FFF000000
00007FFF000000
003FFFFFFC0000
003FFFFFFE0000
003FFFFFFE0000
003FFFFFFE0000
003FFFFFFE0000
003E00003E0000
003E00003E0000
003E00003E0000
003E00803E0000
003E0FF03E0000
003E7FFE3E0000
003FFFFFFE0000
003FFFFFFE0000
00FFFFFFFF8000
03FFFFFFFFE000
07FFFFFFFFF000
07FFFFFFFFF000
07FFFFFFFFE000
03FFFFFFFFE000
01FFFFFFFFC000
00FFFFFFFF8000
007FFFFFFF0000
003FFFFFFE0000
001FFFFFFC0000
003FFFFFFC0000
003FFFFFFE0000
007FFFFFFF0000
01FFFFFFFF8000
07FFFFFFFFE000
7FFFFFFFFFFF00
FFE7FFFFE7FF80
FFC3FFFFE3FF80
FF01FFFF80FF80
78007FFE001F00
ENDCHAR
STARTCHAR F21B
ENCODING 61979
SWIDTH 874 0
DWIDTH 34 0
BBX 34 39 0 -5
BITMAP
001C0E0000
003FFF0000
003FFF0000
007FFF8000
007FFF8000
00FFFFC000
00FFFFC000
03FFFFF000
1FFFFFFE00
3FFFFFFF00
1FFFFFFE00
07FFFFF800
01FFFFE000
01C000E000
01C000E000
00E0C1C000
00E0C1C000
1FFBF3FE00
1FFFFFFE00
1FFFFFFE00
0FFFFFFC00
0FFFFFFC00
0FFFFFFC00
1FEFFDFE00
3FE3F1FF00
7FE1E1FF80
FFE1E1FFC0
FFF0C3FFC0
FFF0C3FFC0
FFF1E3FFC0
FFF1E3FFC0
FFF9E7FFC0
FFF9E7FFC0
FFF9E7FFC0
FFFBF7FFC0
FFFFFFFFC0
FFFFFFFFC0
7FFFFFFF80
3FFFFFFF00
ENDCHAR
STARTCHAR F21C
ENCODING 61980
SWIDTH 1260 0
DWIDTH 49 0
BBX 49 29 0 0
BITMAP
000007FC1F8000
000007FE3F8000
000007FE7F8000
0FFC001FFF8000
0FFF000FFF8000
0FFF8007FF8000
07FFFFFFC00000
000FFFFFC00000
0007FFFFE00000
0007FFFFE00000
03FFFFFEFFE000
0FFFFFFCFFF800
1FFFFFFCFFFC00
3F3FFFF9FC7E00
7C3FFFF3FC1E00
787FFFF3DE0F00
F07FFFF39F0F00
F0FFFFE78F0700
F0FFFFE7878780
F1FFFFE7878780
F1FFFFE7838780
F0FFFFC7830700
F801E003C00F00
7803C003E01F00
7E07C001F03E00
3FFF8001FFFC00
1FFF0000FFF800
0FFE00003FF000
01F800000FC000
ENDCHAR
STARTCHAR F21D
ENCODING 61981
SWIDTH 1002 0
DWIDTH 39 0
BBX 39 39 0 -5
BITMAP
00007C0000
0000FE0000
0001FF0000
0001FF0000
0001FF0000
0001FF0000
0001FF0000
0001FF0000
0000FE0000
0000380000
0000000000
0003EF8000
0007FFC000
000FFFE000
000FFFE000
000FFFE000
000FFFE000
000FFFE000
000FFFE000
000FFFE000
000FFFE000
000FFFE000
000FFFE000
000FFFC000
0001FF0000
0081FF0600
07C1FF07C0
1FC1FF0FF0
3E01FF00F8
7001FF003C
E001FF000E
C001FF000E
E001FF000E
7000FE001C
7C00000078
1FC00007F0
07FFFFFFC0
00FFFFFE00
0007FF8000
ENDCHAR
STARTCHAR F21E
ENCODING 61982
SWIDTH 1131 0
DWIDTH 44 0
BBX 42 35 1 -3
BITMAP
01FE001FE000
07FF807FF800
1FFFC0FFFC00
3FFFF3FFFE00
3FFFFFFFFF00
7FFFFFFFFF80
7FFFFFFFFF80
FFFE7FFFFF80
FFFE7FFFFF80
FFFC3FFFFF80
FFFC3FFFFFC0
FFFC3FFFFF80
FFF81FFFFF80
7FF99FCFFF80
7FF99FC7FF80
7FF18F87FF00
3FF3CF83FF00
1FF3CF93FE00
0003C7100000
0007E7300000
07FFE63FF800
03FFE23FF000
01FFF27FE000
00FFF07FC000
007FF0FF0000
003FF8FE0000
001FF8FC0000
000FF9F80000
0007FFF00000
0003FFE00000
0001FFC00000
0000FF800000
00007F000000
00001E000000
00000C000000
ENDCHAR
STARTCHAR F221
ENCODING 61985
SWIDTH 565 0
DWIDTH 22 0
BBX 22 34 0 -2
BITMAP
007800
03FF00
07FF80
1FFFE0
3FFFE0
3F87F0
7E01F8
7C00F8
FC00FC
F8007C
F8007C
F8007C
F8007C
F8007C
FC00F8
7E01F8
7F03F8
3FFFF0
1FFFE0
0FFFC0
07FF80
01FE00
00F800
00F800
00F800
00F800
07FF80
07FF80
07FF80
07FF80
07FF80
00F800
00F800
00F800
ENDCHAR
STARTCHAR F222
ENCODING 61986
SWIDTH 745 0
DWIDTH 29 0
BBX 29 29 0 0
BITMAP
000007F8
000003F8
000001F8
000003F8
000007F8
00000FF8
00001FD8
00FC3F88
03FF7F00
0FFFFE00
1FFFFC00
3FFFF800
3F07F000
7E01F800
7C00F800
F800FC00
F8007C00
F8007C00
F8007C00
F8007C00
F800FC00
7C00F800
7E01F800
7F03F000
3FFFF000
1FFFE000
0FFFC000
07FF0000
00FC0000
ENDCHAR
STARTCHAR F223
ENCODING 61987
SWIDTH 565 0
DWIDTH 22 0
BBX 22 39 0 -5
BITMAP
F8007C
F8007C
FC00F8
7E01F8
7F87F8
3FFFF0
1FFFE0
0FFFC0
1FFFE0
3FFFF0
7F03F8
7E01F8
FC00F8
F8007C
F8007C
F8007C
F8007C
F8007C
F800FC
7C00F8
7E01F8
3F87F0
3FFFF0
1FFFE0
0FFFC0
03FF00
00F800
00F800
00F800
00F800
07FF80
07FF80
07FF80
07FF80
07FF80
00F800
00F800
00F800
007800
ENDCHAR
STARTCHAR F224
ENCODING 61988
SWIDTH 745 0
DWIDTH 29 0
BBX 29 39 0 -5
BITMAP
000007F8
000003F8
000001F8
000003F8
000007F8
00000FF8
00001FD8
00783F88
03FF7F00
0FFFFE00
1FFFFC00
3FFFF800
3F87F000
7E01F800
7C00F800
F800FC00
F8007C00
F8007C00
F8007C00
F8007C00
F8007C00
FC00F800
7E01F800
7F03F800
3FFFF000
1FFFE000
0FFFC000
07FF8000
01FE0000
00F80000
00F80000
07FF8000
07FF8000
07FF8000
07FF8000
07FF8000
00F80000
00F80000
00780000
ENDCHAR
STARTCHAR F225
ENCODING 61989
SWIDTH 925 0
DWIDTH 36 0
BBX 36 39 0 -5
BITMAP
FF000007F0
FF000007F0
FE000003F0
FEE00007F0
FFF0000FF0
FFF8001FF0
FFF0003FB0
CFE0F87F10
1FF7FEFE00
1FFFFFFC00
1FFFFFF800
0EFFFFF000
047F0FF000
00FC03F000
00F801F800
00F800F800
01F000F800
01F000F800
01F000F800
01F000F800
01F800F800
00F801F800
00FC03F000
007E07F000
007FFFE000
003FFFC000
001FFF8000
000FFF0000
0001FC0000
0000F80000
0000F80000
000FFF0000
000FFF0000
000FFF0000
000FFF0000
000FFF0000
0000F80000
0000F80000
0000F00000
ENDCHAR
STARTCHAR F226
ENCODING 61990
SWIDTH 1002 0
DWIDTH 39 0
BBX 39 34 0 -2
BITMAP
0078003800
03FF01FF80
07FF87FFC0
1FFFE3FFF0
3FFFE3FFF0
3F87F1C7F8
7E01F900FC
7C00F8007C
FC00FC007E
F8007C003E
F8007C003E
F8007C003E
F8007C003E
F8007C003E
FC00F8007C
7E01F800FC
7F03F981FC
3FFFF1FFF8
1FFFE3FFF0
0FFFC7FFE0
07FF83FFC0
01FE00FF00
00F8003C00
00F8003C00
00F8003C00
00F8003C00
07FF83FFC0
07FF83FFC0
07FF83FFC0
07FF83FFC0
07FF83FFC0
00F8003C00
00F8003C00
00F8003C00
ENDCHAR
STARTCHAR F227
ENCODING 61991
SWIDTH 1002 0
DWIDTH 39 0
BBX 39 39 0 -5
BITMAP
00001FE000
00001FE000
00000FE000
00000FE000
00001FE000
01FE3FE000
07FFFFE000
0FFFFE6000
1FFFFC0000
3FFFF80000
7F03F80000
7E01F80000
FC00F801FE
F8007C01FE
F8007C00FE
F8007C00FE
F8007C01FE
F8007CC3FE
F800FCFFFE
7C00F8FFE6
7E01F9FFC0
3F87F1FF80
3FFFF03F80
1FFFE01F80
0FFF800F80
03FF0007C0
00780007C0
00000007C0
00018007C0
000F8007C0
000FC007C0
0007C00F80
0007E01F80
0003F83F80
0003FFFF00
0001FFFE00
0000FFFC00
00003FF000
00000FC000
ENDCHAR
STARTCHAR F228
ENCODING 61992
SWIDTH 1131 0
DWIDTH 44 0
BBX 44 39 0 -5
BITMAP
000000000FF0
000000000FF0
0000000007F0
0000000007F0
000000000FF0
01FE00FF1FF0
07FF83FFFFF0
0FFFC7FFFF30
1FFFE3FFFE00
3FFFF1FFFC00
7F03F981FC00
7E01F800FC00
FC00F8007C00
F8007C003E00
F8007C003E00
F8007C003E00
F8007C003E00
F8007C003E00
F800FC007E00
7C00F8007C00
7E01F900FC00
3F87F1C3F800
3FFFF3FFF800
1FFFE3FFF000
0FFFC7FFC000
03FF01FF8000
00F8003C0000
00F800000000
00F800000000
00F800000000
07FF80000000
07FF80000000
07FF80000000
07FF80000000
07FF80000000
00F800000000
00F800000000
00F800000000
007800000000
ENDCHAR
STARTCHAR F229
ENCODING 61993
SWIDTH 745 0
DWIDTH 29 0
BBX 29 29 0 0
BITMAP
000007F8
000003F8
000001F8
00001BF8
00003FF8
00007FF8
00007FD8
00FC3F88
03FF7FC0
0FFFFFC0
1FFFFF80
3FFFFB00
3F07F000
7E01F800
7C00F800
F800FC00
F8007C00
F8007C00
F8007C00
F8007C00
F800FC00
7C00F800
7E01F800
7F03F000
3FFFF000
1FFFE000
0FFFC000
07FF0000
00FC0000
ENDCHAR
STARTCHAR F22A
ENCODING 61994
SWIDTH 565 0
DWIDTH 22 0
BBX 22 36 0 -3
BITMAP
003000
007800
00FC00
01FE00
03FF00
03FF00
00F800
00F800
03FF00
03FF00
03FF00
03FF00
03FF00
00F800
00F800
01FE00
07FF80
1FFFC0
1FFFE0
3FCFF0
7F03F8
7C01F8
FC00F8
F8007C
F8007C
F8007C
F8007C
F8007C
FC00F8
7C00F8
7E03F8
3FCFF0
1FFFE0
1FFFC0
07FF80
03FE00
ENDCHAR
STARTCHAR F22B
ENCODING 61995
SWIDTH 925 0
DWIDTH 36 0
BBX 36 22 0 4
BITMAP
0030000000
03FF000000
07FF800000
1FFFE00000
3FFFE00000
3F8FF00000
7E03F80100
7C00F8FB80
FC00F8FBC0
F8007FFFE0
F8007FFFF0
F8007FFFF0
F8007FFFF0
F8007FFFE0
FC00F8FBC0
7C01F8FB80
7F03F80100
3FFFF00000
1FFFE00000
0FFFC00000
07FF800000
01FE000000
ENDCHAR
STARTCHAR F22C
ENCODING 61996
SWIDTH 565 0
DWIDTH 22 0
BBX 22 34 0 -2
BITMAP
007800
03FF00
07FF80
1FFFE0
3FFFE0
3F87F0
7E01F8
7C00F8
FC00FC
F8007C
F8007C
F8007C
F8007C
F8007C
FC00F8
7E01F8
7F03F8
3FFFF0
1FFFE0
0FFFC0
07FF80
01FE00
00F800
00F800
00F800
00F800
00F800
00F800
00F800
00F800
00F800
00F800
00F800
00F800
ENDCHAR
STARTCHAR F22D
ENCODING 61997
SWIDTH 565 0
DWIDTH 22 0
BBX 22 22 0 4
BITMAP
003000
03FF00
07FF80
1FFFC0
3FFFE0
3F8FF0
7E03F8
7C00F8
FC00F8
F8007C
F8007C
F8007C
F8007C
F8007C
FC00F8
7C01F8
7F03F8
3FFFF0
1FFFE0
0FFFC0
07FF80
01FE00
ENDCHAR
STARTCHAR F233
ENCODING 62003
SWIDTH 1002 0
DWIDTH 39 0
BBX 39 34 0 -2
BITMAP
3FFFFFFFF8
FFFFFFFFFC
FFFFFFFFFE
FFFFFFFF7E
FFFFFFC23E
FFFFFFC21E
FFFFFFE63E
FFFFFFFFFE
FFFFFFFFFE
7FFFFFFFFC
0000000000
0000000000
0000000000
7FFFFFFFFC
FFFFFFFFFE
FFFFFFFFFE
FFFFFFC23E
FFFFFFC21E
FFFFFFC63E
FFFFFFFFFE
FFFFFFFFFE
7FFFFFFFFC
0000000000
0000000000
0000000000
7FFFFFFFFC
FFFFFFFFFE
FFFFFFFFFE
FFFFFFC63E
FFFFFFC21E
FFFFFFC63E
FFFFFFFFFE
FFFFFFFFFE
7FFFFFFFFC
ENDCHAR
STARTCHAR F234
ENCODING 62004
SWIDTH 1260 0
DWIDTH 49 0
BBX 49 34 0 -2
BITMAP
0001E000000000
000FFC00000000
001FFE00000000
003FFF00000000
007FFF80000000
00FFFFC0000000
01FFFFE0000000
01FFFFE0000000
01FFFFE0000000
03FFFFF003C000
03FFFFF003C000
03FFFFF003C000
03FFFFF003C000
01FFFFE003C000
01FFFFE003C000
01FFFFE0FFFF00
00FFFFC0FFFF80
007FFF80FFFF80
007FFF80FFFF80
001FFE00FFFF00
000FFC0003C000
0041E08003C000
07E001F803C000
1FFC0FFE03C000
3FFFFFFF03C000
7FFFFFFF83C000
FFFFFFFFC00000
FFFFFFFFC00000
FFFFFFFFC00000
FFFFFFFFC00000
FFFFFFFFC00000
FFFFFFFFC00000
FFFFFFFFC00000
7FFFFFFF800000
ENDCHAR
STARTCHAR F235
ENCODING 62005
SWIDTH 1260 0
DWIDTH 49 0
BBX 49 34 0 -2
BITMAP
0001E000000000
000FFC00000000
001FFE00000000
003FFF00000000
007FFF80000000
00FFFFC0000000
01FFFFE0000000
01FFFFE0000000
01FFFFE0000000
03FFFFF0000000
03FFFFF00C0400
03FFFFF01E0E00
03FFFFF03F1F00
01FFFFE03FBF00
01FFFFE01FFF00
01FFFFE00FFE00
00FFFFC007FC00
007FFF8003F800
007FFF8007FC00
001FFE000FFE00
000FFC001FFF00
0041E0803FBF80
07E001F83F1F00
1FFC0FFE1E0E00
3FFFFFFF0C0400
7FFFFFFF800000
FFFFFFFFC00000
FFFFFFFFC00000
FFFFFFFFC00000
FFFFFFFFC00000
FFFFFFFFC00000
FFFFFFFFC00000
FFFFFFFFC00000
7FFFFFFF800000
ENDCHAR
STARTCHAR F236
ENCODING 62006
SWIDTH 1131 0
DWIDTH 44 0
BBX 44 29 0 0
BITMAP
FE0000000000
FE0000000000
FE0700000000
FE1FC0000000
FE3FE0000000
FE7FF3FFFF00
FE7FF3FFFF80
FE7FFBFFFFC0
FEFFFBFFFFE0
FE7FFBFFFFE0
FE7FF3FFFFF0
FE7FF3FFFFF0
FE3FE3FFFFF0
FE1FC3FFFFF0
FE0000000000
FE0000000000
FE0000000000
FFFFFFFFFFE0
FFFFFFFFFFF0
FFFFFFFFFFF0
FFFFFFFFFFF0
FFFFFFFFFFF0
FFFFFFFFFFF0
FFFFFFFFFFF0
FE0000000FF0
FE0000000FF0
FE0000000FF0
FE0000000FF0
FE0000000FF0
ENDCHAR
STARTCHAR F238
ENCODING 62008
SWIDTH 874 0
DWIDTH 34 0
BBX 34 39 0 -5
BITMAP
03FFFFF000
0FFFFFFC00
3FFFFFFF00
7FFFFFFF80
7FFFFFFF80
FFFFFFFFC0
FFFFFFFFC0
F8000007C0
F0000003C0
F0000003C0
F0000003C0
F0000003C0
F0000003C0
F0000003C0
F0000003C0
F0000003C0
F0000003C0
F0000003C0
F0000003C0
FFFFFFFFC0
FFFFFFFFC0
FFFFFFFFC0
FFFFBFFFC0
FFFC0FFFC0
FFF807FFC0
FFF807FFC0
FFF807FFC0
FFF807FFC0
FFF807FFC0
7FFC0FFF80
3FFE1FFF80
1FFFFFFF00
0FFFFFFC00
03FFFFF000
007FFF8000
00FFFFC000
01FFFFE000
07FFFFF800
07FFFFF800
ENDCHAR
STARTCHAR F239
ENCODING 62009
SWIDTH 874 0
DWIDTH 34 0
BBX 34 39 0 -5
BITMAP
03FFFFF000
0FFFFFFC00
3FFFFFFF00
7FFFFFFF80
7FFFFFFF80
FFFFFFFFC0
FFFFFFFFC0
F803F007C0
F001E003C0
F001E003C0
F001E003C0
F001E003C0
F001E003C0
F001E003C0
F001E003C0
F001E003C0
F001E003C0
F001E003C0
F001E003C0
FFFFFFFFC0
FFFFFFFFC0
FFFFFFFFC0
F87FFF87C0
F03FFF03C0
F01FFE03C0
F01FFE03C0
F01FFE03C0
F03FFF03C0
F87FFF87C0
7FFFFFFF80
3FFFFFFF80
1FFFFFFF00
0FFFFFFC00
03FFFFF000
007FFF8000
00FFFFC000
01FFFFE000
07FFFFF800
07FFFFF800
ENDCHAR
STARTCHAR F240
ENCODING 62016
SWIDTH 1260 0
DWIDTH 49 0
BBX 49 25 0 2
BITMAP
3FFFFFFFFFF000
7FFFFFFFFFF800
FFFFFFFFFFFC00
FFFFFFFFFFFC00
FFFFFFFFFFFC00
F8000000007F00
F8000000007F80
F8000000007F80
F9FFFFFFFE7F80
F9FFFFFFFE7F80
F9FFFFFFFE0F80
F9FFFFFFFE0F80
F9FFFFFFFE0F80
F9FFFFFFFE0F80
F9FFFFFFFE0F80
F9FFFFFFFE7F80
F9FFFFFFFE7F80
F8000000007F80
F8000000007F00
F8000000007F00
FFFFFFFFFFFC00
FFFFFFFFFFFC00
FFFFFFFFFFFC00
7FFFFFFFFFF800
1FFFFFFFFFE000
ENDCHAR
STARTCHAR F241
ENCODING 62017
SWIDTH 1260 0
DWIDTH 49 0
BBX 49 25 0 2
BITMAP
3FFFFFFFFFF000
7FFFFFFFFFF800
FFFFFFFFFFFC00
FFFFFFFFFFFC00
FFFFFFFFFFFC00
F8000000007F00
F8000000007F80
F8000000007F80
F9FFFFFF007F80
F9FFFFFF007F80
F9FFFFFF000F80
F9FFFFFF000F80
F9FFFFFF000F80
F9FFFFFF000F80
F9FFFFFF000F80
F9FFFFFF007F80
F9FFFFFF007F80
F8000000007F80
F8000000007F00
F8000000007F00
FFFFFFFFFFFC00
FFFFFFFFFFFC00
FFFFFFFFFFFC00
7FFFFFFFFFF800
1FFFFFFFFFE000
ENDCHAR
STARTCHAR F242
ENCODING 62018
SWIDTH 1260 0
DWIDTH 49 0
BBX 49 25 0 2
BITMAP
3FFFFFFFFFF000
7FFFFFFFFFF800
FFFFFFFFFFFC00
FFFFFFFFFFFC00
FFFFFFFFFFFC00
F8000000007F00
F8000000007F80
F8000000007F80
F9FFFF00007F80
F9FFFF00007F80
F9FFFF00000F80
F9FFFF00000F80
F9FFFF00000F80
F9FFFF00000F80
F9FFFF00000F80
F9FFFF00007F80
F9FFFF00007F80
F8000000007F80
F8000000007F00
F8000000007F00
FFFFFFFFFFFC00
FFFFFFFFFFFC00
FFFFFFFFFFFC00
7FFFFFFFFFF800
1FFFFFFFFFE000
ENDCHAR
STARTCHAR F243
ENCODING 62019
SWIDTH 1260 0
DWIDTH 49 0
BBX 49 25 0 2
BITMAP
3FFFFFFFFFF000
7FFFFFFFFFF800
FFFFFFFFFFFC00
FFFFFFFFFFFC00
FFFFFFFFFFFC00
F8000000007F00
F8000000007F80
F8000000007F80
F9FF8000007F80
F9FF8000007F80
F9FF8000000F80
F9FF8000000F80
F9FF8000000F80
F9FF8000000F80
F9FF8000000F80
F9FF8000007F80
F9FF8000007F80
F8000000007F80
F8000000007F00
F8000000007F00
FFFFFFFFFFFC00
FFFFFFFFFFFC00
FFFFFFFFFFFC00
7FFFFFFFFFF800
1FFFFFFFFFE000
ENDCHAR
STARTCHAR F244
ENCODING 62020
SWIDTH 1260 0
DWIDTH 49 0
BBX 49 25 0 2
BITMAP
3FFFFFFFFFF000
7FFFFFFFFFF800
FFFFFFFFFFFC00
FFFFFFFFFFFC00
FFFFFFFFFFFC00
F8000000007F00
F8000000007F80
F8000000007F80
F8000000007F80
F8000000007F80
F8000000000F80
F8000000000F80
F8000000000F80
F8000000000F80
F8000000000F80
F8000000007F80
F8000000007F80
F8000000007F80
F8000000007F00
F8000000007F00
FFFFFFFFFFFC00
FFFFFFFFFFFC00
FFFFFFFFFFFC00
7FFFFFFFFFF800
1FFFFFFFFFE000
ENDCHAR
STARTCHAR F245
ENCODING 62021
SWIDTH 617 0
DWIDTH 24 0
BBX 24 39 0 -5
BITMAP
C00000
E00000
F00000
F80000
FC0000
FE0000
FF0000
FF8000
FFC000
FFE000
FFF000
FFF800
FFFC00
FFFE00
FFFF00
FFFF80
FFFFC0
FFFFE0
FFFFF0
FFFFF8
FFFFFC
FFFFFE
FFFFFF
FFFFFF
FFFFFF
FFFE00
FFFF00
FFFF00
FFFF00
FF7F80
FE3F80
FC3FC0
F81FC0
F01FC0
E01FE0
000FE0
000FE0
0007C0
000600
ENDCHAR
STARTCHAR F246
ENCODING 62022
SWIDTH 488 0
DWIDTH 19 0
BBX 19 39 0 -5
BITMAP
FC03E0
FF1FE0
FFBFE0
FFFFE0
FFFFE0
07FC00
01F800
01F000
01F000
01F000
01F000
01F000
01F000
01F000
01F000
01F000
01F000
0FFF00
0FFF00
0FFF00
0FFF00
0FFF00
01F000
01F000
01F000
01F000
01F000
01F000
01F000
01F000
01F000
01F000
03F800
07FE00
FFFFE0
FFFFE0
FFBFE0
FF0FE0
F803E0
ENDCHAR
STARTCHAR F247
ENCODING 62023
SWIDTH 1002 0
DWIDTH 39 0
BBX 39 34 0 -2
BITMAP
700000001C
F80000003E
F80000003E
FFFFFFFFFE
FFFFFFFFFE
3FFFFFFFF0
3FFFFFFFF0
3FFFFFFFF0
3E0003FFF0
3E0003FFF0
3E0003FFF0
3E0003FFF0
3E0003FFF0
3E0003FFF0
3E0003FFF0
3E000301F0
3E000300F0
3E000300F0
3E000300F0
3F000300F0
3FFFFF00F0
3FFFFF00F0
3FFF8000F0
3FFF8000F0
3FFF8000F0
3FFF8000F0
3FFF8000F0
3FFFFFFFF0
3FFFFFFFF0
3FFFFFFFF0
FFFFFFFFFE
FFFFFFFFFE
F80000003E
F80000003E
ENDCHAR
STARTCHAR F248
ENCODING 62024
SWIDTH 1131 0
DWIDTH 44 0
BBX 44 34 0 -2
BITMAP
F800001E0000
F800001F0000
F800001F0000
FFFFFFFF0000
FFFFFFFF0000
3FFFFFF80000
3FFFFFF80000
3FFFFFF80000
3FFFFFF80000
3FFFFFF80000
3FFFFFF801F0
3FFFFFF801F0
3FFFFFF801F0
3FFFFFF9FFF0
3FFFFFF9FFF0
3FFFFFF9FF80
3FFFFFF9FF80
3FFFFFF9FF80
3FFFFFF87F80
3FFFFFF87F80
FFFFFFFF7F80
FFFFFFFF7F80
F800001F7F80
F800001F7F80
F801FF9E7F80
0001FF807F80
0001FFC0FF80
0001FFFFFF80
0001FFFFFF80
0001FFFFFF80
000FFFFFFFF0
000FFFFFFFF0
000F800001F0
000F800001F0
ENDCHAR
STARTCHAR F249
ENCODING 62025
SWIDTH 874 0
DWIDTH 34 0
BBX 34 34 0 -2
BITMAP
7FFFFFFF80
FFFFFFFFC0
FFFFFFFFC0
FFFFFFFFC0
FFFFFFFFC0
FFFFFFFFC0
FFFFFFFFC0
FFFFFFFFC0
FFFFFFFFC0
FFFFFFFFC0
FFFFFFFFC0
FFFFFFFFC0
FFFFFFFFC0
FFFFFFFFC0
FFFFFFFFC0
FFFFFFFFC0
FFFFFFFFC0
FFFFFFFFC0
FFFFFFFFC0
FFFFFFFFC0
FFFFFFFFC0
FFFFFFFFC0
FFFFFE0000
FFFFFC0000
FFFFFC0000
FFFFFCFFC0
FFFFFCFF80
FFFFFCFF00
FFFFFCFE00
FFFFFCFC00
FFFFFCF800
FFFFFCF000
FFFFFCE000
FFFFFCC000
ENDCHAR
STARTCHAR F24D
ENCODING 62029
SWIDTH 1002 0
DWIDTH 39 0
BBX 39 39 0 -5
BITMAP
001FFFFFF8
003FFFFFFC
003FFFFFFE
003FFFFFFE
003FFFFFFE
003FFFFFFE
003FFFFFFE
003FFFFFFE
003FFFFFFE
003FFFFFFE
7E3FFFFFFE
FE3FFFFFFE
FE3FFFFFFE
FE3FFFFFFE
FE3FFFFFFE
FE3FFFFFFE
FE3FFFFFFE
FE3FFFFFFE
FE3FFFFFFE
FE3FFFFFFE
FE3FFFFFFE
FE3FFFFFFE
FE3FFFFFFE
FE3FFFFFFE
FE3FFFFFFE
FE3FFFFFFE
FE3FFFFFFE
FF3FFFFFFC
FF1FFFFFF8
FF80000000
FFC0000000
FFF8000000
FFFFFFF800
FFFFFFF800
FFFFFFF800
FFFFFFF800
FFFFFFF800
7FFFFFF000
3FFFFFE000
ENDCHAR
STARTCHAR F24E
ENCODING 62030
SWIDTH 1260 0
DWIDTH 49 0
BBX 49 39 0 -5
BITMAP
000003E0000000
00000FF0000000
00FFFFFFFF0000
01FFFFFFFF8000
01FFFFFFFF8000
01FFFFFFFF8000
00FFFFFFFF8000
00003FFC000000
00001FFC000000
00001FF8000000
01F00FF0078000
01F803E00FC000
03F803E01FE000
03FC03E01FE000
07BC03E03DF000
079E03E03CF000
0F1E03E078F800
0F0F03E0787800
1E0F03E0F07C00
1E0783E0F03C00
3C0783E1E03E00
3C03C3E1E01E00
7803C3E3C01F00
7801E3E3C00F00
FFFFE3E7FFFF00
FFFFE3E7FFFF80
FFFFE3E7FFFF00
FFFFE3E3FFFF00
7FFFC3E3FFFE00
3FFF83E0FFFC00
0FFE03E07FF000
00E003E0070000
000003E0000000
000003E0000000
00FFFFFFFF8000
01FFFFFFFF8000
01FFFFFFFF8000
01FFFFFFFF8000
00FFFFFFFF8000
ENDCHAR
STARTCHAR F251
ENCODING 62033
SWIDTH 745 0
DWIDTH 29 0
BBX 29 39 0 -5
BITMAP
7FFFFFF8
FFFFFFF8
FFFFFFF8
FFFFFFF8
7FFFFFF0
3FFFFFE0
3FFFFFE0
3FFFFFE0
3FFFFFE0
3FFFFFE0
1FFFFFC0
1FFFFFC0
1FFFFFC0
0FFFFF80
07FFFF00
07FFFF00
03FFFE00
01FFFC00
007FF000
001FC000
007FF000
01FFFC00
03FFFE00
07F07F00
07E03F80
0FC01F80
1F800FC0
1F0007C0
1F0007C0
3E0003E0
3E0003E0
3E0003E0
3E0003E0
3E0003E0
7FFFFFF8
FFFFFFF8
FFFFFFF8
FFFFFFF8
7FFFFFF0
ENDCHAR
STARTCHAR F252
ENCODING 62034
SWIDTH 745 0
DWIDTH 29 0
BBX 29 39 0 -5
BITMAP
7FFFFFF8
FFFFFFF8
FFFFFFF8
FFFFFFF8
7FFFFFF0
3E0003E0
3E0003E0
3E0003E0
3E0003E0
3E0003E0
1FFFFFC0
1FFFFFC0
1FFFFFC0
0FFFFF80
07FFFF00
07FFFF00
03FFFE00
01FFFC00
007FF000
001FC000
007FF000
01FFFC00
03FFFE00
07F07F00
07E03F80
0FC01F80
1F800FC0
1F0007C0
1F0007C0
3FFFFFE0
3FFFFFE0
3FFFFFE0
3FFFFFE0
3FFFFFE0
7FFFFFF8
FFFFFFF8
FFFFFFF8
FFFFFFF8
7FFFFFF0
ENDCHAR
STARTCHAR F253
ENCODING 62035
SWIDTH 745 0
DWIDTH 29 0
BBX 29 39 0 -5
BITMAP
7FFFFFF8
FFFFFFF8
FFFFFFF8
FFFFFFF8
7FFFFFF0
3E0003E0
3E0003E0
3E0003E0
3E0003E0
3E0003E0
1F0007C0
1F0007C0
1F800FC0
0FC01F80
07E03F00
07F8FF00
03FFFE00
01FFFC00
007FF000
001FC000
007FF000
01FFFC00
03FFFE00
07FFFF00
07FFFF80
0FFFFF80
1FFFFFC0
1FFFFFC0
1FFFFFC0
3FFFFFE0
3FFFFFE0
3FFFFFE0
3FFFFFE0
3FFFFFE0
7FFFFFF8
FFFFFFF8
FFFFFFF8
FFFFFFF8
7FFFFFF0
ENDCHAR
STARTCHAR F254
ENCODING 62036
SWIDTH 745 0
DWIDTH 29 0
BBX 29 39 0 -5
BITMAP
7FFFFFF8
FFFFFFF8
FFFFFFF8
FFFFFFF8
7FFFFFF0
3FFFFFE0
3FFFFFE0
3FFFFFE0
3FFFFFE0
3FFFFFE0
1FFFFFC0
1FFFFFC0
1FFFFFC0
0FFFFF80
07FFFF00
07FFFF00
03FFFE00
01FFFC00
007FF000
001FC000
007FF000
01FFFC00
03FFFE00
07FFFF00
07FFFF80
0FFFFF80
1FFFFFC0
1FFFFFC0
1FFFFFC0
3FFFFFE0
3FFFFFE0
3FFFFFE0
3FFFFFE0
3FFFFFE0
7FFFFFF8
FFFFFFF8
FFFFFFF8
FFFFFFF8
7FFFFFF0
ENDCHAR
STARTCHAR F255
ENCODING 62037
SWIDTH 1002 0
DWIDTH 39 0
BBX 39 34 0 -2
BITMAP
0000100000
00007C0000
007CFE7C00
00FEFEFE00
00FEFEFE78
00FEFEFEFC
00FEFEFEFE
00FEFEFEFE
7CFFFFFFFE
FEFFFFFFFE
FEFFFFFFFE
FEFFFFFFFE
FEFFFFFFFE
FEFFFFFFFE
FEFFFFFFFE
FFFFFFFFFE
FFFFFFFFFE
FFFFFFFFFE
FFFFFFFFFE
7FFFFFFFFE
7FFFFFFFFC
3FFFFFFFFC
1FFFFFFFFC
0FFFFFFFF8
07FFFFFFF8
01FFFFFFF0
00FFFFFFF0
007FFFFFF0
003FFFFFE0
001FFFFFE0
000FFFFFC0
000FFFFFC0
000FFFFFC0
000FFFFFC0
ENDCHAR
STARTCHAR F256
ENCODING 62038
SWIDTH 874 0
DWIDTH 34 0
BBX 34 39 0 -5
BITMAP
0000E00000
0001F00000
0001F80000
0079F9C000
00FDFBE000
00FDFFE000
00FDFFE000
00FDFFE000
00FDFFE000
00FDFFE000
00FDFFE780
00FDFFEFC0
00FDFFEFC0
00FDFFEFC0
00FDFFEFC0
00FDFFEFC0
00FDFFEFC0
00FDFFEFC0
00FDFFEFC0
30FFFFFFC0
78FFFFFFC0
FCFFFFFFC0
FEFFFFFFC0
FFFFFFFFC0
7FFFFFFFC0
7FFFFFFFC0
3FFFFFFFC0
1FFFFFFFC0
0FFFFFFF80
0FFFFFFF80
07FFFFFF80
03FFFFFF80
01FFFFFF00
01FFFFFF00
00FFFFFF00
007FFFFF00
007FFFFE00
003FFFFE00
001FFFFC00
ENDCHAR
STARTCHAR F257
ENCODING 62039
SWIDTH 1002 0
DWIDTH 39 0
BBX 39 34 0 -2
BITMAP
0300000000
07E0000000
0FF8000000
0FFF007800
0FFFC07E00
0FFFF8FF80
07FFFFFFE0
03FFFFFFF0
007FFFFFFC
001FFFFFFE
0003FFFFFE
0000FFFFFE
00001FFFFE
00001FFFFE
7FFFFFFFFE
FFFFFFFFFE
FFFFFFFFFE
FFFFFFFFFE
FFFFFFFFFE
7FFFFFFFFE
3FFFFFFFFE
00001FFFFE
0001FFFFFE
0003FFFFFE
0003FFFFFE
0003FFFFFE
0001FFFFFE
0000FFFFFE
00003FFFFE
00007FFFFE
0000FFFFFC
0000FFFFFC
00007FFFC0
00007FFC00
ENDCHAR
STARTCHAR F258
ENCODING 62040
SWIDTH 1131 0
DWIDTH 44 0
BBX 44 34 0 -2
BITMAP
7FFFFFF00000
FFFFFFFC0000
FFFFFFFC0000
FFFFFFFE0000
FFFFFFFF0000
FFFFFFFF0000
7FFFFFFF8000
1FFFFFFFC000
000001FFC000
000001FFE000
000001FFF000
000003FFF000
000003FFF800
000007FFF800
000007FFFC00
01FFFFFFFE00
03FFFFFFFE00
07FFFFFFFF00
07FFFFFFFF80
07FFFFFFFF80
07FFFFFFFFC0
07FFFFFFFFC0
00001FFFFFE0
000007FFFFE0
000003FFFFF0
000000FFFFF0
0000003FFFF0
0000001FFFF0
00000007FFF0
00000007FFF0
00000007FFF0
00000007FFF0
00000007FFF0
00000007FFF0
ENDCHAR
STARTCHAR F259
ENCODING 62041
SWIDTH 1002 0
DWIDTH 39 0
BBX 39 39 0 -5
BITMAP
0003800000
0007C00000
000FC00600
000FE00F00
0007E01F80
0047E01F80
01F7E01F80
01FFF03F98
01FBF03F7C
01FBF03F7E
01FBF03F7E
01FFF87FFE
01FFF87EFC
00FDF87EFC
00FDF87EFC
00FDF8FFFC
00FFFCFDFC
007EFCFDF8
007EFCFDF8
007FFFFFF8
007FFFFFF8
003FFFFFF0
003FFFFFF0
303FFFFFF0
FC3FFFFFF0
FE3FFFFFF0
FF3FFFFFF0
FFBFFFFFF0
7FFFFFFFF0
3FFFFFFFF0
1FFFFFFFE0
0FFFFFFFE0
07FFFFFFE0
03FFFFFFC0
00FFFFFFC0
007FFFFFC0
003FFFFF80
001FFFFF80
000FFFFF00
ENDCHAR
STARTCHAR F25A
ENCODING 62042
SWIDTH 874 0
DWIDTH 34 0
BBX 34 39 0 -5
BITMAP
0078000000
00FC000000
00FC000000
00FC000000
00FC000000
00FC000000
00FC000000
00FC000000
00FC000000
00FC000000
00FC000000
00FC000000
00FCE00000
00FDF18000
00FDFBE000
00FDFFE300
00FDFFEFC0
00FDFFEFC0
00FFFFFFC0
30FFFFFFC0
78FFFFFFC0
FCFFFFFFC0
FEFFFFFFC0
FFFFFFFFC0
7FFDFFEFC0
7FFDFFEFC0
3FFDFFEFC0
1FFDFFEFC0
0FFDFFEF80
0FFDFFEF80
07FDFFEF80
03FDFFEF80
01FFFFFF00
01FFFFFF00
00FFFFFF00
007FFFFF00
007FFFFF00
003FFFFE00
001FFFFC00
ENDCHAR
STARTCHAR F25B
ENCODING 62043
SWIDTH 874 0
DWIDTH 34 0
BBX 34 39 0 -5
BITMAP
0001E00000
0003F00000
0003F00000
0007F80000
7C07F80000
FE07F80000
FE07F80000
FF07F80000
FF07F80000
7F07F80000
7F87F80000
7F87F80000
3FC7F80000
3FC7F80000
1FC7F9C000
1FE7FBE000
1FE7FFE300
0FF7FFE780
0FF7FFEFC0
07FFFFFFC0
07FFFFFFC0
07FFFFFFC0
03FFFFFFC0
07FFFFFFC0
0FFFFFFFC0
1FFFFFFFC0
3FFFFFFFC0
3FFFFFFFC0
1FFFFFFF80
1FFFFFFF80
0FFFFFFF80
0FFFFFFF80
07FFFFFF00
07FFFFFF00
03FFFFFF00
01FFFFFF00
01FFFFFF00
00FFFFFE00
007FFFFC00
ENDCHAR
STARTCHAR F25C
ENCODING 62044
SWIDTH 1260 0
DWIDTH 49 0
BBX 49 25 0 2
BITMAP
FFFFF0FE00FE00
FFFFF8FE00FE00
FFFFF8FE01FE00
FFFFF8FF01FE00
FFFFF8FF01FE00
01F800FF03FE00
01F800FF83FE00
01F800FF83FE00
01F800FFC7FE00
01F801FFC7FE00
01F801FFC7FF00
01F801FBCFBF00
01F801FBEFBF00
01F801FBEFBF00
01F801F9FF3F00
01F801F9FF3F00
01F801F9FF3F00
01F801F8FE3F00
01F801F8FE3F00
01F801F8FC3F00
01F801F07C3F00
01F803F0001F00
01F803F0001F80
01F803F0001F80
00F801F0001F00
ENDCHAR
STARTCHAR F25D
ENCODING 62045
SWIDTH 1002 0
DWIDTH 39 0
BBX 37 37 1 -4
BITMAP
0007FF0000
003FFFE000
00FFFFF000
01FFFFFC00
03FFFFFE00
07FFFFFF00
0FFFFFFF80
1FFFFFFFC0
3FE003FFC0
3FE000FFE0
7FE0007FE0
7FE0003FF0
7FE0003FF0
FFE0F03FF8
FFE0F83FF8
FFE0F83FF8
FFE0F03FF8
FFE0007FF8
FFE0007FF8
FFE000FFF8
FFE001FFF8
FFE000FFF8
FFE0E0FFF8
FFE0E07FF8
7FE0F03FF0
7FE0F03FF0
7FE0F81FE0
3FE0F81FE0
3FE0FC3FC0
1FFFFFFFC0
0FFFFFFF80
07FFFFFF00
03FFFFFE00
01FFFFFC00
007FFFF000
001FFFC000
0007FF0000
ENDCHAR
STARTCHAR F26C
ENCODING 62060
SWIDTH 1260 0
DWIDTH 49 0
BBX 49 39 0 -5
BITMAP
3FFFFFFFFFFE00
7FFFFFFFFFFF00
FFFFFFFFFFFF00
FFFFFFFFFFFF80
FFFFFFFFFFFF80
F8000000000F80
F8000000000F80
F8000000000F80
F8000000000F80
F8000000000F80
F8000000000F80
F8000000000F80
F8000000000F80
F8000000000F80
F8000000000F80
F8000000000F80
F8000000000F80
F8000000000F80
F8000000000F80
F8000000000F80
F8000000000F80
F8000000000F80
F8000000000F80
F8000000000F80
F8000000000F80
F8000000000F80
F8000000000F80
FFFFFFFFFFFF80
FFFFFFFFFFFF80
FFFFFFFFFFFF00
7FFFFFFFFFFF00
1FFFFFFFFFFC00
000003E0000000
000003E0000000
007FFFFFFF8000
00FFFFFFFFC000
00FFFFFFFFC000
00FFFFFFFF8000
007FFFFFFF0000
ENDCHAR
STARTCHAR F271
ENCODING 62065
SWIDTH 874 0
DWIDTH 34 0
BBX 34 39 0 -5
BITMAP
01F003E000
01F003E000
01F003E000
01F003E000
01F003E000
7FFFFFFF80
7FFFFFFF80
FFFFFFFFC0
FFFFFFFFC0
FFFFFFFFC0
FFFFFFFFC0
FFFFFFFFC0
0000000000
0000000000
0000000000
FFFFFFFFC0
FFFFFFFFC0
FFFFFFFFC0
FFFFFFFFC0
FFFE1FFFC0
FFFE1FFFC0
FFFE1FFFC0
FFFE1FFFC0
FFFE1FFFC0
FF80007FC0
FF80007FC0
FF80007FC0
FF80007FC0
FF80007FC0
FFFE1FFFC0
FFFE1FFFC0
FFFE1FFFC0
FFFE1FFFC0
FFFE1FFFC0
FFFE1FFFC0
FFFFFFFFC0
FFFFFFFFC0
7FFFFFFF80
3FFFFFFF00
ENDCHAR
STARTCHAR F272
ENCODING 62066
SWIDTH 874 0
DWIDTH 34 0
BBX 34 39 0 -5
BITMAP
01F003E000
01F003E000
01F003E000
01F003E000
01F003E000
7FFFFFFF80
7FFFFFFF80
FFFFFFFFC0
FFFFFFFFC0
FFFFFFFFC0
FFFFFFFFC0
FFFFFFFFC0
0000000000
0000000000
0000000000
FFFFFFFFC0
FFFFFFFFC0
FFFFFFFFC0
FFFFFFFFC0
FFFFFFFFC0
FFFFFFFFC0
FFFFFFFFC0
FFFFFFFFC0
FFFFFFFFC0
FF80007FC0
FF80007FC0
FF80007FC0
FF80007FC0
FF80007FC0
FFFFFFFFC0
FFFFFFFFC0
FFFFFFFFC0
FFFFFFFFC0
FFFFFFFFC0
FFFFFFFFC0
FFFFFFFFC0
FFFFFFFFC0
7FFFFFFF80
3FFFFFFF00
ENDCHAR
STARTCHAR F273
ENCODING 62067
SWIDTH 874 0
DWIDTH 34 0
BBX 34 39 0 -5
BITMAP
01F003E000
01F003E000
01F003E000
01F003E000
01F003E000
7FFFFFFF80
7FFFFFFF80
FFFFFFFFC0
FFFFFFFFC0
FFFFFFFFC0
FFFFFFFFC0
FFFFFFFFC0
0000000000
0000000000
0000000000
FFFFFFFFC0
FFFFFFFFC0
FFFFFFFFC0
FFFFFFFFC0
FFF7FBFFC0
FFE3F1FFC0
FFC1E0FFC0
FFC0C0FFC0
FFC000FFC0
FFE001FFC0
FFF003FFC0
FFF807FFC0
FFF807FFC0
FFF003FFC0
FFE001FFC0
FFC000FFC0
FFC0C0FFC0
FFE1E1FFC0
FFF3F3FFC0
FFFFFFFFC0
FFFFFFFFC0
FFFFFFFFC0
7FFFFFFF80
3FFFFFFF00
ENDCHAR
STARTCHAR F274
ENCODING 62068
SWIDTH 874 0
DWIDTH 34 0
BBX 34 39 0 -5
BITMAP
01F003E000
01F003E000
01F003E000
01F003E000
01F003E000
7FFFFFFF80
7FFFFFFF80
FFFFFFFFC0
FFFFFFFFC0
FFFFFFFFC0
FFFFFFFFC0
FFFFFFFFC0
0000000000
0000000000
0000000000
FFFFFFFFC0
FFFFFFFFC0
FFFFFFFFC0
FFFFFFFFC0
FFFFFEFFC0
FFFFFC7FC0
FFFFF83FC0
FFFFF03FC0
FFFFE03FC0
FFCFC07FC0
FF8780FFC0
FF0301FFC0
FF0003FFC0
FF8007FFC0
FFC00FFFC0
FFE01FFFC0
FFF03FFFC0
FFF87FFFC0
FFFCFFFFC0
FFFFFFFFC0
FFFFFFFFC0
FFFFFFFFC0
7FFFFFFF80
3FFFFFFF00
ENDCHAR
STARTCHAR F275
ENCODING 62069
SWIDTH 1002 0
DWIDTH 39 0
BBX 39 34 0 -2
BITMAP
7FE0000000
FFF0000000
FFF0000000
FFF0000000
FFF0000000
FFF0000000
FFF0000000
FFF0000000
FFF0000000
FFF0000000
FFF001800C
FFF007803E
FFF01FC07E
FFF03FC1FE
FFF0FFC3FE
FFF1FFCFFE
FFF7FFFFFE
FFFFFFFFFE
FFFFFFFFFE
FFFFFFFFFE
FFFFFFFFFE
FFFFFFFFFE
FFFFFFFFFE
FFFFFFFFFE
FFFFFFFFFE
FFFFFFFFFE
FFFFFFFFFE
FFFFFFFFFE
FFFFFFFFFE
FFFFFFFFFE
FFFFFFFFFE
FFFFFFFFFE
FFFFFFFFFE
FFFFFFFFFE
ENDCHAR
STARTCHAR F276
ENCODING 62070
SWIDTH 617 0
DWIDTH 24 0
BBX 22 39 1 -5
BITMAP
00FC00
03FF80
0FFFC0
1FFFE0
3E1FF0
3CFFF8
79FFF8
73FFFC
F7FFFC
F7FFFC
F7FFFC
FFFFFC
FFFFFC
FFFFFC
7FFFF8
7FFFF8
3FFFF8
3FFFF0
1FFFE0
0FFFC0
03FF00
00FC00
000000
007C00
007C00
007C00
007C00
007C00
007C00
007C00
007C00
007C00
007C00
007C00
007C00
007C00
007800
003800
003000
ENDCHAR
STARTCHAR F277
ENCODING 62071
SWIDTH 1002 0
DWIDTH 39 0
BBX 35 39 2 -5
BITMAP
0001F00000
0003F00000
3FFFFFFE00
7FFFFFFF00
FFFFFFFF80
FFFFFFFFC0
FFFFFFFFE0
FFFFFFFFE0
FFFFFFFFC0
FFFFFFFF80
FFFFFFFF00
7FFFFFFE00
0000000000
0003F00000
0003F00000
0003F00000
0003F00000
0FFFFFFFC0
1FFFFFFFC0
3FFFFFFFC0
7FFFFFFFC0
FFFFFFFFC0
FFFFFFFFC0
7FFFFFFFC0
3FFFFFFFC0
1FFFFFFFC0
0FFFFFFF80
0000000000
0003F00000
0003F00000
0003F00000
0003F00000
0003F00000
0003F00000
0003F00000
0003F00000
0003F00000
0003F00000
0001F00000
ENDCHAR
STARTCHAR F279
ENCODING 62073
SWIDTH 1131 0
DWIDTH 44 0
BBX 44 34 0 -3
BITMAP
001080000040
0079E00001F0
01F9FC0007F0
07F9FF001FF0
1FF9FFC07FF0
7FF9FFF1FFF0
FFF9FFFBFFF0
FFF9FFFBFFF0
FFF9FFFBFFF0
FFF9FFFBFFF0
FFF9FFFBFFF0
FFF9FFFBFFF0
FFF9FFFBFFF0
FFF9FFFBFFF0
FFF9FFFBFFF0
FFF9FFFBFFF0
FFF9FFFBFFF0
FFF9FFFBFFF0
FFF9FFFBFFF0
FFF9FFFBFFF0
FFF9FFFBFFF0
FFF9FFFBFFF0
FFF9FFFBFFF0
FFF9FFFBFFF0
FFF9FFFBFFF0
FFF9FFFBFFF0
FFF9FFFBFFF0
FFF9FFFBFFF0
FFF9FFFBFFF0
FFF0FFFBFFC0
FFC03FFBFF00
FF000FFBFC00
FC0001FBF000
F0000079C000
ENDCHAR
STARTCHAR F27A
ENCODING 62074
SWIDTH 1131 0
DWIDTH 44 0
BBX 44 34 0 -2
BITMAP
00001F000000
0003FFFC0000
001FFFFF8000
007FFFFFE000
01FFFFFFF000
03FFFFFFFC00
07FFFFFFFE00
0FFFFFFFFF00
1FFFFFFFFF80
3FFFFFFFFFC0
7FFFFFFFFFC0
7FFFFFFFFFE0
7FFFFFFFFFE0
FFC1E0F83FE0
FF81E0701FF0
FF80C0701FF0
FF80C0701FF0
FF80C0701FF0
FF81E0783FF0
FFE3F1FC7FE0
7FFFFFFFFFE0
7FFFFFFFFFE0
3FFFFFFFFFC0
3FFFFFFFFF80
1FFFFFFFFF80
0FFFFFFFFF00
0FFFFFFFFE00
0FFFFFFFF800
0FFFFFFFF000
1FFFFFFFC000
1FE7FFFE0000
3FC0FFF00000
7F0000000000
FC0000000000
ENDCHAR
STARTCHAR F28B
ENCODING 62091
SWIDTH 1002 0
DWIDTH 39 0
BBX 37 37 1 -4
BITMAP
0007FF0000
003FFFE000
00FFFFF000
01FFFFFC00
03FFFFFE00
07FFFFFF00
0FFFFFFF80
1FFFFFFFC0
3FFFFFFFC0
3FFFFFFFE0
7FFFFFFFF0
7FE0707FF0
7FE0703FF0
FFE0703FF8
FFE0703FF8
FFE0703FF8
FFE0703FF8
FFE0703FF8
FFE0703FF8
FFE0703FF8
FFE0703FF8
FFE0703FF8
FFE0703FF8
FFE0703FF8
7FE0703FF0
7FF0707FF0
7FFFFFFFE0
3FFFFFFFE0
3FFFFFFFC0
1FFFFFFFC0
0FFFFFFF80
07FFFFFF00
03FFFFFE00
01FFFFFC00
007FFFF000
003FFFC000
0007FF0000
ENDCHAR
STARTCHAR F28D
ENCODING 62093
SWIDTH 1002 0
DWIDTH 39 0
BBX 37 37 1 -4
BITMAP
0007FF0000
003FFFE000
00FFFFF000
01FFFFFC00
03FFFFFE00
07FFFFFF00
0FFFFFFF80
1FFFFFFFC0
3FFFFFFFC0
3FFFFFFFE0
7FFFFFFFF0
7FE0007FF0
7FE0003FF0
FFE0003FF8
FFE0003FF8
FFE0003FF8
FFE0003FF8
FFE0003FF8
FFE0003FF8
FFE0003FF8
FFE0003FF8
FFE0003FF8
FFE0003FF8
FFE0003FF8
7FE0003FF0
7FF0007FF0
7FFFFFFFE0
3FFFFFFFE0
3FFFFFFFC0
1FFFFFFFC0
0FFFFFFF80
07FFFFFF00
03FFFFFE00
01FFFFFC00
007FFFF000
003FFFC000
0007FF0000
ENDCHAR
STARTCHAR F290
ENCODING 62096
SWIDTH 874 0
DWIDTH 34 0
BBX 34 39 0 -5
BITMAP
0003F00000
000FFC0000
003FFF0000
007FFF8000
007FFF8000
00FE1FC000
00F807C000
01F807C000
01F003E000
01F003E000
01F003E000
01F003E000
FFFFFFFFC0
FFFFFFFFC0
FFFFFFFFC0
FF9FFE7FC0
FF1FFE3FC0
FF1FFE3FC0
FF9FFE7FC0
FFFFFFFFC0
FFFFFFFFC0
FFFFFFFFC0
FFFFFFFFC0
FFFFFFFFC0
FFFFFFFFC0
FFFFFFFFC0
FFFFFFFFC0
FFFFFFFFC0
FFFFFFFFC0
FFFFFFFFC0
FFFFFFFFC0
FFFFFFFFC0
FFFFFFFFC0
FFFFFFFFC0
FFFFFFFFC0
7FFFFFFF80
7FFFFFFF80
3FFFFFFF00
0FFFFFFC00
ENDCHAR
ENDFONT
